%TF.GenerationSoftware,KiCad,Pcbnew,8.0.5*%
%TF.CreationDate,2025-10-27T12:24:43-04:00*%
%TF.ProjectId,SeeedControlBoard,53656565-6443-46f6-9e74-726f6c426f61,rev?*%
%TF.SameCoordinates,Original*%
%TF.FileFunction,Copper,L2,Bot*%
%TF.FilePolarity,Positive*%
%FSLAX46Y46*%
G04 Gerber Fmt 4.6, Leading zero omitted, Abs format (unit mm)*
G04 Created by KiCad (PCBNEW 8.0.5) date 2025-10-27 12:24:43*
%MOMM*%
%LPD*%
G01*
G04 APERTURE LIST*
%ADD10C,0.400000*%
%TA.AperFunction,NonConductor*%
%ADD11C,0.400000*%
%TD*%
%TA.AperFunction,ComponentPad*%
%ADD12O,1.700000X1.700000*%
%TD*%
%TA.AperFunction,SMDPad,CuDef*%
%ADD13R,1.400000X1.700000*%
%TD*%
%TA.AperFunction,SMDPad,CuDef*%
%ADD14R,1.700000X1.400000*%
%TD*%
%TA.AperFunction,ViaPad*%
%ADD15C,1.500000*%
%TD*%
%TA.AperFunction,Conductor*%
%ADD16C,0.500000*%
%TD*%
G04 APERTURE END LIST*
D10*
D11*
X111760652Y-114234438D02*
X111760652Y-112234438D01*
X111760652Y-112234438D02*
X111093985Y-113663009D01*
X111093985Y-113663009D02*
X110427319Y-112234438D01*
X110427319Y-112234438D02*
X110427319Y-114234438D01*
X109189224Y-114234438D02*
X109379700Y-114139200D01*
X109379700Y-114139200D02*
X109474938Y-114043961D01*
X109474938Y-114043961D02*
X109570176Y-113853485D01*
X109570176Y-113853485D02*
X109570176Y-113282057D01*
X109570176Y-113282057D02*
X109474938Y-113091580D01*
X109474938Y-113091580D02*
X109379700Y-112996342D01*
X109379700Y-112996342D02*
X109189224Y-112901104D01*
X109189224Y-112901104D02*
X108903509Y-112901104D01*
X108903509Y-112901104D02*
X108713033Y-112996342D01*
X108713033Y-112996342D02*
X108617795Y-113091580D01*
X108617795Y-113091580D02*
X108522557Y-113282057D01*
X108522557Y-113282057D02*
X108522557Y-113853485D01*
X108522557Y-113853485D02*
X108617795Y-114043961D01*
X108617795Y-114043961D02*
X108713033Y-114139200D01*
X108713033Y-114139200D02*
X108903509Y-114234438D01*
X108903509Y-114234438D02*
X109189224Y-114234438D01*
X107951128Y-112901104D02*
X107189224Y-112901104D01*
X107665414Y-112234438D02*
X107665414Y-113948723D01*
X107665414Y-113948723D02*
X107570176Y-114139200D01*
X107570176Y-114139200D02*
X107379700Y-114234438D01*
X107379700Y-114234438D02*
X107189224Y-114234438D01*
X106236843Y-114234438D02*
X106427319Y-114139200D01*
X106427319Y-114139200D02*
X106522557Y-114043961D01*
X106522557Y-114043961D02*
X106617795Y-113853485D01*
X106617795Y-113853485D02*
X106617795Y-113282057D01*
X106617795Y-113282057D02*
X106522557Y-113091580D01*
X106522557Y-113091580D02*
X106427319Y-112996342D01*
X106427319Y-112996342D02*
X106236843Y-112901104D01*
X106236843Y-112901104D02*
X105951128Y-112901104D01*
X105951128Y-112901104D02*
X105760652Y-112996342D01*
X105760652Y-112996342D02*
X105665414Y-113091580D01*
X105665414Y-113091580D02*
X105570176Y-113282057D01*
X105570176Y-113282057D02*
X105570176Y-113853485D01*
X105570176Y-113853485D02*
X105665414Y-114043961D01*
X105665414Y-114043961D02*
X105760652Y-114139200D01*
X105760652Y-114139200D02*
X105951128Y-114234438D01*
X105951128Y-114234438D02*
X106236843Y-114234438D01*
X104713033Y-114234438D02*
X104713033Y-112901104D01*
X104713033Y-113282057D02*
X104617795Y-113091580D01*
X104617795Y-113091580D02*
X104522557Y-112996342D01*
X104522557Y-112996342D02*
X104332081Y-112901104D01*
X104332081Y-112901104D02*
X104141604Y-112901104D01*
X102522557Y-114234438D02*
X103474938Y-114234438D01*
X103474938Y-114234438D02*
X103474938Y-112234438D01*
D10*
D11*
X96760652Y-114234438D02*
X96760652Y-112234438D01*
X96760652Y-112234438D02*
X96093985Y-113663009D01*
X96093985Y-113663009D02*
X95427319Y-112234438D01*
X95427319Y-112234438D02*
X95427319Y-114234438D01*
X94189224Y-114234438D02*
X94379700Y-114139200D01*
X94379700Y-114139200D02*
X94474938Y-114043961D01*
X94474938Y-114043961D02*
X94570176Y-113853485D01*
X94570176Y-113853485D02*
X94570176Y-113282057D01*
X94570176Y-113282057D02*
X94474938Y-113091580D01*
X94474938Y-113091580D02*
X94379700Y-112996342D01*
X94379700Y-112996342D02*
X94189224Y-112901104D01*
X94189224Y-112901104D02*
X93903509Y-112901104D01*
X93903509Y-112901104D02*
X93713033Y-112996342D01*
X93713033Y-112996342D02*
X93617795Y-113091580D01*
X93617795Y-113091580D02*
X93522557Y-113282057D01*
X93522557Y-113282057D02*
X93522557Y-113853485D01*
X93522557Y-113853485D02*
X93617795Y-114043961D01*
X93617795Y-114043961D02*
X93713033Y-114139200D01*
X93713033Y-114139200D02*
X93903509Y-114234438D01*
X93903509Y-114234438D02*
X94189224Y-114234438D01*
X92951128Y-112901104D02*
X92189224Y-112901104D01*
X92665414Y-112234438D02*
X92665414Y-113948723D01*
X92665414Y-113948723D02*
X92570176Y-114139200D01*
X92570176Y-114139200D02*
X92379700Y-114234438D01*
X92379700Y-114234438D02*
X92189224Y-114234438D01*
X91236843Y-114234438D02*
X91427319Y-114139200D01*
X91427319Y-114139200D02*
X91522557Y-114043961D01*
X91522557Y-114043961D02*
X91617795Y-113853485D01*
X91617795Y-113853485D02*
X91617795Y-113282057D01*
X91617795Y-113282057D02*
X91522557Y-113091580D01*
X91522557Y-113091580D02*
X91427319Y-112996342D01*
X91427319Y-112996342D02*
X91236843Y-112901104D01*
X91236843Y-112901104D02*
X90951128Y-112901104D01*
X90951128Y-112901104D02*
X90760652Y-112996342D01*
X90760652Y-112996342D02*
X90665414Y-113091580D01*
X90665414Y-113091580D02*
X90570176Y-113282057D01*
X90570176Y-113282057D02*
X90570176Y-113853485D01*
X90570176Y-113853485D02*
X90665414Y-114043961D01*
X90665414Y-114043961D02*
X90760652Y-114139200D01*
X90760652Y-114139200D02*
X90951128Y-114234438D01*
X90951128Y-114234438D02*
X91236843Y-114234438D01*
X89713033Y-114234438D02*
X89713033Y-112901104D01*
X89713033Y-113282057D02*
X89617795Y-113091580D01*
X89617795Y-113091580D02*
X89522557Y-112996342D01*
X89522557Y-112996342D02*
X89332081Y-112901104D01*
X89332081Y-112901104D02*
X89141604Y-112901104D01*
X87332081Y-114234438D02*
X87998748Y-113282057D01*
X88474938Y-114234438D02*
X88474938Y-112234438D01*
X88474938Y-112234438D02*
X87713033Y-112234438D01*
X87713033Y-112234438D02*
X87522557Y-112329676D01*
X87522557Y-112329676D02*
X87427319Y-112424914D01*
X87427319Y-112424914D02*
X87332081Y-112615390D01*
X87332081Y-112615390D02*
X87332081Y-112901104D01*
X87332081Y-112901104D02*
X87427319Y-113091580D01*
X87427319Y-113091580D02*
X87522557Y-113186819D01*
X87522557Y-113186819D02*
X87713033Y-113282057D01*
X87713033Y-113282057D02*
X88474938Y-113282057D01*
D10*
D11*
X118260652Y-87734438D02*
X118260652Y-85734438D01*
X118260652Y-85734438D02*
X117498747Y-85734438D01*
X117498747Y-85734438D02*
X117308271Y-85829676D01*
X117308271Y-85829676D02*
X117213033Y-85924914D01*
X117213033Y-85924914D02*
X117117795Y-86115390D01*
X117117795Y-86115390D02*
X117117795Y-86401104D01*
X117117795Y-86401104D02*
X117213033Y-86591580D01*
X117213033Y-86591580D02*
X117308271Y-86686819D01*
X117308271Y-86686819D02*
X117498747Y-86782057D01*
X117498747Y-86782057D02*
X118260652Y-86782057D01*
X115974938Y-87734438D02*
X116165414Y-87639200D01*
X116165414Y-87639200D02*
X116260652Y-87543961D01*
X116260652Y-87543961D02*
X116355890Y-87353485D01*
X116355890Y-87353485D02*
X116355890Y-86782057D01*
X116355890Y-86782057D02*
X116260652Y-86591580D01*
X116260652Y-86591580D02*
X116165414Y-86496342D01*
X116165414Y-86496342D02*
X115974938Y-86401104D01*
X115974938Y-86401104D02*
X115689223Y-86401104D01*
X115689223Y-86401104D02*
X115498747Y-86496342D01*
X115498747Y-86496342D02*
X115403509Y-86591580D01*
X115403509Y-86591580D02*
X115308271Y-86782057D01*
X115308271Y-86782057D02*
X115308271Y-87353485D01*
X115308271Y-87353485D02*
X115403509Y-87543961D01*
X115403509Y-87543961D02*
X115498747Y-87639200D01*
X115498747Y-87639200D02*
X115689223Y-87734438D01*
X115689223Y-87734438D02*
X115974938Y-87734438D01*
X114641604Y-86401104D02*
X114260652Y-87734438D01*
X114260652Y-87734438D02*
X113879699Y-86782057D01*
X113879699Y-86782057D02*
X113498747Y-87734438D01*
X113498747Y-87734438D02*
X113117795Y-86401104D01*
X111593985Y-87639200D02*
X111784461Y-87734438D01*
X111784461Y-87734438D02*
X112165414Y-87734438D01*
X112165414Y-87734438D02*
X112355890Y-87639200D01*
X112355890Y-87639200D02*
X112451128Y-87448723D01*
X112451128Y-87448723D02*
X112451128Y-86686819D01*
X112451128Y-86686819D02*
X112355890Y-86496342D01*
X112355890Y-86496342D02*
X112165414Y-86401104D01*
X112165414Y-86401104D02*
X111784461Y-86401104D01*
X111784461Y-86401104D02*
X111593985Y-86496342D01*
X111593985Y-86496342D02*
X111498747Y-86686819D01*
X111498747Y-86686819D02*
X111498747Y-86877295D01*
X111498747Y-86877295D02*
X112451128Y-87067771D01*
X110641604Y-87734438D02*
X110641604Y-86401104D01*
X110641604Y-86782057D02*
X110546366Y-86591580D01*
X110546366Y-86591580D02*
X110451128Y-86496342D01*
X110451128Y-86496342D02*
X110260652Y-86401104D01*
X110260652Y-86401104D02*
X110070175Y-86401104D01*
D12*
%TO.P,J2,1,Pin_1*%
%TO.N,GND*%
X79000000Y-97450000D03*
%TO.P,J2,2,Pin_2*%
%TO.N,unconnected-(J2-Pin_2-Pad2)*%
X79000000Y-99990000D03*
%TO.P,J2,3,Pin_3*%
%TO.N,MotorR*%
X79000000Y-102530000D03*
%TD*%
%TO.P,J1,1,Pin_1*%
%TO.N,GND*%
X124000000Y-97450000D03*
%TO.P,J1,2,Pin_2*%
%TO.N,unconnected-(J1-Pin_2-Pad2)*%
X124000000Y-99990000D03*
%TO.P,J1,3,Pin_3*%
%TO.N,MotorL*%
X124000000Y-102530000D03*
%TD*%
D13*
%TO.P,D1,1,K*%
%TO.N,Net-(D1-K)*%
X116400000Y-90000000D03*
%TO.P,D1,2,A*%
%TO.N,VCC*%
X113000000Y-90000000D03*
%TD*%
D14*
%TO.P,MotorR1,1*%
%TO.N,GND*%
X92500000Y-100800000D03*
%TO.P,MotorR1,2*%
%TO.N,Net-(D3-K)*%
X92500000Y-104200000D03*
%TD*%
%TO.P,D3,1,K*%
%TO.N,Net-(D3-K)*%
X92500000Y-107000000D03*
%TO.P,D3,2,A*%
%TO.N,MotorR-LED*%
X92500000Y-110400000D03*
%TD*%
%TO.P,R1,1*%
%TO.N,GND*%
X116500000Y-96000000D03*
%TO.P,R1,2*%
%TO.N,Net-(D1-K)*%
X116500000Y-92600000D03*
%TD*%
%TO.P,D2,1,K*%
%TO.N,Net-(D2-K)*%
X107500000Y-107300000D03*
%TO.P,D2,2,A*%
%TO.N,MotorL-LED*%
X107500000Y-110700000D03*
%TD*%
%TO.P,MotorL1,1*%
%TO.N,GND*%
X107500000Y-100800000D03*
%TO.P,MotorL1,2*%
%TO.N,Net-(D2-K)*%
X107500000Y-104200000D03*
%TD*%
D15*
%TO.N,VCC*%
X112500000Y-92500000D03*
%TO.N,GND*%
X113500000Y-95800000D03*
%TO.N,MotorL-LED*%
X113250000Y-103420000D03*
%TO.N,MotorR-LED*%
X87500000Y-95800000D03*
%TD*%
D16*
%TO.N,Net-(D1-K)*%
X116400000Y-90000000D02*
X116400000Y-92500000D01*
%TO.N,VCC*%
X113000000Y-90000000D02*
X113000000Y-92000000D01*
X113000000Y-92000000D02*
X112500000Y-92500000D01*
%TO.N,Net-(D2-K)*%
X107500000Y-107300000D02*
X107500000Y-104200000D01*
%TO.N,GND*%
X106000000Y-98500000D02*
X104000000Y-100500000D01*
X113500000Y-95800000D02*
X116300000Y-95800000D01*
X92800000Y-100500000D02*
X92500000Y-100800000D01*
X110700000Y-100800000D02*
X113500000Y-98000000D01*
X110800000Y-98500000D02*
X106000000Y-98500000D01*
X116300000Y-95800000D02*
X116500000Y-96000000D01*
X113500000Y-98000000D02*
X113500000Y-95800000D01*
X107500000Y-100800000D02*
X110700000Y-100800000D01*
X113500000Y-95800000D02*
X110800000Y-98500000D01*
X104000000Y-100500000D02*
X92800000Y-100500000D01*
%TO.N,Net-(D3-K)*%
X92500000Y-107000000D02*
X92500000Y-104200000D01*
%TO.N,MotorL-LED*%
X113250000Y-108750000D02*
X113250000Y-103420000D01*
X111300000Y-110700000D02*
X113250000Y-108750000D01*
X107500000Y-110700000D02*
X111300000Y-110700000D01*
%TO.N,MotorR-LED*%
X89500000Y-97800000D02*
X87500000Y-95800000D01*
X89500000Y-109500000D02*
X89500000Y-97800000D01*
X90400000Y-110400000D02*
X89500000Y-109500000D01*
X92500000Y-110400000D02*
X90400000Y-110400000D01*
%TD*%
M02*
