%TF.GenerationSoftware,KiCad,Pcbnew,8.0.5*%
%TF.CreationDate,2025-10-27T12:24:43-04:00*%
%TF.ProjectId,SeeedControlBoard,53656565-6443-46f6-9e74-726f6c426f61,rev?*%
%TF.SameCoordinates,Original*%
%TF.FileFunction,Copper,L1,Top*%
%TF.FilePolarity,Positive*%
%FSLAX46Y46*%
G04 Gerber Fmt 4.6, Leading zero omitted, Abs format (unit mm)*
G04 Created by KiCad (PCBNEW 8.0.5) date 2025-10-27 12:24:43*
%MOMM*%
%LPD*%
G01*
G04 APERTURE LIST*
%TA.AperFunction,SMDPad,CuDef*%
%ADD10R,2.500000X1.700000*%
%TD*%
%TA.AperFunction,ComponentPad*%
%ADD11O,1.700000X1.700000*%
%TD*%
%TA.AperFunction,SMDPad,CuDef*%
%ADD12R,3.000000X1.600000*%
%TD*%
%TA.AperFunction,ViaPad*%
%ADD13C,1.500000*%
%TD*%
%TA.AperFunction,Conductor*%
%ADD14C,0.500000*%
%TD*%
G04 APERTURE END LIST*
D10*
%TO.P,J4,1,Pin_1*%
%TO.N,Net-(J4-Pin_1)*%
X113400000Y-108500000D03*
%TO.P,J4,2,Pin_2*%
%TO.N,Net-(J4-Pin_2)*%
X113400000Y-105960000D03*
%TD*%
D11*
%TO.P,J2,1,Pin_1*%
%TO.N,GND*%
X79000000Y-97450000D03*
%TO.P,J2,2,Pin_2*%
%TO.N,unconnected-(J2-Pin_2-Pad2)*%
X79000000Y-99990000D03*
%TO.P,J2,3,Pin_3*%
%TO.N,MotorR*%
X79000000Y-102530000D03*
%TD*%
%TO.P,J1,1,Pin_1*%
%TO.N,GND*%
X124000000Y-97450000D03*
%TO.P,J1,2,Pin_2*%
%TO.N,unconnected-(J1-Pin_2-Pad2)*%
X124000000Y-99990000D03*
%TO.P,J1,3,Pin_3*%
%TO.N,MotorL*%
X124000000Y-102530000D03*
%TD*%
D10*
%TO.P,J3,1,Pin_1*%
%TO.N,Net-(J3-Pin_1)*%
X87000000Y-98360000D03*
%TO.P,J3,2,Pin_2*%
%TO.N,Net-(J3-Pin_2)*%
X87000000Y-100900000D03*
%TO.P,J3,3,Pin_3*%
%TO.N,Net-(J3-Pin_3)*%
X87000000Y-103440000D03*
%TO.P,J3,4,Pin_4*%
%TO.N,Net-(J3-Pin_4)*%
X87000000Y-105980000D03*
%TO.P,J3,5,Pin_5*%
%TO.N,Net-(J3-Pin_5)*%
X87000000Y-108520000D03*
%TD*%
%TO.P,J5,1,Pin_1*%
%TO.N,Net-(J5-Pin_1)*%
X113600000Y-98300000D03*
%TD*%
D12*
%TO.P,M1,1,D0*%
%TO.N,MotorR*%
X91765000Y-93260000D03*
%TO.P,M1,2,D1*%
%TO.N,MotorR-LED*%
X91765000Y-95800000D03*
%TO.P,M1,3,D2*%
%TO.N,Net-(J3-Pin_1)*%
X91765000Y-98340000D03*
%TO.P,M1,4,D3*%
%TO.N,Net-(J3-Pin_2)*%
X91765000Y-100880000D03*
%TO.P,M1,5,D4*%
%TO.N,Net-(J3-Pin_3)*%
X91765000Y-103420000D03*
%TO.P,M1,6,D5*%
%TO.N,Net-(J3-Pin_4)*%
X91765000Y-105960000D03*
%TO.P,M1,7,D6*%
%TO.N,Net-(J3-Pin_5)*%
X91765000Y-108500000D03*
%TO.P,M1,8,D7*%
%TO.N,Net-(J4-Pin_1)*%
X109000000Y-108500000D03*
%TO.P,M1,9,D8*%
%TO.N,Net-(J4-Pin_2)*%
X109000000Y-105960000D03*
%TO.P,M1,10,D9*%
%TO.N,MotorL-LED*%
X109000000Y-103420000D03*
%TO.P,M1,11,D10*%
%TO.N,MotorL*%
X109000000Y-100880000D03*
%TO.P,M1,12,3V3*%
%TO.N,Net-(J5-Pin_1)*%
X109000000Y-98340000D03*
%TO.P,M1,13,GND*%
%TO.N,GND*%
X109000000Y-95800000D03*
%TO.P,M1,14,5V*%
%TO.N,VCC*%
X109000000Y-93260000D03*
%TD*%
D13*
%TO.N,VCC*%
X112500000Y-92500000D03*
%TO.N,GND*%
X113500000Y-95800000D03*
%TO.N,MotorL-LED*%
X113250000Y-103420000D03*
%TO.N,MotorR-LED*%
X87500000Y-95800000D03*
%TD*%
D14*
%TO.N,VCC*%
X108000000Y-93260000D02*
X111740000Y-93260000D01*
X111740000Y-93260000D02*
X112500000Y-92500000D01*
%TO.N,MotorR*%
X84740000Y-93260000D02*
X83500000Y-94500000D01*
X82470000Y-102530000D02*
X79000000Y-102530000D01*
X92765000Y-93260000D02*
X84740000Y-93260000D01*
X83500000Y-101500000D02*
X82470000Y-102530000D01*
X83500000Y-94500000D02*
X83500000Y-101500000D01*
%TO.N,GND*%
X120600000Y-97000000D02*
X121050000Y-97450000D01*
X99800000Y-95800000D02*
X108000000Y-95800000D01*
X120600000Y-96300000D02*
X120600000Y-97000000D01*
X113500000Y-95800000D02*
X120100000Y-95800000D01*
X113500000Y-95800000D02*
X108000000Y-95800000D01*
X79000000Y-96000000D02*
X84500000Y-90500000D01*
X84500000Y-90500000D02*
X94500000Y-90500000D01*
X94500000Y-90500000D02*
X99800000Y-95800000D01*
X120100000Y-95800000D02*
X120600000Y-96300000D01*
X121050000Y-97450000D02*
X124000000Y-97450000D01*
X79000000Y-97450000D02*
X79000000Y-96000000D01*
%TO.N,MotorL*%
X120000000Y-102500000D02*
X123000000Y-102500000D01*
X118380000Y-100880000D02*
X120000000Y-102500000D01*
X108000000Y-100880000D02*
X118380000Y-100880000D01*
%TO.N,MotorL-LED*%
X108000000Y-103420000D02*
X113250000Y-103420000D01*
X113330000Y-103420000D02*
X113500000Y-103250000D01*
X113250000Y-103420000D02*
X113330000Y-103420000D01*
%TO.N,MotorR-LED*%
X92765000Y-95800000D02*
X87500000Y-95800000D01*
X87500000Y-95800000D02*
X87300000Y-95800000D01*
X87300000Y-95800000D02*
X87250000Y-95750000D01*
%TO.N,Net-(J3-Pin_2)*%
X92765000Y-100880000D02*
X92745000Y-100900000D01*
X92745000Y-100900000D02*
X87000000Y-100900000D01*
%TO.N,Net-(J3-Pin_5)*%
X92765000Y-108500000D02*
X92745000Y-108520000D01*
X92745000Y-108520000D02*
X87000000Y-108520000D01*
%TO.N,Net-(J3-Pin_1)*%
X92745000Y-98360000D02*
X87000000Y-98360000D01*
X92765000Y-98340000D02*
X92745000Y-98360000D01*
%TO.N,Net-(J3-Pin_3)*%
X92765000Y-103420000D02*
X92745000Y-103440000D01*
X92745000Y-103440000D02*
X87000000Y-103440000D01*
%TO.N,Net-(J3-Pin_4)*%
X92745000Y-105980000D02*
X87000000Y-105980000D01*
X92765000Y-105960000D02*
X92745000Y-105980000D01*
%TO.N,Net-(J4-Pin_1)*%
X108000000Y-108500000D02*
X113400000Y-108500000D01*
%TO.N,Net-(J4-Pin_2)*%
X108000000Y-105960000D02*
X113400000Y-105960000D01*
%TO.N,Net-(J5-Pin_1)*%
X108010000Y-98350000D02*
X113550000Y-98350000D01*
X108000000Y-98340000D02*
X108010000Y-98350000D01*
X113550000Y-98350000D02*
X113600000Y-98300000D01*
%TD*%
M02*
