  0
SECTION
  2
HEADER
  9
$ACADVER
  1
AC1015
  9
$ACADMAINTVER
 70
     6
  9
$DWGCODEPAGE
  3
ANSI_1252
  9
$INSBASE
 10
0.0
 20
0.0
 30
0.0
  9
$EXTMIN
 10
-0.375
 20
7.5
 30
0.0
  9
$EXTMAX
 10
19.625
 20
12.5
 30
0.0
  9
$LIMMIN
 10
0.0
 20
0.0
  9
$LIMMAX
 10
12.0
 20
9.0
  9
$ORTHOMODE
 70
     0
  9
$REGENMODE
 70
     1
  9
$FILLMODE
 70
     1
  9
$QTEXTMODE
 70
     0
  9
$MIRRTEXT
 70
     1
  9
$LTSCALE
 40
1.0
  9
$ATTMODE
 70
     1
  9
$TEXTSIZE
 40
0.125
  9
$TRACEWID
 40
0.05
  9
$TEXTSTYLE
  7
Standard
  9
$CLAYER
  8
0
  9
$CELTYPE
  6
ByLayer
  9
$CECOLOR
 62
   256
  9
$CELTSCALE
 40
1.0
  9
$DISPSILH
 70
     0
  9
$DIMSCALE
 40
1.0
  9
$DIMASZ
 40
0.13
  9
$DIMEXO
 40
0.0
  9
$DIMDLI
 40
0.38
  9
$DIMRND
 40
0.0
  9
$DIMDLE
 40
0.0
  9
$DIMEXE
 40
0.125
  9
$DIMTP
 40
0.0
  9
$DIMTM
 40
0.0
  9
$DIMTXT
 40
0.125
  9
$DIMCEN
 40
0.09
  9
$DIMTSZ
 40
0.0
  9
$DIMTOL
 70
     0
  9
$DIMLIM
 70
     0
  9
$DIMTIH
 70
     1
  9
$DIMTOH
 70
     1
  9
$DIMSE1
 70
     0
  9
$DIMSE2
 70
     0
  9
$DIMTAD
 70
     0
  9
$DIMZIN
 70
     1
  9
$DIMBLK
  1

  9
$DIMASO
 70
     1
  9
$DIMSHO
 70
     1
  9
$DIMPOST
  1

  9
$DIMAPOST
  1

  9
$DIMALT
 70
     0
  9
$DIMALTD
 70
     2
  9
$DIMALTF
 40
25.4
  9
$DIMLFAC
 40
1.0
  9
$DIMTOFL
 70
     0
  9
$DIMTVP
 40
0.0
  9
$DIMTIX
 70
     0
  9
$DIMSOXD
 70
     0
  9
$DIMSAH
 70
     0
  9
$DIMBLK1
  1

  9
$DIMBLK2
  1

  9
$DIMSTYLE
  2
Standard
  9
$DIMCLRD
 70
     0
  9
$DIMCLRE
 70
     0
  9
$DIMCLRT
 70
     0
  9
$DIMTFAC
 40
1.0
  9
$DIMGAP
 40
0.06
  9
$DIMJUST
 70
     0
  9
$DIMSD1
 70
     0
  9
$DIMSD2
 70
     0
  9
$DIMTOLJ
 70
     1
  9
$DIMTZIN
 70
     1
  9
$DIMALTZ
 70
     0
  9
$DIMALTTZ
 70
     0
  9
$DIMUPT
 70
     0
  9
$DIMDEC
 70
     2
  9
$DIMTDEC
 70
     2
  9
$DIMALTU
 70
     2
  9
$DIMALTTD
 70
     2
  9
$DIMTXSTY
  7
Standard
  9
$DIMAUNIT
 70
     0
  9
$DIMADEC
 70
     2
  9
$DIMALTRND
 40
0.0
  9
$DIMAZIN
 70
     0
  9
$DIMDSEP
 70
    46
  9
$DIMATFIT
 70
     3
  9
$DIMFRAC
 70
     0
  9
$DIMLDRBLK
  1

  9
$DIMLUNIT
 70
     2
  9
$DIMLWD
 70
    -2
  9
$DIMLWE
 70
    -2
  9
$DIMTMOVE
 70
     0
  9
$LUNITS
 70
     2
  9
$LUPREC
 70
     2
  9
$SKETCHINC
 40
0.1
  9
$FILLETRAD
 40
0.0
  9
$AUNITS
 70
     0
  9
$AUPREC
 70
     2
  9
$MENU
  1
.
  9
$ELEVATION
 40
0.0
  9
$PELEVATION
 40
0.0
  9
$THICKNESS
 40
0.0
  9
$LIMCHECK
 70
     0
  9
$CHAMFERA
 40
0.0
  9
$CHAMFERB
 40
0.0
  9
$CHAMFERC
 40
0.0
  9
$CHAMFERD
 40
0.0
  9
$SKPOLY
 70
     0
  9
$TDCREATE
 40
2461027.496425834
  9
$TDUCREATE
 40
2461027.704759167
  9
$TDUPDATE
 40
2461027.496499734
  9
$TDUUPDATE
 40
2461027.704833067
  9
$TDINDWG
 40
0.0000000116
  9
$TDUSRTIMER
 40
0.0000000116
  9
$USRTIMER
 70
     1
  9
$ANGBASE
 50
0.0
  9
$ANGDIR
 70
     0
  9
$PDMODE
 70
     0
  9
$PDSIZE
 40
-1.0
  9
$PLINEWID
 40
0.0
  9
$SPLFRAME
 70
     0
  9
$SPLINETYPE
 70
     6
  9
$SPLINESEGS
 70
     8
  9
$HANDSEED
  5
255
  9
$SURFTAB1
 70
     6
  9
$SURFTAB2
 70
     6
  9
$SURFTYPE
 70
     6
  9
$SURFU
 70
     6
  9
$SURFV
 70
     6
  9
$UCSBASE
  2

  9
$UCSNAME
  2

  9
$UCSORG
 10
0.0
 20
0.0
 30
0.0
  9
$UCSXDIR
 10
1.0
 20
0.0
 30
0.0
  9
$UCSYDIR
 10
0.0
 20
1.0
 30
0.0
  9
$UCSORTHOREF
  2

  9
$UCSORTHOVIEW
 70
     0
  9
$UCSORGTOP
 10
0.0
 20
0.0
 30
0.0
  9
$UCSORGBOTTOM
 10
0.0
 20
0.0
 30
0.0
  9
$UCSORGLEFT
 10
0.0
 20
0.0
 30
0.0
  9
$UCSORGRIGHT
 10
0.0
 20
0.0
 30
0.0
  9
$UCSORGFRONT
 10
0.0
 20
0.0
 30
0.0
  9
$UCSORGBACK
 10
0.0
 20
0.0
 30
0.0
  9
$PUCSBASE
  2

  9
$PUCSNAME
  2

  9
$PUCSORG
 10
0.0
 20
0.0
 30
0.0
  9
$PUCSXDIR
 10
1.0
 20
0.0
 30
0.0
  9
$PUCSYDIR
 10
0.0
 20
1.0
 30
0.0
  9
$PUCSORTHOREF
  2

  9
$PUCSORTHOVIEW
 70
     0
  9
$PUCSORGTOP
 10
0.0
 20
0.0
 30
0.0
  9
$PUCSORGBOTTOM
 10
0.0
 20
0.0
 30
0.0
  9
$PUCSORGLEFT
 10
0.0
 20
0.0
 30
0.0
  9
$PUCSORGRIGHT
 10
0.0
 20
0.0
 30
0.0
  9
$PUCSORGFRONT
 10
0.0
 20
0.0
 30
0.0
  9
$PUCSORGBACK
 10
0.0
 20
0.0
 30
0.0
  9
$USERI1
 70
     0
  9
$USERI2
 70
     0
  9
$USERI3
 70
     0
  9
$USERI4
 70
     0
  9
$USERI5
 70
     0
  9
$USERR1
 40
0.0
  9
$USERR2
 40
0.0
  9
$USERR3
 40
0.0
  9
$USERR4
 40
0.0
  9
$USERR5
 40
0.0
  9
$WORLDVIEW
 70
     1
  9
$SHADEDGE
 70
     3
  9
$SHADEDIF
 70
    70
  9
$TILEMODE
 70
     1
  9
$MAXACTVP
 70
    64
  9
$PINSBASE
 10
0.0
 20
0.0
 30
0.0
  9
$PLIMCHECK
 70
     0
  9
$PEXTMIN
 10
1.0000000000E+20
 20
1.0000000000E+20
 30
1.0000000000E+20
  9
$PEXTMAX
 10
-1.0000000000E+20
 20
-1.0000000000E+20
 30
-1.0000000000E+20
  9
$PLIMMIN
 10
0.0
 20
0.0
  9
$PLIMMAX
 10
12.0
 20
9.0
  9
$UNITMODE
 70
     0
  9
$VISRETAIN
 70
     1
  9
$PLINEGEN
 70
     0
  9
$PSLTSCALE
 70
     1
  9
$TREEDEPTH
 70
  3020
  9
$CMLSTYLE
  2
Standard
  9
$CMLJUST
 70
     0
  9
$CMLSCALE
 40
1.0
  9
$PROXYGRAPHICS
 70
     1
  9
$MEASUREMENT
 70
     0
  9
$CELWEIGHT
370
    -1
  9
$ENDCAPS
280
     0
  9
$JOINSTYLE
280
     0
  9
$LWDISPLAY
290
     1
  9
$INSUNITS
 70
     1
  9
$HYPERLINKBASE
  1

  9
$STYLESHEET
  1

  9
$XEDIT
290
     1
  9
$CEPSNTYPE
380
     0
  9
$PSTYLEMODE
290
     1
  9
$FINGERPRINTGUID
  2
{031e0383-5474-4d3e-9d17-259e3fc38a80}
  9
$VERSIONGUID
  2
{FAEB1C32-E019-11D5-929B-00C0DF256EC4}
  9
$EXTNAMES
290
     1
  9
$PSVPSCALE
 40
0.0
  9
$OLESTARTUP
290
     0
  0
ENDSEC
  0
SECTION
  2
CLASSES
  0
CLASS
  1
ACDBDICTIONARYWDFLT
  2
AcDbDictionaryWithDefault
  3
ObjectDBX Classes
 90
        0
280
     0
281
     0
  0
CLASS
  1
VISUALSTYLE
  2
AcDbVisualStyle
  3
ObjectDBX Classes
 90
     4095
280
     0
281
     0
  0
CLASS
  1
MATERIAL
  2
AcDbMaterial
  3
ObjectDBX Classes
 90
     1153
280
     0
281
     0
  0
CLASS
  1
SCALE
  2
AcDbScale
  3
ObjectDBX Classes
 90
     1153
280
     0
281
     0
  0
CLASS
  1
TABLESTYLE
  2
AcDbTableStyle
  3
ObjectDBX Classes
 90
     4095
280
     0
281
     0
  0
CLASS
  1
MLEADERSTYLE
  2
AcDbMLeaderStyle
  3
ACDB_MLEADERSTYLE_CLASS
 90
     4095
280
     0
281
     0
  0
CLASS
  1
SUN
  2
AcDbSun
  3
SCENEOE
 90
     1153
280
     0
281
     0
  0
CLASS
  1
ACDBPLACEHOLDER
  2
AcDbPlaceHolder
  3
ObjectDBX Classes
 90
        0
280
     0
281
     0
  0
CLASS
  1
LAYOUT
  2
AcDbLayout
  3
ObjectDBX Classes
 90
        0
280
     0
281
     0
  0
ENDSEC
  0
SECTION
  2
TABLES
  0
TABLE
  2
VPORT
  5
8
330
0
100
AcDbSymbolTable
 70
     1
  0
VPORT
  5
29
330
8
100
AcDbSymbolTableRecord
100
AcDbViewportTableRecord
  2
*Active
 70
     0
 10
0.0
 20
0.0
 11
1.0
 21
1.0
 12
9.625
 22
10.0
 13
0.0
 23
0.0
 14
0.5
 24
0.5
 15
0.5
 25
0.5
 16
0.0
 26
0.0
 36
1.0
 17
0.0
 27
0.0
 37
0.0
 40
5.1
 41
4.0
 42
50.0
 43
0.0
 44
0.0
 50
0.0
 51
0.0
 71
     0
 72
   100
 73
     1
 74
     3
 75
     0
 76
     0
 77
     0
 78
     0
281
     0
 65
     1
110
0.0
120
0.0
130
0.0
111
1.0
121
0.0
131
0.0
112
0.0
122
1.0
132
0.0
 79
     0
146
0.0
  0
ENDTAB
  0
TABLE
  2
LTYPE
  5
5
330
0
100
AcDbSymbolTable
 70
     6
  0
LTYPE
  5
14
330
5
100
AcDbSymbolTableRecord
100
AcDbLinetypeTableRecord
  2
ByBlock
 70
     0
  3

 72
    65
 73
     0
 40
0.0
  0
LTYPE
  5
15
330
5
100
AcDbSymbolTableRecord
100
AcDbLinetypeTableRecord
  2
ByLayer
 70
     0
  3

 72
    65
 73
     0
 40
0.0
  0
LTYPE
  5
16
330
5
100
AcDbSymbolTableRecord
100
AcDbLinetypeTableRecord
  2
Continuous
 70
     0
  3
Solid line
 72
    65
 73
     0
 40
0.0
  0
LTYPE
  5
5E
330
5
100
AcDbSymbolTableRecord
100
AcDbLinetypeTableRecord
  2
HIDDEN
 70
     0
  3
Hidden __ __ __ __ __ __ __ __ __ __ __ __ __ __
 72
    65
 73
     2
 40
0.075
 49
0.05
 74
     0
 49
-0.025
 74
     0
  0
LTYPE
  5
5F
330
5
100
AcDbSymbolTableRecord
100
AcDbLinetypeTableRecord
  2
PHANTOM
 70
     0
  3
Phantom ______  __  __  ______  __  __  ______
 72
    65
 73
     6
 40
0.5
 49
0.25
 74
     0
 49
-0.05
 74
     0
 49
0.05
 74
     0
 49
-0.05
 74
     0
 49
0.05
 74
     0
 49
-0.05
 74
     0
  0
LTYPE
  5
60
330
5
100
AcDbSymbolTableRecord
100
AcDbLinetypeTableRecord
  2
CENTER
 70
     0
  3
Center ____ _ ____ _ ____ _ ____ _ ____ _ ____
 72
    65
 73
     4
 40
0.4
 49
0.25
 74
     0
 49
-0.05
 74
     0
 49
0.05
 74
     0
 49
-0.05
 74
     0
  0
LTYPE
  5
61
330
5
100
AcDbSymbolTableRecord
100
AcDbLinetypeTableRecord
  2
CENTERX2
 70
     0
  3
Center (2x) ________  __  ________  __  _____
 72
    65
 73
     4
 40
0.8
 49
0.5
 74
     0
 49
-0.1
 74
     0
 49
0.1
 74
     0
 49
-0.1
 74
     0
  0
LTYPE
  5
62
330
5
100
AcDbSymbolTableRecord
100
AcDbLinetypeTableRecord
  2
DOT2
 70
     0
  3
Dot (.5x) ........................................
 72
    65
 73
     2
 40
0.025
 49
0.0
 74
     0
 49
-0.025
 74
     0
  0
ENDTAB
  0
TABLE
  2
LAYER
  5
2
330
0
100
AcDbSymbolTable
 70
     1
  0
LAYER
  5
10
330
2
100
AcDbSymbolTableRecord
100
AcDbLayerTableRecord
  2
0
 70
     0
 62
     7
  6
Continuous
370
    -3
390
F
  0
ENDTAB
  0
TABLE
  2
STYLE
  5
3
330
0
100
AcDbSymbolTable
 70
     2
  0
STYLE
  5
11
330
3
100
AcDbSymbolTableRecord
100
AcDbTextStyleTableRecord
  2
Standard
 70
     0
 40
0.0
 41
1.0
 50
0.0
 71
     0
 42
0.125
  3
txt
  4

  0
STYLE
  5
251
330
3
100
AcDbSymbolTableRecord
100
AcDbTextStyleTableRecord
  2
SLDTEXTSTYLE0
 70
     0
 40
0.0
 41
0.7
 50
0.0
 71
     0
 42
0.125
  3
TXT
  4

  0
ENDTAB
  0
TABLE
  2
VIEW
  5
6
330
0
100
AcDbSymbolTable
 70
     0
  0
ENDTAB
  0
TABLE
  2
UCS
  5
7
330
0
100
AcDbSymbolTable
 70
     0
  0
ENDTAB
  0
TABLE
  2
APPID
  5
9
330
0
100
AcDbSymbolTable
 70
     1
  0
APPID
  5
12
330
9
100
AcDbSymbolTableRecord
100
AcDbRegAppTableRecord
  2
ACAD
 70
     0
  0
ENDTAB
  0
TABLE
  2
DIMSTYLE
  5
A
330
0
100
AcDbSymbolTable
 70
     1
100
AcDbDimStyleTable
  0
DIMSTYLE
105
27
330
A
100
AcDbSymbolTableRecord
100
AcDbDimStyleTableRecord
  2
Standard
 70
     0
178
     0
340
11
  0
ENDTAB
  0
TABLE
  2
BLOCK_RECORD
  5
1
330
0
100
AcDbSymbolTable
 70
     1
  0
BLOCK_RECORD
  5
1F
330
1
100
AcDbSymbolTableRecord
100
AcDbBlockTableRecord
  2
*Model_Space
340
22
  0
BLOCK_RECORD
  5
1B
330
1
100
AcDbSymbolTableRecord
100
AcDbBlockTableRecord
  2
*Paper_Space
340
1E
  0
BLOCK_RECORD
  5
23
330
1
100
AcDbSymbolTableRecord
100
AcDbBlockTableRecord
  2
*Paper_Space0
340
26
  0
ENDTAB
  0
ENDSEC
  0
SECTION
  2
BLOCKS
  0
BLOCK
  5
20
330
1F
100
AcDbEntity
  8
0
100
AcDbBlockBegin
  2
*Model_Space
 70
     0
 10
0.0
 20
0.0
 30
0.0
  3
*Model_Space
  1

  0
ENDBLK
  5
21
330
1F
100
AcDbEntity
  8
0
100
AcDbBlockEnd
  0
BLOCK
  5
1C
330
1B
100
AcDbEntity
 67
     1
  8
0
100
AcDbBlockBegin
  2
*Paper_Space
 70
     0
 10
0.0
 20
0.0
 30
0.0
  3
*Paper_Space
  1

  0
ENDBLK
  5
1D
330
1B
100
AcDbEntity
 67
     1
  8
0
100
AcDbBlockEnd
  0
BLOCK
  5
24
330
23
100
AcDbEntity
  8
0
100
AcDbBlockBegin
  2
*Paper_Space0
 70
     0
 10
0.0
 20
0.0
 30
0.0
  3
*Paper_Space0
  1

  0
ENDBLK
  5
25
330
23
100
AcDbEntity
  8
0
100
AcDbBlockEnd
  0
ENDSEC
  0
SECTION
  2
ENTITIES
  0
ARC
  5
63
330
1F
100
AcDbEntity
  8
0
  6
Continuous
 62
     7
370
    25
100
AcDbCircle
 10
5.0986029527
 20
10.4135636731
 30
0.0
 40
0.1278072596937185
100
AcDbArc
 50
8.9423061231
 51
45.0000170085
  0
ARC
  5
64
330
1F
100
AcDbEntity
  8
0
  6
Continuous
 62
     7
370
    25
100
AcDbCircle
 10
5.1359208253
 20
10.4508815679
 30
0.0
 40
0.0750318024725781
100
AcDbArc
 50
45.0000170085
 51
78.8882076921
  0
ARC
  5
65
330
1F
100
AcDbEntity
  8
0
  6
Continuous
 62
     7
370
    25
100
AcDbCircle
 10
4.9256602429
 20
9.3803407446
 30
0.0
 40
1.166025462784114
100
AcDbArc
 50
78.8882076921
 51
83.4661141616
  0
ARC
  5
66
330
1F
100
AcDbEntity
  8
0
  6
Continuous
 62
     7
370
    25
100
AcDbCircle
 10
4.8732074832
 20
8.9223770107
 30
0.0
 40
1.626983241317538
100
AcDbArc
 50
83.4661141616
 51
87.8427708012
  0
ARC
  5
67
330
1F
100
AcDbEntity
  8
0
  6
Continuous
 62
     7
370
    25
100
AcDbCircle
 10
4.7764957219
 20
6.3549367253
 30
0.0
 40
4.196244377079639
100
AcDbArc
 50
87.8427708012
 51
89.999964986
  0
ARC
  5
68
330
1F
100
AcDbEntity
  8
0
  6
Continuous
 62
     7
370
    25
100
AcDbCircle
 10
4.7764917089
 20
-0.2119307709
 30
0.0
 40
10.7631118732225
100
AcDbArc
 50
89.999964986
 51
91.2100422789
  0
ARC
  5
69
330
1F
100
AcDbEntity
  8
0
  6
Continuous
 62
     7
370
    25
100
AcDbCircle
 10
4.5589951942
 20
10.0850479306
 30
0.0
 40
0.4638364078753703
100
AcDbArc
 50
91.2100422789
 51
103.0633382648
  0
ARC
  5
6A
330
1F
100
AcDbEntity
  8
0
  6
Continuous
 62
     7
370
    25
100
AcDbCircle
 10
4.4856002466
 20
10.4013606459
 30
0.0
 40
0.1391202976685078
100
AcDbArc
 50
103.0633382648
 51
129.9242898672
  0
ARC
  5
6B
330
1F
100
AcDbEntity
  8
0
  6
Continuous
 62
     7
370
    25
100
AcDbCircle
 10
4.5629230302
 20
10.3089632622
 30
0.0
 40
0.2596030324355658
100
AcDbArc
 50
129.9242898672
 51
146.7661486945
  0
ARC
  5
6C
330
1F
100
AcDbEntity
  8
0
  6
Continuous
 62
     7
370
    25
100
AcDbCircle
 10
4.7581675492
 20
10.1810340153
 30
0.0
 40
0.4930260698786876
100
AcDbArc
 50
146.7661486945
 51
161.4414552693
  0
ARC
  5
6D
330
1F
100
AcDbEntity
  8
0
  6
Continuous
 62
     7
370
    25
100
AcDbCircle
 10
7.1020328136
 20
9.3941236739
 30
0.0
 40
2.965460550947893
100
AcDbArc
 50
161.4414552693
 51
165.3347311764
  0
ARC
  5
6E
330
1F
100
AcDbEntity
  8
0
  6
Continuous
 62
     7
370
    25
100
AcDbCircle
 10
7.0332965903
 20
9.4121117578
 30
0.0
 40
2.894409586389897
100
AcDbArc
 50
165.3347311764
 51
169.4173684701
  0
ARC
  5
6F
330
1F
100
AcDbEntity
  8
0
  6
Continuous
 62
     7
370
    25
100
AcDbCircle
 10
5.0138739443
 20
9.789402868
 30
0.0
 40
0.8400443790788883
100
AcDbArc
 50
169.4173684701
 51
179.6718100321
  0
ARC
  5
70
330
1F
100
AcDbEntity
  8
0
  6
Continuous
 62
     7
370
    25
100
AcDbCircle
 10
4.3837396972
 20
9.7930123136
 30
0.0
 40
0.2098997945623078
100
AcDbArc
 50
179.6718100321
 51
211.5161340054
  0
ARC
  5
71
330
1F
100
AcDbEntity
  8
0
  6
Continuous
 62
     7
370
    25
100
AcDbCircle
 10
4.3644048542
 20
9.7811564162
 30
0.0
 40
0.1872194405536497
100
AcDbArc
 50
211.5161340054
 51
246.2076785251
  0
ARC
  5
72
330
1F
100
AcDbEntity
  8
0
  6
Continuous
 62
     7
370
    25
100
AcDbCircle
 10
4.4603138218
 20
9.9986901071
 30
0.0
 40
0.4249576090350206
100
AcDbArc
 50
246.2076785251
 51
267.0664915562
  0
ARC
  5
73
330
1F
100
AcDbEntity
  8
0
  6
Continuous
 62
     7
370
    25
100
AcDbCircle
 10
4.5410434505
 20
11.5740817211
 30
0.0
 40
2.002416328114381
100
AcDbArc
 50
267.0664915562
 51
273.6733889786
  0
ARC
  5
74
330
1F
100
AcDbEntity
  8
0
  6
Continuous
 62
     7
370
    25
100
AcDbCircle
 10
4.5465599658
 20
11.4881556573
 30
0.0
 40
1.916313364291129
100
AcDbArc
 50
273.6733889786
 51
280.5476835273
  0
ARC
  5
75
330
1F
100
AcDbEntity
  8
0
  6
Continuous
 62
     7
370
    25
100
AcDbCircle
 10
4.8415121746
 20
9.904094387
 30
0.0
 40
0.305026017577094
100
AcDbArc
 50
280.5476835273
 51
307.2872221365
  0
ARC
  5
76
330
1F
100
AcDbEntity
  8
0
  6
Continuous
 62
     7
370
    25
100
AcDbCircle
 10
4.8629602682
 20
9.8759267103
 30
0.0
 40
0.2696220809641733
100
AcDbArc
 50
307.2872221365
 51
336.3259892302
  0
ARC
  5
77
330
1F
100
AcDbEntity
  8
0
  6
Continuous
 62
     7
370
    25
100
AcDbCircle
 10
3.8678575667
 20
10.3122080099
 30
0.0
 40
1.356162811435391
100
AcDbArc
 50
336.3259892302
 51
345.0971926815
  0
ARC
  5
78
330
1F
100
AcDbEntity
  8
0
  6
Continuous
 62
     7
370
    25
100
AcDbCircle
 10
3.2104925173
 20
10.487153815
 30
0.0
 40
2.036408974853805
100
AcDbArc
 50
345.0971926815
 51
350.4031328531
  0
ARC
  5
79
330
1F
100
AcDbEntity
  8
0
  6
Continuous
 62
     7
370
    25
100
AcDbCircle
 10
4.1444985064
 20
10.3292310573
 30
0.0
 40
1.08914618921514
100
AcDbArc
 50
350.4031328531
 51
358.8792887515
  0
ARC
  5
7A
330
1F
100
AcDbEntity
  8
0
  6
Continuous
 62
     7
370
    25
100
AcDbCircle
 10
4.51641727
 20
10.3219553607
 30
0.0
 40
0.717156266627843
100
AcDbArc
 50
358.8792887515
 51
8.9423061231
  0
ARC
  5
7B
330
1F
100
AcDbEntity
  8
0
  6
Continuous
 62
     7
370
    25
100
AcDbCircle
 10
7.168272847
 20
9.7340884345
 30
0.0
 40
0.1581029717709043
100
AcDbArc
 50
34.6394956453
 51
69.1831996374
  0
ARC
  5
7C
330
1F
100
AcDbEntity
  8
0
  6
Continuous
 62
     7
370
    25
100
AcDbCircle
 10
7.127514645
 20
9.6268864121
 30
0.0
 40
0.2727917010605001
100
AcDbArc
 50
69.1831996374
 51
82.2169368146
  0
ARC
  5
7D
330
1F
100
AcDbEntity
  8
0
  6
Continuous
 62
     7
370
    25
100
AcDbCircle
 10
6.8329111778
 20
7.4714903169
 30
0.0
 40
2.448228100958019
100
AcDbArc
 50
82.2169368146
 51
84.8121620449
  0
ARC
  5
7E
330
1F
100
AcDbEntity
  8
0
  6
Continuous
 62
     7
370
    25
100
AcDbCircle
 10
6.8064027603
 20
7.179525231
 30
0.0
 40
2.741394107862245
100
AcDbArc
 50
84.8121620449
 51
87.5269321195
  0
ARC
  5
7F
330
1F
100
AcDbEntity
  8
0
  6
Continuous
 62
     7
370
    25
100
AcDbCircle
 10
6.7906277034
 20
6.8142773484
 30
0.0
 40
3.106982494086317
100
AcDbArc
 50
87.5269321195
 51
90.0
  0
LINE
  5
80
330
1F
100
AcDbEntity
  8
0
  6
Continuous
 62
     7
370
    25
100
AcDbLine
 10
6.4603940157
 20
9.9212598425
 30
0.0
 11
6.7906277034
 21
9.9212598425
 31
0.0
  0
LINE
  5
81
330
1F
100
AcDbEntity
  8
0
  6
Continuous
 62
     7
370
    25
100
AcDbLine
 10
6.4206494641
 20
9.7773169697
 30
0.0
 11
6.4603940157
 21
9.9212598425
 31
0.0
  0
ARC
  5
82
330
1F
100
AcDbEntity
  8
0
  6
Continuous
 62
     7
370
    25
100
AcDbCircle
 10
7.2255511028
 20
9.5550728662
 30
0.0
 40
0.8350204125982656
100
AcDbArc
 50
164.5644593222
 51
168.6247339747
  0
ARC
  5
83
330
1F
100
AcDbEntity
  8
0
  6
Continuous
 62
     7
370
    25
100
AcDbCircle
 10
6.9975027479
 20
9.6009530409
 30
0.0
 40
0.6024026089179206
100
AcDbArc
 50
168.6247339747
 51
173.8102871703
  0
ARC
  5
84
330
1F
100
AcDbEntity
  8
0
  6
Continuous
 62
     7
370
    25
100
AcDbCircle
 10
6.9185528202
 20
9.6095154056
 30
0.0
 40
0.5229897310129935
100
AcDbArc
 50
173.8102871703
 51
178.7127322254
  0
ARC
  5
85
330
1F
100
AcDbEntity
  8
0
  6
Continuous
 62
     7
370
    25
100
AcDbCircle
 10
6.4341991101
 20
9.6203992413
 30
0.0
 40
0.0385137518412717
100
AcDbArc
 50
178.7127322254
 51
211.7178166258
  0
ARC
  5
86
330
1F
100
AcDbEntity
  8
0
  6
Continuous
 62
     7
370
    25
100
AcDbCircle
 10
6.4491905023
 20
9.629664555
 30
0.0
 40
0.0561372553888971
100
AcDbArc
 50
211.7178166258
 51
269.1536248672
  0
ARC
  5
87
330
1F
100
AcDbEntity
  8
0
  6
Continuous
 62
     7
370
    25
100
AcDbCircle
 10
6.7179293447
 20
27.8207489407
 30
0.0
 40
18.24920658674996
100
AcDbArc
 50
269.1536248672
 51
270.1274044047
  0
ARC
  5
88
330
1F
100
AcDbEntity
  8
0
  6
Continuous
 62
     7
370
    25
100
AcDbCircle
 10
6.7418999821
 20
17.0407912887
 30
0.0
 40
7.469222283852879
100
AcDbArc
 50
270.1274044047
 51
272.3790854326
  0
ARC
  5
89
330
1F
100
AcDbEntity
  8
0
  6
Continuous
 62
     7
370
    25
100
AcDbCircle
 10
7.0237057877
 20
10.257931588
 30
0.0
 40
0.6805110489064049
100
AcDbArc
 50
272.3790854326
 51
285.4266125319
  0
ARC
  5
8A
330
1F
100
AcDbEntity
  8
0
  6
Continuous
 62
     7
370
    25
100
AcDbCircle
 10
7.1594307789
 20
9.7660775553
 30
0.0
 40
0.1702741796606719
100
AcDbArc
 50
285.4266125319
 51
318.2795075309
  0
ARC
  5
8B
330
1F
100
AcDbEntity
  8
0
  6
Continuous
 62
     7
370
    25
100
AcDbCircle
 10
7.1807384374
 20
9.7470794491
 30
0.0
 40
0.1417269494265106
100
AcDbArc
 50
318.2795075309
 51
355.9669407873
  0
ARC
  5
8C
330
1F
100
AcDbEntity
  8
0
  6
Continuous
 62
     7
370
    25
100
AcDbCircle
 10
7.1864897065
 20
9.7466739464
 30
0.0
 40
0.1359614027207136
100
AcDbArc
 50
355.9669407873
 51
34.6394956453
  0
ARC
  5
8D
330
1F
100
AcDbEntity
  8
0
  6
Continuous
 62
     7
370
    25
100
AcDbCircle
 10
7.2560776962
 20
10.3315366134
 30
0.0
 40
0.2360262735206961
100
AcDbArc
 50
50.3219716832
 51
69.1826236375
  0
ARC
  5
8E
330
1F
100
AcDbEntity
  8
0
  6
Continuous
 62
     7
370
    25
100
AcDbCircle
 10
7.2448481451
 20
10.3020015972
 30
0.0
 40
0.2676240582451188
100
AcDbArc
 50
69.1826236375
 51
82.0544256358
  0
ARC
  5
8F
330
1F
100
AcDbEntity
  8
0
  6
Continuous
 62
     7
370
    25
100
AcDbCircle
 10
6.9652884805
 20
8.2990276913
 30
0.0
 40
2.290013257635873
100
AcDbArc
 50
82.0544256358
 51
84.7053988657
  0
ARC
  5
90
330
1F
100
AcDbEntity
  8
0
  6
Continuous
 62
     7
370
    25
100
AcDbCircle
 10
6.9390833627
 20
8.0162554039
 30
0.0
 40
2.573997191532759
100
AcDbArc
 50
84.7053988657
 51
87.463599484
  0
ARC
  5
91
330
1F
100
AcDbEntity
  8
0
  6
Continuous
 62
     7
370
    25
100
AcDbCircle
 10
6.9255958203
 20
7.7117788916
 30
0.0
 40
2.87877228951073
100
AcDbArc
 50
87.463599484
 51
89.9999833825
  0
ARC
  5
92
330
1F
100
AcDbEntity
  8
0
  6
Continuous
 62
     7
370
    25
100
AcDbCircle
 10
6.9255942249
 20
2.2110460426
 30
0.0
 40
8.379505138487477
100
AcDbArc
 50
89.9999833825
 51
91.3445873152
  0
ARC
  5
93
330
1F
100
AcDbEntity
  8
0
  6
Continuous
 62
     7
370
    25
100
AcDbCircle
 10
6.7362178815
 20
10.2793010059
 30
0.0
 40
0.3090279808813345
100
AcDbArc
 50
91.3445873152
 51
106.0180963689
  0
ARC
  5
94
330
1F
100
AcDbEntity
  8
0
  6
Continuous
 62
     7
370
    25
100
AcDbCircle
 10
6.6751352403
 20
10.4920678424
 30
0.0
 40
0.0876667019843915
100
AcDbArc
 50
106.0180963689
 51
140.9982502379
  0
ARC
  5
95
330
1F
100
AcDbEntity
  8
0
  6
Continuous
 62
     7
370
    25
100
AcDbCircle
 10
6.7706156088
 20
10.4147445364
 30
0.0
 40
0.2105300180477297
100
AcDbArc
 50
140.9982502379
 51
159.183308031
  0
ARC
  5
96
330
1F
100
AcDbEntity
  8
0
  6
Continuous
 62
     7
370
    25
100
AcDbCircle
 10
7.2879481421
 20
10.2180558608
 30
0.0
 40
0.7639912949568496
100
AcDbArc
 50
159.183308031
 51
169.2384128415
  0
ARC
  5
97
330
1F
100
AcDbEntity
  8
0
  6
Continuous
 62
     7
370
    25
100
AcDbCircle
 10
6.5903049693
 20
10.350653734
 30
0.0
 40
0.0538587773817939
100
AcDbArc
 50
169.2384128415
 51
238.7412249664
  0
ARC
  5
98
330
1F
100
AcDbEntity
  8
0
  6
Continuous
 62
     7
370
    25
100
AcDbCircle
 10
6.6520681423
 20
10.452401154
 30
0.0
 40
0.1728849384191067
100
AcDbArc
 50
238.7412249664
 51
268.3598060012
  0
ARC
  5
99
330
1F
100
AcDbEntity
  8
0
  6
Continuous
 62
     7
370
    25
100
AcDbCircle
 10
6.9263145299
 20
20.0298462979
 30
0.0
 40
9.754255746687349
100
AcDbArc
 50
268.3598060012
 51
270.00016492
  0
ARC
  5
9A
330
1F
100
AcDbEntity
  8
0
  6
Continuous
 62
     7
370
    25
100
AcDbCircle
 10
6.9263223916
 20
17.2985917757
 30
0.0
 40
7.023001224549799
100
AcDbArc
 50
270.00016492
 51
271.6196083182
  0
ARC
  5
9B
330
1F
100
AcDbEntity
  8
0
  6
Continuous
 62
     7
370
    25
100
AcDbCircle
 10
7.0922401494
 20
11.4305957927
 30
0.0
 40
1.152660045457835
100
AcDbArc
 50
271.6196083182
 51
277.7810504094
  0
ARC
  5
9C
330
1F
100
AcDbEntity
  8
0
  6
Continuous
 62
     7
370
    25
100
AcDbCircle
 10
7.1844036017
 20
10.7561272592
 30
0.0
 40
0.4719237494729929
100
AcDbArc
 50
277.7810504094
 51
287.8641231708
  0
ARC
  5
9D
330
1F
100
AcDbEntity
  8
0
  6
Continuous
 62
     7
370
    25
100
AcDbCircle
 10
7.2909311051
 20
10.4256042862
 30
0.0
 40
0.1246579367645721
100
AcDbArc
 50
287.8641231708
 51
314.9998887049
  0
ARC
  5
9E
330
1F
100
AcDbEntity
  8
0
  6
Continuous
 62
     7
370
    25
100
AcDbCircle
 10
7.1856578536
 20
10.5308779466
 30
0.0
 40
0.2735370859716085
100
AcDbArc
 50
314.9998887049
 51
332.0286999349
  0
ARC
  5
9F
330
1F
100
AcDbEntity
  8
0
  6
Continuous
 62
     7
370
    25
100
AcDbCircle
 10
7.3458243288
 20
10.4458188044
 30
0.0
 40
0.0921856110943191
100
AcDbArc
 50
332.0286999349
 51
10.326928364
  0
ARC
  5
A0
330
1F
100
AcDbEntity
  8
0
  6
Continuous
 62
     7
370
    25
100
AcDbCircle
 10
7.3517833649
 20
10.4469046382
 30
0.0
 40
0.0861284544469648
100
AcDbArc
 50
10.326928364
 51
50.3219716832
  0
ARC
  5
A1
330
1F
100
AcDbEntity
  8
0
  6
Continuous
 62
     7
370
    25
100
AcDbCircle
 10
9.5143925128
 20
10.4104654441
 30
0.0
 40
0.1228743730268158
100
AcDbArc
 50
15.8143276673
 51
39.6900840291
  0
ARC
  5
A2
330
1F
100
AcDbEntity
  8
0
  6
Continuous
 62
     7
370
    25
100
AcDbCircle
 10
9.5302491455
 20
10.4236252391
 30
0.0
 40
0.102268233044509
100
AcDbArc
 50
39.6900840293
 51
70.0200822618
  0
ARC
  5
A3
330
1F
100
AcDbEntity
  8
0
  6
Continuous
 62
     7
370
    25
100
AcDbCircle
 10
9.4366457018
 20
10.1661711559
 30
0.0
 40
0.3762102152763727
100
AcDbArc
 50
70.020082262
 51
81.5304150946
  0
ARC
  5
A4
330
1F
100
AcDbEntity
  8
0
  6
Continuous
 62
     7
370
    25
100
AcDbCircle
 10
9.349422418
 20
9.5804196701
 30
0.0
 40
0.9684202324466891
100
AcDbArc
 50
81.5304150947
 51
88.3072520622
  0
ARC
  5
A5
330
1F
100
AcDbEntity
  8
0
  6
Continuous
 62
     7
370
    25
100
AcDbCircle
 10
9.1909450573
 20
4.2178717605
 30
0.0
 40
6.333309341819915
100
AcDbArc
 50
88.3072520622
 51
90.0000480528
  0
ARC
  5
A6
330
1F
100
AcDbEntity
  8
0
  6
Continuous
 62
     7
370
    25
100
AcDbCircle
 10
9.1909481225
 20
0.5630320391
 30
0.0
 40
9.988149063250708
100
AcDbArc
 50
90.0000480528
 51
91.293026562
  0
ARC
  5
A7
330
1F
100
AcDbEntity
  8
0
  6
Continuous
 62
     7
370
    25
100
AcDbCircle
 10
8.976895618
 20
10.0463816807
 30
0.0
 40
0.502383996592798
100
AcDbArc
 50
91.293026562
 51
102.6674216206
  0
ARC
  5
A8
330
1F
100
AcDbEntity
  8
0
  6
Continuous
 62
     7
370
    25
100
AcDbCircle
 10
8.9031100213
 20
10.3746644318
 30
0.0
 40
0.165911295034982
100
AcDbArc
 50
102.6674216206
 51
126.6899215749
  0
ARC
  5
A9
330
1F
100
AcDbEntity
  8
0
  6
Continuous
 62
     7
370
    25
100
AcDbCircle
 10
8.9879719377
 20
10.2607716317
 30
0.0
 40
0.3079433856464927
100
AcDbArc
 50
126.6899215749
 51
141.8116072634
  0
ARC
  5
AA
330
1F
100
AcDbEntity
  8
0
  6
Continuous
 62
     7
370
    25
100
AcDbCircle
 10
9.0707956399
 20
10.1956229696
 30
0.0
 40
0.4133194446551853
100
AcDbArc
 50
141.8116072634
 51
159.3134460919
  0
ARC
  5
AB
330
1F
100
AcDbEntity
  8
0
  6
Continuous
 62
     7
370
    25
100
AcDbCircle
 10
10.1166205415
 20
9.8007191223
 30
0.0
 40
1.53121871268318
100
AcDbArc
 50
159.3134460919
 51
165.9212332458
  0
ARC
  5
AC
330
1F
100
AcDbEntity
  8
0
  6
Continuous
 62
     7
370
    25
100
AcDbCircle
 10
10.3059340246
 20
9.7532414393
 30
0.0
 40
1.726394851816843
100
AcDbArc
 50
165.9212332458
 51
172.3580005736
  0
ARC
  5
AD
330
1F
100
AcDbEntity
  8
0
  6
Continuous
 62
     7
370
    25
100
AcDbCircle
 10
9.9556808227
 20
9.8002365363
 30
0.0
 40
1.37300293820147
100
AcDbArc
 50
172.3580005736
 51
179.9999596892
  0
ARC
  5
AE
330
1F
100
AcDbEntity
  8
0
  6
Continuous
 62
     7
370
    25
100
AcDbCircle
 10
8.9092170558
 20
9.8002372725
 30
0.0
 40
0.3265391712953702
100
AcDbArc
 50
179.9999596892
 51
200.7808645848
  0
ARC
  5
AF
330
1F
100
AcDbEntity
  8
0
  6
Continuous
 62
     7
370
    25
100
AcDbCircle
 10
8.7327027694
 20
9.7332532346
 30
0.0
 40
0.1377425753399312
100
AcDbArc
 50
200.7808645848
 51
240.362691662
  0
ARC
  5
B0
330
1F
100
AcDbEntity
  8
0
  6
Continuous
 62
     7
370
    25
100
AcDbCircle
 10
8.8082509655
 20
9.8660407109
 30
0.0
 40
0.2905170621144016
100
AcDbArc
 50
240.362691662
 51
264.6658452272
  0
ARC
  5
B1
330
1F
100
AcDbEntity
  8
0
  6
Continuous
 62
     7
370
    25
100
AcDbCircle
 10
8.9927501901
 20
11.8420741735
 30
0.0
 40
2.275145039607194
100
AcDbArc
 50
264.6658452272
 51
270.0
  0
ARC
  5
B2
330
1F
100
AcDbEntity
  8
0
  6
Continuous
 62
     7
370
    25
100
AcDbCircle
 10
8.9927501901
 20
11.0347751275
 30
0.0
 40
1.467845993658787
100
AcDbArc
 50
270.0
 51
280.8000685453
  0
ARC
  5
B3
330
1F
100
AcDbEntity
  8
0
  6
Continuous
 62
     7
370
    25
100
AcDbCircle
 10
9.2054376289
 20
9.9198357746
 30
0.0
 40
0.3328016300557621
100
AcDbArc
 50
280.8000685453
 51
313.293717319
  0
ARC
  5
B4
330
1F
100
AcDbEntity
  8
0
  6
Continuous
 62
     7
370
    25
100
AcDbCircle
 10
9.1639992855
 20
9.9638187383
 30
0.0
 40
0.3932304096309932
100
AcDbArc
 50
313.293717319
 51
342.3856942093
  0
ARC
  5
B5
330
1F
100
AcDbEntity
  8
0
  6
Continuous
 62
     7
370
    25
100
AcDbCircle
 10
7.3491904287
 20
10.5400087823
 30
0.0
 40
2.297311855784785
100
AcDbArc
 50
342.3856942094
 51
350.2694707206
  0
ARC
  5
B6
330
1F
100
AcDbEntity
  8
0
  6
Continuous
 62
     7
370
    25
100
AcDbCircle
 10
5.394980969
 20
10.8751197184
 30
0.0
 40
4.280045814641004
100
AcDbArc
 50
350.2694707206
 51
352.2440634244
  0
ARC
  5
B7
330
1F
100
AcDbEntity
  8
0
  6
Continuous
 62
     7
370
    25
100
AcDbCircle
 10
9.0517371281
 20
10.3770711369
 30
0.0
 40
0.5895285071744512
100
AcDbArc
 50
352.2440634244
 51
0.7657363331
  0
ARC
  5
B8
330
1F
100
AcDbEntity
  8
0
  6
Continuous
 62
     7
370
    25
100
AcDbCircle
 10
9.4135658051
 20
10.3819071277
 30
0.0
 40
0.2276675141467625
100
AcDbArc
 50
0.7657363331
 51
15.8143276673
  0
LINE
  5
B9
330
1F
100
AcDbEntity
  8
0
  6
Continuous
 62
     7
370
    25
100
AcDbLine
 10
16.5787023558
 20
10.1041611568
 30
0.0
 11
16.5165264897
 21
9.7800269049
 31
0.0
  0
LINE
  5
BA
330
1F
100
AcDbEntity
  8
0
  6
Continuous
 62
     7
370
    25
100
AcDbLine
 10
16.7408941275
 20
10.9449221017
 30
0.0
 11
16.5787023558
 21
10.1041611568
 31
0.0
  0
LINE
  5
BB
330
1F
100
AcDbEntity
  8
0
  6
Continuous
 62
     7
370
    25
100
AcDbLine
 10
17.0314573769
 20
10.9449221017
 30
0.0
 11
16.7408941275
 21
10.9449221017
 31
0.0
  0
ARC
  5
BC
330
1F
100
AcDbEntity
  8
0
  6
Continuous
 62
     7
370
    25
100
AcDbCircle
 10
17.0314573769
 20
7.2692137967
 30
0.0
 40
3.675708305008132
100
AcDbArc
 50
86.6310077807
 51
90.0
  0
ARC
  5
BD
330
1F
100
AcDbEntity
  8
0
  6
Continuous
 62
     7
370
    25
100
AcDbCircle
 10
17.2431718665
 20
10.8656493833
 30
0.0
 40
0.0730465177194759
100
AcDbArc
 50
30.4569745117
 51
86.6310077807
  0
ARC
  5
BE
330
1F
100
AcDbEntity
  8
0
  6
Continuous
 62
     7
370
    25
100
AcDbCircle
 10
17.2118614319
 20
10.8472377841
 30
0.0
 40
0.1093691044244142
100
AcDbArc
 50
349.2984301255
 51
30.4569745117
  0
ARC
  5
BF
330
1F
100
AcDbEntity
  8
0
  6
Continuous
 62
     7
370
    25
100
AcDbCircle
 10
8.0198266049
 20
12.5843516459
 30
0.0
 40
9.464104206422789
100
AcDbArc
 50
347.5947428192
 51
349.2984301255
  0
ARC
  5
C0
330
1F
100
AcDbEntity
  8
0
  6
Continuous
 62
     7
370
    25
100
AcDbCircle
 10
29.765063612
 20
7.8012594863
 30
0.0
 40
12.80096491765525
100
AcDbArc
 50
167.5947428192
 51
168.5513687311
  0
ARC
  5
C1
330
1F
100
AcDbEntity
  8
0
  6
Continuous
 62
     7
370
    25
100
AcDbCircle
 10
17.7215137059
 20
10.240304822
 30
0.0
 40
0.5129204641643923
100
AcDbArc
 50
168.5513687311
 51
178.4077209714
  0
ARC
  5
C2
330
1F
100
AcDbEntity
  8
0
  6
Continuous
 62
     7
370
    25
100
AcDbCircle
 10
17.2766673773
 20
10.2526705126
 30
0.0
 40
0.0679023001005444
100
AcDbArc
 50
178.4077209714
 51
214.9707858923
  0
ARC
  5
C3
330
1F
100
AcDbEntity
  8
0
  6
Continuous
 62
     7
370
    25
100
AcDbCircle
 10
17.252934728
 20
10.2360707601
 30
0.0
 40
0.0389404212528365
100
AcDbArc
 50
214.9707858923
 51
270.2799084879
  0
ARC
  5
C4
330
1F
100
AcDbEntity
  8
0
  6
Continuous
 62
     7
370
    25
100
AcDbCircle
 10
17.2528748238
 20
10.2483327423
 30
0.0
 40
0.0512025498076374
100
AcDbArc
 50
270.2799084879
 51
308.590500647
  0
ARC
  5
C5
330
1F
100
AcDbEntity
  8
0
  6
Continuous
 62
     7
370
    25
100
AcDbCircle
 10
11.3761394026
 20
17.6124958344
 30
0.0
 40
9.472822222515646
100
AcDbArc
 50
308.590500647
 51
309.5385768616
  0
ARC
  5
C6
330
1F
100
AcDbEntity
  8
0
  6
Continuous
 62
     7
370
    25
100
AcDbCircle
 10
13.9318261478
 20
14.5164493855
 30
0.0
 40
5.458219084804501
100
AcDbArc
 50
309.5385768616
 51
311.4906377207
  0
ARC
  5
C7
330
1F
100
AcDbEntity
  8
0
  6
Continuous
 62
     7
370
    25
100
AcDbCircle
 10
11.276082001
 20
17.5192106309
 30
0.0
 40
9.466903665853096
100
AcDbArc
 50
311.4906377207
 51
312.7829197622
  0
LINE
  5
C8
330
1F
100
AcDbEntity
  8
0
  6
Continuous
 62
     7
370
    25
100
AcDbLine
 10
18.1101020015
 20
10.9449221017
 30
0.0
 11
17.7062163976
 21
10.5711435141
 31
0.0
  0
LINE
  5
C9
330
1F
100
AcDbEntity
  8
0
  6
Continuous
 62
     7
370
    25
100
AcDbLine
 10
18.640920033
 20
10.9413113143
 30
0.0
 11
18.1101020015
 21
10.9449221017
 31
0.0
  0
LINE
  5
CA
330
1F
100
AcDbEntity
  8
0
  6
Continuous
 62
     7
370
    25
100
AcDbLine
 10
18.211616368
 20
10.5357946089
 30
0.0
 11
18.640920033
 21
10.9413113143
 31
0.0
  0
ARC
  5
CB
330
1F
100
AcDbEntity
  8
0
  6
Continuous
 62
     7
370
    25
100
AcDbCircle
 10
26.8430644977
 20
1.3980395754
 30
0.0
 40
12.56982354165291
100
AcDbArc
 50
133.3678839389
 51
134.64600078
  0
ARC
  5
CC
330
1F
100
AcDbEntity
  8
0
  6
Continuous
 62
     7
370
    25
100
AcDbCircle
 10
19.5688261813
 20
8.762724929
 30
0.0
 40
2.218343771072606
100
AcDbArc
 50
134.64600078
 51
139.2599431961
  0
ARC
  5
CD
330
1F
100
AcDbEntity
  8
0
  6
Continuous
 62
     7
370
    25
100
AcDbCircle
 10
18.7682696188
 20
9.4522865532
 30
0.0
 40
1.161752060188548
100
AcDbArc
 50
139.2599431961
 51
145.0132147772
  0
ARC
  5
CE
330
1F
100
AcDbEntity
  8
0
  6
Continuous
 62
     7
370
    25
100
AcDbCircle
 10
17.8494298712
 20
10.0953492958
 30
0.0
 40
0.0402369364878704
100
AcDbArc
 50
145.0132147772
 51
210.3735206846
  0
ARC
  5
CF
330
1F
100
AcDbEntity
  8
0
  6
Continuous
 62
     7
370
    25
100
AcDbCircle
 10
18.1765579445
 20
10.2870710299
 30
0.0
 40
0.4194070826232261
100
AcDbArc
 50
210.3735206846
 51
216.416821018
  0
LINE
  5
D0
330
1F
100
AcDbEntity
  8
0
  6
Continuous
 62
     7
370
    25
100
AcDbLine
 10
17.9288770015
 20
9.9169433616
 30
0.0
 11
17.8390528676
 21
10.0380878497
 31
0.0
  0
ARC
  5
D1
330
1F
100
AcDbEntity
  8
0
  6
Continuous
 62
     7
370
    25
100
AcDbCircle
 10
35.7070204225
 20
23.2968893549
 30
0.0
 40
22.25051321389424
100
AcDbArc
 50
216.9653560303
 51
217.4279811692
  0
LINE
  5
D2
330
1F
100
AcDbEntity
  8
0
  6
Continuous
 62
     7
370
    25
100
AcDbLine
 10
18.1589006794
 20
9.6146052296
 30
0.0
 11
18.0374894705
 21
9.7738344405
 31
0.0
  0
LINE
  5
D3
330
1F
100
AcDbEntity
  8
0
  6
Continuous
 62
     7
370
    25
100
AcDbLine
 10
18.4696758413
 20
9.2094553395
 30
0.0
 11
18.1589006794
 21
9.6146052296
 31
0.0
  0
LINE
  5
D4
330
1F
100
AcDbEntity
  8
0
  6
Continuous
 62
     7
370
    25
100
AcDbLine
 10
17.8178954311
 20
9.2323511303
 30
0.0
 11
18.4696758413
 21
9.2094553395
 31
0.0
  0
LINE
  5
D5
330
1F
100
AcDbEntity
  8
0
  6
Continuous
 62
     7
370
    25
100
AcDbLine
 10
17.5909688136
 20
9.5273420678
 30
0.0
 11
17.8178954311
 21
9.2323511303
 31
0.0
  0
ARC
  5
D6
330
1F
100
AcDbEntity
  8
0
  6
Continuous
 62
     7
370
    25
100
AcDbCircle
 10
12.3611151661
 20
5.5041913632
 30
0.0
 40
6.598265739299501
100
AcDbArc
 50
37.5698746947
 51
38.8287110855
  0
ARC
  5
D7
330
1F
100
AcDbEntity
  8
0
  6
Continuous
 62
     7
370
    25
100
AcDbCircle
 10
14.4160994162
 20
7.1581372494
 30
0.0
 40
3.960369368573696
100
AcDbArc
 50
38.8287110855
 51
40.6740368972
  0
ARC
  5
D8
330
1F
100
AcDbEntity
  8
0
  6
Continuous
 62
     7
370
    25
100
AcDbCircle
 10
12.790269611
 20
5.7609842909
 30
0.0
 40
6.104048203017211
100
AcDbArc
 50
40.6740368972
 51
41.6797764844
  0
ARC
  5
D9
330
1F
100
AcDbEntity
  8
0
  6
Continuous
 62
     7
370
    25
100
AcDbCircle
 10
17.3103727318
 20
9.7853882182
 30
0.0
 40
0.0520105962882005
100
AcDbArc
 50
41.6797764844
 51
71.5697585086
  0
ARC
  5
DA
330
1F
100
AcDbEntity
  8
0
  6
Continuous
 62
     7
370
    25
100
AcDbCircle
 10
17.298366205
 20
9.749358771
 30
0.0
 40
0.0899879282943952
100
AcDbArc
 50
71.5697585086
 51
120.4467781218
  0
ARC
  5
DB
330
1F
100
AcDbEntity
  8
0
  6
Continuous
 62
     7
370
    25
100
AcDbCircle
 10
17.7085236932
 20
9.051568152
 30
0.0
 40
0.8993956828160867
100
AcDbArc
 50
120.4467781218
 51
129.4753609656
  0
ARC
  5
DC
330
1F
100
AcDbEntity
  8
0
  6
Continuous
 62
     7
370
    25
100
AcDbCircle
 10
17.6994588262
 20
9.0625743547
 30
0.0
 40
0.8851370604663127
100
AcDbArc
 50
129.4753609656
 51
138.9420580481
  0
ARC
  5
DD
330
1F
100
AcDbEntity
  8
0
  6
Continuous
 62
     7
370
    25
100
AcDbCircle
 10
17.1722378213
 20
9.5218174656
 30
0.0
 40
0.1859473702633608
100
AcDbArc
 50
138.9420580481
 51
169.0668754222
  0
LINE
  5
DE
330
1F
100
AcDbEntity
  8
0
  6
Continuous
 62
     7
370
    25
100
AcDbLine
 10
16.945935414
 20
9.3307024271
 30
0.0
 11
16.9896655397
 21
9.5570848229
 31
0.0
  0
ARC
  5
DF
330
1F
100
AcDbEntity
  8
0
  6
Continuous
 62
     7
370
    25
100
AcDbCircle
 10
16.5821845804
 20
9.4009679159
 30
0.0
 40
0.3704752458747934
100
AcDbArc
 50
337.6029166934
 51
349.0668754222
  0
ARC
  5
E0
330
1F
100
AcDbEntity
  8
0
  6
Continuous
 62
     7
370
    25
100
AcDbCircle
 10
16.8699389737
 20
9.2823812502
 30
0.0
 40
0.0592431972172095
100
AcDbArc
 50
293.1985702062
 51
337.6029166934
  0
ARC
  5
E1
330
1F
100
AcDbEntity
  8
0
  6
Continuous
 62
     7
370
    25
100
AcDbCircle
 10
16.8297048426
 20
9.3762609812
 30
0.0
 40
0.1613812860609645
100
AcDbArc
 50
271.640267175
 51
293.1985702062
  0
ARC
  5
E2
330
1F
100
AcDbEntity
  8
0
  6
Continuous
 62
     7
370
    25
100
AcDbCircle
 10
16.6703427387
 20
14.94137961
 30
0.0
 40
5.728781184769398
100
AcDbArc
 50
270.0
 51
271.640267175
  0
ARC
  5
E3
330
1F
100
AcDbEntity
  8
0
  6
Continuous
 62
     7
370
    25
100
AcDbCircle
 10
16.6703427387
 20
11.7854324549
 30
0.0
 40
2.572834029712032
100
AcDbArc
 50
267.7931480165
 51
270.0
  0
ARC
  5
E4
330
1F
100
AcDbEntity
  8
0
  6
Continuous
 62
     7
370
    25
100
AcDbCircle
 10
16.6217608538
 20
10.5247405977
 30
0.0
 40
1.311206446601686
100
AcDbArc
 50
264.2665263823
 51
267.7931480165
  0
ARC
  5
E5
330
1F
100
AcDbEntity
  8
0
  6
Continuous
 62
     7
370
    25
100
AcDbCircle
 10
16.6663516346
 20
10.9688570651
 30
0.0
 40
1.757555832558261
100
AcDbArc
 50
262.1175717222
 51
264.2665263823
  0
ARC
  5
E6
330
1F
100
AcDbEntity
  8
0
  6
Continuous
 62
     7
370
    25
100
AcDbCircle
 10
16.4267190824
 20
9.2380194172
 30
0.0
 40
0.0102084934956665
100
AcDbArc
 50
180.0000581626
 51
262.1175717222
  0
ARC
  5
E7
330
1F
100
AcDbEntity
  8
0
  6
Continuous
 62
     7
370
    25
100
AcDbCircle
 10
16.524945597
 20
9.2380195169
 30
0.0
 40
0.1084350081092352
100
AcDbArc
 50
169.4108662075
 51
180.0000581626
  0
LINE
  5
E8
330
1F
100
AcDbEntity
  8
0
  6
Continuous
 62
     7
370
    25
100
AcDbLine
 10
16.4641544031
 20
9.5029181253
 30
0.0
 11
16.4183572135
 21
9.2579460689
 31
0.0
  0
LINE
  5
E9
330
1F
100
AcDbEntity
  8
0
  6
Continuous
 62
     7
370
    25
100
AcDbLine
 10
16.5165264897
 20
9.7800269049
 30
0.0
 11
16.4641544031
 21
9.5029181253
 31
0.0
  0
ARC
  5
EA
330
1F
100
AcDbEntity
  8
0
  6
Continuous
 62
     7
370
    25
100
AcDbCircle
 10
-15.1160738505
 20
12.4544105027
 30
0.0
 40
16.65667612137719
100
AcDbArc
 50
348.961732681
 51
349.761535959
  0
ARC
  5
EB
330
1F
100
AcDbEntity
  8
0
  6
Continuous
 62
     7
370
    25
100
AcDbCircle
 10
-7.1269544676
 20
10.8959448203
 30
0.0
 40
8.516968276712594
100
AcDbArc
 50
347.6404380111
 51
348.961732681
  0
LINE
  5
EC
330
1F
100
AcDbEntity
  8
0
  6
Continuous
 62
     7
370
    25
100
AcDbLine
 10
1.1557294435
 20
8.9067087264
 30
0.0
 11
1.1926210621
 21
9.0729221568
 31
0.0
  0
ARC
  5
ED
330
1F
100
AcDbEntity
  8
0
  6
Continuous
 62
     7
370
    25
100
AcDbCircle
 10
1.1451499611
 20
8.9090568774
 30
0.0
 40
0.0108369396125468
100
AcDbArc
 50
268.5301624862
 51
347.485876393
  0
ARC
  5
EE
330
1F
100
AcDbEntity
  8
0
  6
Continuous
 62
     7
370
    25
100
AcDbCircle
 10
1.1455374982
 20
8.924160159
 30
0.0
 40
0.0259451923816167
100
AcDbArc
 50
234.5058639578
 51
268.5301624858
  0
ARC
  5
EF
330
1F
100
AcDbEntity
  8
0
  6
Continuous
 62
     7
370
    25
100
AcDbCircle
 10
2.4906205533
 20
10.8103053466
 30
0.0
 40
2.342578977338106
100
AcDbArc
 50
233.1378300983
 51
234.5058639578
  0
ARC
  5
F0
330
1F
100
AcDbEntity
  8
0
  6
Continuous
 62
     7
370
    25
100
AcDbCircle
 10
2.0850069553
 20
10.2693352249
 30
0.0
 40
1.666434715087399
100
AcDbArc
 50
230.8331056344
 51
233.1378300983
  0
ARC
  5
F1
330
1F
100
AcDbEntity
  8
0
  6
Continuous
 62
     7
370
    25
100
AcDbCircle
 10
2.7732346492
 20
11.1141819452
 30
0.0
 40
2.756124276081075
100
AcDbArc
 50
229.2519992449
 51
230.8331056344
  0
LINE
  5
F2
330
1F
100
AcDbEntity
  8
0
  6
Continuous
 62
     7
370
    25
100
AcDbLine
 10
0.8263929528
 20
9.1535433071
 30
0.0
 11
0.9742205056
 21
9.026175926
 31
0.0
  0
LINE
  5
F3
330
1F
100
AcDbEntity
  8
0
  6
Continuous
 62
     7
370
    25
100
AcDbLine
 10
0.9342047281
 20
9.7736193513
 30
0.0
 11
0.8263929528
 21
9.1535433071
 31
0.0
  0
ARC
  5
F4
330
1F
100
AcDbEntity
  8
0
  6
Continuous
 62
     7
370
    25
100
AcDbCircle
 10
19.2273249318
 20
6.5930195131
 30
0.0
 40
18.567564786915
100
AcDbArc
 50
169.3911742235
 51
170.1366627997
  0
ARC
  5
F5
330
1F
100
AcDbEntity
  8
0
  6
Continuous
 62
     7
370
    25
100
AcDbCircle
 10
10.3125067028
 20
8.2628037612
 30
0.0
 40
9.49771564317666
100
AcDbArc
 50
168.1599167674
 51
169.3911742235
  0
LINE
  5
F6
330
1F
100
AcDbEntity
  8
0
  6
Continuous
 62
     7
370
    25
100
AcDbLine
 10
1.0536911043
 20
10.3851872037
 30
0.0
 11
1.0168636315
 21
10.2115526748
 31
0.0
  0
ARC
  5
F7
330
1F
100
AcDbEntity
  8
0
  6
Continuous
 62
     7
370
    25
100
AcDbCircle
 10
1.0641997755
 20
10.3829583394
 30
0.0
 40
0.0107424394787524
100
AcDbArc
 50
90.0002232501
 51
168.0251602983
  0
ARC
  5
F8
330
1F
100
AcDbEntity
  8
0
  6
Continuous
 62
     7
370
    25
100
AcDbCircle
 10
1.0641998167
 20
10.3723858007
 30
0.0
 40
0.0213149781620091
100
AcDbArc
 50
49.6209978867
 51
90.0002232501
  0
ARC
  5
F9
330
1F
100
AcDbEntity
  8
0
  6
Continuous
 62
     7
370
    25
100
AcDbCircle
 10
-0.6185316695
 20
8.3937142558
 30
0.0
 40
2.618761096350389
100
AcDbArc
 50
48.303215756
 51
49.6209978867
  0
ARC
  5
FA
330
1F
100
AcDbEntity
  8
0
  6
Continuous
 62
     7
370
    25
100
AcDbCircle
 10
-0.0278478713
 20
9.0567581375
 30
0.0
 40
1.730766423874694
100
AcDbArc
 50
45.9161559003
 51
48.303215756
  0
ARC
  5
FB
330
1F
100
AcDbEntity
  8
0
  6
Continuous
 62
     7
370
    25
100
AcDbCircle
 10
-0.8813710757
 20
8.1754934193
 30
0.0
 40
2.957603562110954
100
AcDbArc
 50
44.3180327042
 51
45.9161559003
  0
LINE
  5
FC
330
1F
100
AcDbEntity
  8
0
  6
Continuous
 62
     7
370
    25
100
AcDbLine
 10
1.3830435424
 20
10.0898918812
 30
0.0
 11
1.2347140805
 21
10.2417950533
 31
0.0
  0
LINE
  5
FD
330
1F
100
AcDbEntity
  8
0
  6
Continuous
 62
     7
370
    25
100
AcDbLine
 10
1.2753697709
 20
9.4937626987
 30
0.0
 11
1.3830435424
 21
10.0898918812
 31
0.0
  0
ARC
  5
FE
330
1F
100
AcDbEntity
  8
0
  6
Continuous
 62
     7
370
    25
100
AcDbCircle
 10
3.1072077711
 20
9.9592325004
 30
0.0
 40
0.1560828940966292
100
AcDbArc
 50
269.9999793624
 51
306.8195073378
  0
ARC
  5
FF
330
1F
100
AcDbEntity
  8
0
  6
Continuous
 62
     7
370
    25
100
AcDbCircle
 10
3.1072076792
 20
9.7040878354
 30
0.0
 40
0.0990617708621688
100
AcDbArc
 50
89.9999793624
 51
121.2204485881
  0
ARC
  5
100
330
1F
100
AcDbEntity
  8
0
  6
Continuous
 62
     7
370
    25
100
AcDbCircle
 10
3.0722701942
 20
9.7617300421
 30
0.0
 40
0.0316581222215009
100
AcDbArc
 50
121.2204485881
 51
193.6811150765
  0
ARC
  5
101
330
1F
100
AcDbEntity
  8
0
  6
Continuous
 62
     7
370
    25
100
AcDbCircle
 10
3.3290794449
 20
9.824243721
 30
0.0
 40
0.295966561874126
100
AcDbArc
 50
193.6811150765
 51
209.2754230182
  0
ARC
  5
102
330
1F
100
AcDbEntity
  8
0
  6
Continuous
 62
     7
370
    25
100
AcDbCircle
 10
14.4067876018
 20
16.0345169296
 30
0.0
 40
12.99569535170878
100
AcDbArc
 50
209.2754230182
 51
210.3005781267
  0
LINE
  5
103
330
1F
100
AcDbEntity
  8
0
  6
Continuous
 62
     7
370
    25
100
AcDbLine
 10
3.341354252
 20
9.2125984252
 30
0.0
 11
3.1864282171
 21
9.4777164178
 31
0.0
  0
LINE
  5
104
330
1F
100
AcDbEntity
  8
0
  6
Continuous
 62
     7
370
    25
100
AcDbLine
 10
2.8068280315
 20
9.2125984252
 30
0.0
 11
3.341354252
 21
9.2125984252
 31
0.0
  0
LINE
  5
105
330
1F
100
AcDbEntity
  8
0
  6
Continuous
 62
     7
370
    25
100
AcDbLine
 10
2.4403173228
 20
9.7637795276
 30
0.0
 11
2.8068280315
 21
9.2125984252
 31
0.0
  0
LINE
  5
106
330
1F
100
AcDbEntity
  8
0
  6
Continuous
 62
     7
370
    25
100
AcDbLine
 10
2.0528266142
 20
9.7637795276
 30
0.0
 11
2.4403173228
 21
9.7637795276
 31
0.0
  0
LINE
  5
107
330
1F
100
AcDbEntity
  8
0
  6
Continuous
 62
     7
370
    25
100
AcDbLine
 10
2.0083411358
 20
9.5374057521
 30
0.0
 11
2.0528266142
 21
9.7637795276
 31
0.0
  0
ARC
  5
108
330
1F
100
AcDbEntity
  8
0
  6
Continuous
 62
     7
370
    25
100
AcDbCircle
 10
-4.8431436077
 20
10.8838142545
 30
0.0
 40
6.98252526290493
100
AcDbArc
 50
347.0096336493
 51
348.8822802642
  0
ARC
  5
109
330
1F
100
AcDbEntity
  8
0
  6
Continuous
 62
     7
370
    25
100
AcDbCircle
 10
1.8212853191
 20
9.3463898326
 30
0.0
 40
0.1430598763141054
100
AcDbArc
 50
316.3855462967
 51
347.0096336493
  0
ARC
  5
10A
330
1F
100
AcDbEntity
  8
0
  6
Continuous
 62
     7
370
    25
100
AcDbCircle
 10
1.8566204925
 20
9.3127236004
 30
0.0
 40
0.0942542448126506
100
AcDbArc
 50
274.2629897667
 51
316.3855462966
  0
ARC
  5
10B
330
1F
100
AcDbEntity
  8
0
  6
Continuous
 62
     7
370
    25
100
AcDbCircle
 10
1.6988793952
 20
11.4288946486
 30
0.0
 40
2.216296223416892
100
AcDbArc
 50
270.0
 51
274.2629897667
  0
LINE
  5
10C
330
1F
100
AcDbEntity
  8
0
  6
Continuous
 62
     7
370
    25
100
AcDbLine
 10
1.4661526378
 20
9.2125984252
 30
0.0
 11
1.6988793952
 21
9.2125984252
 31
0.0
  0
LINE
  5
10D
330
1F
100
AcDbEntity
  8
0
  6
Continuous
 62
     7
370
    25
100
AcDbLine
 10
1.5218935241
 20
9.5177116894
 30
0.0
 11
1.4661526378
 21
9.2125984252
 31
0.0
  0
ARC
  5
10E
330
1F
100
AcDbEntity
  8
0
  6
Continuous
 62
     7
370
    25
100
AcDbCircle
 10
7.4549780402
 20
8.4338014553
 30
0.0
 40
6.031281229583016
100
AcDbArc
 50
167.1178780875
 51
169.6468544091
  0
ARC
  5
10F
330
1F
100
AcDbEntity
  8
0
  6
Continuous
 62
     7
370
    25
100
AcDbCircle
 10
2.4835052876
 20
9.5707882038
 30
0.0
 40
0.9314498405809678
100
AcDbArc
 50
157.0654695119
 51
167.1178780875
  0
ARC
  5
110
330
1F
100
AcDbEntity
  8
0
  6
Continuous
 62
     7
370
    25
100
AcDbCircle
 10
1.9594931661
 20
9.792511843
 30
0.0
 40
0.362459440320271
100
AcDbArc
 50
139.4488882625
 51
157.0654695119
  0
ARC
  5
111
330
1F
100
AcDbEntity
  8
0
  6
Continuous
 62
     7
370
    25
100
AcDbCircle
 10
1.8279810333
 20
9.905036866
 30
0.0
 40
0.18937760452689
100
AcDbArc
 50
110.816773428
 51
139.4488882625
  0
ARC
  5
112
330
1F
100
AcDbEntity
  8
0
  6
Continuous
 62
     7
370
    25
100
AcDbCircle
 10
1.8420163194
 20
9.8681212732
 30
0.0
 40
0.228871278035126
100
AcDbArc
 50
94.6395986812
 51
110.816773428
  0
ARC
  5
113
330
1F
100
AcDbEntity
  8
0
  6
Continuous
 62
     7
370
    25
100
AcDbCircle
 10
2.3642398789
 20
3.4331297974
 30
0.0
 40
6.685018173795051
100
AcDbArc
 50
93.2310704675
 51
94.6395986812
  0
ARC
  5
114
330
1F
100
AcDbEntity
  8
0
  6
Continuous
 62
     7
370
    25
100
AcDbCircle
 10
2.3349998082
 20
3.9510870324
 30
0.0
 40
6.166236255199161
100
AcDbArc
 50
91.402185646
 51
93.2310704675
  0
ARC
  5
115
330
1F
100
AcDbEntity
  8
0
  6
Continuous
 62
     7
370
    25
100
AcDbCircle
 10
2.3993088141
 20
1.323832215
 30
0.0
 40
8.79427802123223
100
AcDbArc
 50
89.9999980658
 51
91.402185646
  0
ARC
  5
116
330
1F
100
AcDbEntity
  8
0
  6
Continuous
 62
     7
370
    25
100
AcDbCircle
 10
2.3993095445
 20
22.9604580656
 30
0.0
 40
12.84234782938937
100
AcDbArc
 50
269.9999980658
 51
271.1434014236
  0
ARC
  5
117
330
1F
100
AcDbEntity
  8
0
  6
Continuous
 62
     7
370
    25
100
AcDbCircle
 10
2.6026946047
 20
12.7701973661
 30
0.0
 40
2.650057674249479
100
AcDbArc
 50
271.1434014236
 51
274.8286616271
  0
ARC
  5
118
330
1F
100
AcDbEntity
  8
0
  6
Continuous
 62
     7
370
    25
100
AcDbCircle
 10
2.6909421586
 20
11.725552575
 30
0.0
 40
1.601692103300129
100
AcDbArc
 50
274.8286616271
 51
278.994065515
  0
ARC
  5
119
330
1F
100
AcDbEntity
  8
0
  6
Continuous
 62
     7
370
    25
100
AcDbCircle
 10
2.9312666407
 20
10.2071856766
 30
0.0
 40
0.0644237809749656
100
AcDbArc
 50
278.994065515
 51
321.7744155224
  0
ARC
  5
11A
330
1F
100
AcDbEntity
  8
0
  6
Continuous
 62
     7
370
    25
100
AcDbCircle
 10
2.7583754023
 20
10.3433627181
 30
0.0
 40
0.2845046001242995
100
AcDbArc
 50
321.7744155224
 51
339.7141086439
  0
ARC
  5
11B
330
1F
100
AcDbEntity
  8
0
  6
Continuous
 62
     7
370
    25
100
AcDbCircle
 10
2.6760740098
 20
10.3737838905
 30
0.0
 40
0.3722483573480834
100
AcDbArc
 50
339.7141086439
 51
354.3789934575
  0
ARC
  5
11C
330
1F
100
AcDbEntity
  8
0
  6
Continuous
 62
     7
370
    25
100
AcDbCircle
 10
2.71362157
 20
10.370088421
 30
0.0
 40
0.3345193794389028
100
AcDbArc
 50
354.3789934575
 51
9.7992176685
  0
ARC
  5
11D
330
1F
100
AcDbEntity
  8
0
  6
Continuous
 62
     7
370
    25
100
AcDbCircle
 10
2.8822498893
 20
10.3992132182
 30
0.0
 40
0.1633943845771721
100
AcDbArc
 50
9.7992176685
 51
36.1513671999
  0
ARC
  5
11E
330
1F
100
AcDbEntity
  8
0
  6
Continuous
 62
     7
370
    25
100
AcDbCircle
 10
2.9157276335
 20
10.4236716127
 30
0.0
 40
0.1219338923286641
100
AcDbArc
 50
36.1513671999
 51
68.70774743
  0
ARC
  5
11F
330
1F
100
AcDbEntity
  8
0
  6
Continuous
 62
     7
370
    25
100
AcDbCircle
 10
2.8163085343
 20
10.1685728937
 30
0.0
 40
0.3957212436402748
100
AcDbArc
 50
68.70774743
 51
82.2551799426
  0
ARC
  5
120
330
1F
100
AcDbEntity
  8
0
  6
Continuous
 62
     7
370
    25
100
AcDbCircle
 10
2.6533051557
 20
8.9700357951
 30
0.0
 40
1.605291943597034
100
AcDbArc
 50
82.2551799426
 51
87.9873785948
  0
ARC
  5
121
330
1F
100
AcDbEntity
  8
0
  6
Continuous
 62
     7
370
    25
100
AcDbCircle
 10
1.7296812687
 20
-17.3130906858
 30
0.0
 40
27.90464210084874
100
AcDbArc
 50
87.9873785948
 51
88.7030804974
  0
LINE
  5
122
330
1F
100
AcDbEntity
  8
0
  6
Continuous
 62
     7
370
    25
100
AcDbLine
 10
1.763288937
 20
10.5979407874
 30
0.0
 11
2.3612632894
 21
10.5844030175
 31
0.0
  0
LINE
  5
123
330
1F
100
AcDbEntity
  8
0
  6
Continuous
 62
     7
370
    25
100
AcDbLine
 10
1.7871561226
 20
10.7172765973
 30
0.0
 11
1.763288937
 21
10.5979407874
 31
0.0
  0
ARC
  5
124
330
1F
100
AcDbEntity
  8
0
  6
Continuous
 62
     7
370
    25
100
AcDbCircle
 10
0.2563589728
 20
11.0234363303
 30
0.0
 40
1.56111296709449
100
AcDbArc
 50
348.6900566208
 51
350.5513693727
  0
ARC
  5
125
330
1F
100
AcDbEntity
  8
0
  6
Continuous
 62
     7
370
    25
100
AcDbCircle
 10
0.1230952295
 20
11.0456142258
 30
0.0
 40
1.696209541178119
100
AcDbArc
 50
350.5513693727
 51
352.3004236465
  0
ARC
  5
126
330
1F
100
AcDbEntity
  8
0
  6
Continuous
 62
     7
370
    25
100
AcDbCircle
 10
0.3107451789
 20
11.0202443701
 30
0.0
 40
1.506852383697292
100
AcDbArc
 50
352.3004236465
 51
354.0469181777
  0
ARC
  5
127
330
1F
100
AcDbEntity
  8
0
  6
Continuous
 62
     7
370
    25
100
AcDbCircle
 10
1.5231834625
 20
10.8938156905
 30
0.0
 40
0.287840159546169
100
AcDbArc
 50
354.0469181777
 51
359.9999729557
  0
ARC
  5
128
330
1F
100
AcDbEntity
  8
0
  6
Continuous
 62
     7
370
    25
100
AcDbCircle
 10
1.8425441395
 20
10.8938155398
 30
0.0
 40
0.0315205174259058
100
AcDbArc
 50
100.4761371358
 51
179.9999729557
  0
ARC
  5
129
330
1F
100
AcDbEntity
  8
0
  6
Continuous
 62
     7
370
    25
100
AcDbCircle
 10
2.0004789966
 20
10.0396901757
 30
0.0
 40
0.9001248902975509
100
AcDbArc
 50
93.3922318278
 51
100.4761371358
  0
ARC
  5
12A
330
1F
100
AcDbEntity
  8
0
  6
Continuous
 62
     7
370
    25
100
AcDbCircle
 10
2.1220251364
 20
7.9891399189
 30
0.0
 40
2.9542743054942
100
AcDbArc
 50
89.5421132059
 51
93.3922318278
  0
ARC
  5
12B
330
1F
100
AcDbEntity
  8
0
  6
Continuous
 62
     7
370
    25
100
AcDbCircle
 10
1.7904381045
 20
-33.5017553384
 30
0.0
 40
44.44649453066769
100
AcDbArc
 50
89.0101712611
 51
89.5421132059
  0
LINE
  5
12C
330
1F
100
AcDbEntity
  8
0
  6
Continuous
 62
     7
370
    25
100
AcDbLine
 10
3.3054582677
 20
10.9251968504
 30
0.0
 11
2.5582473508
 21
10.9381067791
 31
0.0
  0
LINE
  5
12D
330
1F
100
AcDbEntity
  8
0
  6
Continuous
 62
     7
370
    25
100
AcDbLine
 10
3.4109736602
 20
10.819600828
 30
0.0
 11
3.3054582677
 21
10.9251968504
 31
0.0
  0
ARC
  5
12E
330
1F
100
AcDbEntity
  8
0
  6
Continuous
 62
     7
370
    25
100
AcDbCircle
 10
3.1857019893
 20
10.5945011678
 30
0.0
 40
0.3184606454486248
100
AcDbArc
 50
22.2480483726
 51
44.9781169785
  0
ARC
  5
12F
330
1F
100
AcDbEntity
  8
0
  6
Continuous
 62
     7
370
    25
100
AcDbCircle
 10
3.046007452
 20
10.5373561784
 30
0.0
 40
0.4693914692415103
100
AcDbArc
 50
5.2514436097
 51
22.2480483726
  0
ARC
  5
130
330
1F
100
AcDbEntity
  8
0
  6
Continuous
 62
     7
370
    25
100
AcDbCircle
 10
2.7912266819
 20
10.5139386408
 30
0.0
 40
0.7252461582961308
100
AcDbArc
 50
351.9311384288
 51
5.2514436097
  0
ARC
  5
131
330
1F
100
AcDbEntity
  8
0
  6
Continuous
 62
     7
370
    25
100
AcDbCircle
 10
1.8112654444
 20
10.652864455
 30
0.0
 40
1.715005931605729
100
AcDbArc
 50
344.9293002749
 51
351.9311384288
  0
ARC
  5
132
330
1F
100
AcDbEntity
  8
0
  6
Continuous
 62
     7
370
    25
100
AcDbCircle
 10
2.9374487436
 20
10.349614638
 30
0.0
 40
0.5487086817503348
100
AcDbArc
 50
329.3908742319
 51
344.9293002749
  0
ARC
  5
133
330
1F
100
AcDbEntity
  8
0
  6
Continuous
 62
     7
370
    25
100
AcDbCircle
 10
2.6711885561
 20
10.5071377203
 30
0.0
 40
0.858075791969056
100
AcDbArc
 50
318.2754395281
 51
329.3908742319
  0
ARC
  5
134
330
1F
100
AcDbEntity
  8
0
  6
Continuous
 62
     7
370
    25
100
AcDbCircle
 10
2.7489292648
 20
10.4378134745
 30
0.0
 40
0.7539150084227055
100
AcDbArc
 50
306.8195073378
 51
318.2754395281
  0
LINE
  5
135
330
1F
100
AcDbEntity
  8
0
  6
Continuous
 62
     7
370
    25
100
AcDbLine
 10
1.5584379967
 20
11.259842578
 30
0.0
 11
1.2715081835
 21
11.5400219368
 31
0.0
  0
LINE
  5
136
330
1F
100
AcDbEntity
  8
0
  6
Continuous
 62
     7
370
    25
100
AcDbLine
 10
2.0980943454
 20
11.259842578
 30
0.0
 11
1.5584379967
 21
11.259842578
 31
0.0
  0
ARC
  5
137
330
1F
100
AcDbEntity
  8
0
  6
Continuous
 62
     7
370
    25
100
AcDbCircle
 10
2.0980943454
 20
-16.4291191405
 30
0.0
 40
27.68896171846015
100
AcDbArc
 50
89.3385362754
 51
90.0
  0
ARC
  5
138
330
1F
100
AcDbEntity
  8
0
  6
Continuous
 62
     7
370
    25
100
AcDbCircle
 10
2.4044077201
 20
10.1024701337
 30
0.0
 40
1.155604273611259
100
AcDbArc
 50
82.7132612308
 51
89.3385362754
  0
ARC
  5
139
330
1F
100
AcDbEntity
  8
0
  6
Continuous
 62
     7
370
    25
100
AcDbCircle
 10
2.5271207463
 20
11.0621574946
 30
0.0
 40
0.1881032051528553
100
AcDbArc
 50
62.0728882933
 51
82.7132612308
  0
ARC
  5
13A
330
1F
100
AcDbEntity
  8
0
  6
Continuous
 62
     7
370
    25
100
AcDbCircle
 10
2.5953296958
 20
11.1908345088
 30
0.0
 40
0.0424658652246222
100
AcDbArc
 50
359.9986160847
 51
62.0728882933
  0
ARC
  5
13B
330
1F
100
AcDbEntity
  8
0
  6
Continuous
 62
     7
370
    25
100
AcDbCircle
 10
2.5950798823
 20
11.1908345148
 30
0.0
 40
0.0427156787445684
100
AcDbArc
 50
298.9020869617
 51
359.9986160847
  0
ARC
  5
13C
330
1F
100
AcDbEntity
  8
0
  6
Continuous
 62
     7
370
    25
100
AcDbCircle
 10
2.5304686735
 20
11.3078674421
 30
0.0
 40
0.1763993141091078
100
AcDbArc
 50
277.5238921853
 51
298.9020869617
  0
ARC
  5
13D
330
1F
100
AcDbEntity
  8
0
  6
Continuous
 62
     7
370
    25
100
AcDbCircle
 10
2.4116323051
 20
12.2076198377
 30
0.0
 40
1.08396554089904
100
AcDbArc
 50
270.6786503909
 51
277.5238921853
  0
ARC
  5
13E
330
1F
100
AcDbEntity
  8
0
  6
Continuous
 62
     7
370
    25
100
AcDbCircle
 10
2.1215464002
 20
36.6972848953
 30
0.0
 40
25.57534860648136
100
AcDbArc
 50
269.9878835644
 51
270.6786503909
  0
LINE
  5
13F
330
1F
100
AcDbEntity
  8
0
  6
Continuous
 62
     7
370
    25
100
AcDbLine
 10
1.5944884744
 20
11.1220471748
 30
0.0
 11
2.1161379379
 21
11.1219368607
 31
0.0
  0
LINE
  5
140
330
1F
100
AcDbEntity
  8
0
  6
Continuous
 62
     7
370
    25
100
AcDbLine
 10
1.5289922954
 20
10.7940808015
 30
0.0
 11
1.5944884744
 21
11.1220471748
 31
0.0
  0
ARC
  5
141
330
1F
100
AcDbEntity
  8
0
  6
Continuous
 62
     7
370
    25
100
AcDbCircle
 10
-7.2446115686
 20
12.5462041182
 30
0.0
 40
8.946846420871337
100
AcDbArc
 50
347.876480621
 51
348.7063786622
  0
ARC
  5
142
330
1F
100
AcDbEntity
  8
0
  6
Continuous
 62
     7
370
    25
100
AcDbCircle
 10
-3.4567493364
 20
11.7325303315
 30
0.0
 40
5.072576770792351
100
AcDbArc
 50
346.607372718
 51
347.876480621
  0
LINE
  5
143
330
1F
100
AcDbEntity
  8
0
  6
Continuous
 62
     7
370
    25
100
AcDbLine
 10
1.4552450411
 20
10.4643276892
 30
0.0
 11
1.4778822146
 21
10.5576062693
 31
0.0
  0
ARC
  5
144
330
1F
100
AcDbEntity
  8
0
  6
Continuous
 62
     7
370
    25
100
AcDbCircle
 10
1.4248659985
 20
10.471700182
 30
0.0
 40
0.0312608361747822
100
AcDbArc
 50
314.9999043309
 51
346.3589754156
  0
ARC
  5
145
330
1F
100
AcDbEntity
  8
0
  6
Continuous
 62
     7
370
    25
100
AcDbCircle
 10
1.4398166205
 20
10.45674951
 30
0.0
 40
0.010117428365429
100
AcDbArc
 50
238.4730395304
 51
314.9999043309
  0
ARC
  5
146
330
1F
100
AcDbEntity
  8
0
  6
Continuous
 62
     7
370
    25
100
AcDbCircle
 10
2.0044689524
 20
11.3772058864
 30
0.0
 40
1.089965656899712
100
AcDbArc
 50
235.7289598093
 51
238.4730395304
  0
ARC
  5
147
330
1F
100
AcDbEntity
  8
0
  6
Continuous
 62
     7
370
    25
100
AcDbCircle
 10
1.908757634
 20
11.2367458897
 30
0.0
 40
0.919996050375462
100
AcDbArc
 50
231.6555977605
 51
235.7289598093
  0
ARC
  5
148
330
1F
100
AcDbEntity
  8
0
  6
Continuous
 62
     7
370
    25
100
AcDbCircle
 10
2.4354942164
 20
11.9026484481
 30
0.0
 40
1.769041187260046
100
AcDbArc
 50
229.1588237276
 51
231.6555977605
  0
LINE
  5
149
330
1F
100
AcDbEntity
  8
0
  6
Continuous
 62
     7
370
    25
100
AcDbLine
 10
1.1267658268
 20
10.6955779528
 30
0.0
 11
1.2786041544
 21
10.5643240828
 31
0.0
  0
LINE
  5
14A
330
1F
100
AcDbEntity
  8
0
  6
Continuous
 62
     7
370
    25
100
AcDbLine
 10
1.2715081835
 20
11.5400219368
 30
0.0
 11
1.1267658268
 21
10.6955779528
 31
0.0
  0
ARC
  5
14B
330
1F
100
AcDbEntity
  8
0
  6
Continuous
 62
     7
370
    25
100
AcDbCircle
 10
15.2218764577
 20
9.6749620146
 30
0.0
 40
0.6781211052825094
100
AcDbArc
 50
175.022167316
 51
191.706986034
  0
ARC
  5
14C
330
1F
100
AcDbEntity
  8
0
  6
Continuous
 62
     7
370
    25
100
AcDbCircle
 10
17.4600315199
 20
9.4800213437
 30
0.0
 40
2.924749678866988
100
AcDbArc
 50
170.5335325639
 51
175.022167316
  0
ARC
  5
14D
330
1F
100
AcDbEntity
  8
0
  6
Continuous
 62
     7
370
    25
100
AcDbCircle
 10
17.7493461081
 20
9.4317807327
 30
0.0
 40
3.218058539095727
100
AcDbArc
 50
162.3363501441
 51
170.5335325639
  0
ARC
  5
14E
330
1F
100
AcDbEntity
  8
0
  6
Continuous
 62
     7
370
    25
100
AcDbCircle
 10
15.4239770621
 20
10.1722754465
 30
0.0
 40
0.7776336537534796
100
AcDbArc
 50
141.5353496735
 51
162.3363501441
  0
ARC
  5
14F
330
1F
100
AcDbEntity
  8
0
  6
Continuous
 62
     7
370
    25
100
AcDbCircle
 10
15.2481507233
 20
10.3119570023
 30
0.0
 40
0.5530766710874704
100
AcDbArc
 50
115.9348496802
 51
141.5353496735
  0
ARC
  5
150
330
1F
100
AcDbEntity
  8
0
  6
Continuous
 62
     7
370
    25
100
AcDbCircle
 10
15.5118841969
 20
9.7696590594
 30
0.0
 40
1.156104368634393
100
AcDbArc
 50
101.1851308624
 51
115.9348496802
  0
ARC
  5
151
330
1F
100
AcDbEntity
  8
0
  6
Continuous
 62
     7
370
    25
100
AcDbCircle
 10
15.4456089213
 20
10.104830151
 30
0.0
 40
0.8144436118032341
100
AcDbArc
 50
94.5754923022
 51
101.1851308624
  0
ARC
  5
152
330
1F
100
AcDbEntity
  8
0
  6
Continuous
 62
     7
370
    25
100
AcDbCircle
 10
15.947733003
 20
3.830443433
 30
0.0
 40
7.108890154575762
100
AcDbArc
 50
93.2325023967
 51
94.5754923022
  0
ARC
  5
153
330
1F
100
AcDbEntity
  8
0
  6
Continuous
 62
     7
370
    25
100
AcDbCircle
 10
15.9909307751
 20
3.065579819
 30
0.0
 40
7.874972653761165
100
AcDbArc
 50
91.8219338869
 51
93.2325023967
  0
ARC
  5
154
330
1F
100
AcDbEntity
  8
0
  6
Continuous
 62
     7
370
    25
100
AcDbCircle
 10
16.015789835
 20
2.2840810404
 30
0.0
 40
8.65686670913736
100
AcDbArc
 50
90.5072731596
 51
91.8219338869
  0
LINE
  5
155
330
1F
100
AcDbEntity
  8
0
  6
Continuous
 62
     7
370
    25
100
AcDbLine
 10
16.4263531038
 20
10.9449221017
 30
0.0
 11
15.9391465151
 21
10.9406084632
 31
0.0
  0
LINE
  5
156
330
1F
100
AcDbEntity
  8
0
  6
Continuous
 62
     7
370
    25
100
AcDbLine
 10
16.4017466618
 20
10.8218898916
 30
0.0
 11
16.4263531038
 21
10.9449221017
 31
0.0
  0
ARC
  5
157
330
1F
100
AcDbEntity
  8
0
  6
Continuous
 62
     7
370
    25
100
AcDbCircle
 10
18.2624069199
 20
10.44975784
 30
0.0
 40
1.897508592772097
100
AcDbArc
 50
168.690067526
 51
170.2452125096
  0
ARC
  5
158
330
1F
100
AcDbEntity
  8
0
  6
Continuous
 62
     7
370
    25
100
AcDbCircle
 10
18.2031096239
 20
10.4599520801
 30
0.0
 40
1.837341393706706
100
AcDbArc
 50
170.2452125096
 51
171.8406704505
  0
ARC
  5
159
330
1F
100
AcDbEntity
  8
0
  6
Continuous
 62
     7
370
    25
100
AcDbCircle
 10
18.0051046325
 20
10.4883415808
 30
0.0
 40
1.637311545031911
100
AcDbArc
 50
171.8406704505
 51
173.3928391686
  0
ARC
  5
15A
330
1F
100
AcDbEntity
  8
0
  6
Continuous
 62
     7
370
    25
100
AcDbCircle
 10
16.6070827098
 20
10.6502753027
 30
0.0
 40
0.2299424297376047
100
AcDbArc
 50
173.3928391686
 51
180.0000046576
  0
ARC
  5
15B
330
1F
100
AcDbEntity
  8
0
  6
Continuous
 62
     7
370
    25
100
AcDbCircle
 10
16.3518306483
 20
10.650275282
 30
0.0
 40
0.0253096316938831
100
AcDbArc
 50
283.1382041149
 51
0.0000046576
  0
ARC
  5
15C
330
1F
100
AcDbEntity
  8
0
  6
Continuous
 62
     7
370
    25
100
AcDbCircle
 10
16.0734295463
 20
11.843029451
 30
0.0
 40
1.250123773279503
100
AcDbArc
 50
278.4483693704
 51
283.1382041149
  0
ARC
  5
15D
330
1F
100
AcDbEntity
  8
0
  6
Continuous
 62
     7
370
    25
100
AcDbCircle
 10
15.9433382164
 20
12.7188891468
 30
0.0
 40
2.135591988821797
100
AcDbArc
 50
274.2840203909
 51
278.4483693704
  0
ARC
  5
15E
330
1F
100
AcDbEntity
  8
0
  6
Continuous
 62
     7
370
    25
100
AcDbCircle
 10
15.218955585
 20
22.3889398956
 30
0.0
 40
11.8327365005157
100
AcDbArc
 50
273.1115539417
 51
274.2840203909
  0
ARC
  5
15F
330
1F
100
AcDbEntity
  8
0
  6
Continuous
 62
     7
370
    25
100
AcDbCircle
 10
16.683459033
 20
-4.5517341286
 30
0.0
 40
15.14771359253289
100
AcDbArc
 50
93.1115539416
 51
93.876069312
  0
ARC
  5
160
330
1F
100
AcDbEntity
  8
0
  6
Continuous
 62
     7
370
    25
100
AcDbCircle
 10
16.3003843233
 20
1.1022078555
 30
0.0
 40
9.48080912961136
100
AcDbArc
 50
93.876069312
 51
94.9622779571
  0
ARC
  5
161
330
1F
100
AcDbEntity
  8
0
  6
Continuous
 62
     7
370
    25
100
AcDbCircle
 10
16.6773982899
 20
-3.2400059563
 30
0.0
 40
13.83935938376086
100
AcDbArc
 50
94.9622779571
 51
95.5888616296
  0
ARC
  5
162
330
1F
100
AcDbEntity
  8
0
  6
Continuous
 62
     7
370
    25
100
AcDbCircle
 10
15.3447793085
 20
10.3783533897
 30
0.0
 40
0.1559539368352294
100
AcDbArc
 50
95.5888616296
 51
110.9932320069
  0
ARC
  5
163
330
1F
100
AcDbEntity
  8
0
  6
Continuous
 62
     7
370
    25
100
AcDbCircle
 10
15.3379533938
 20
10.3961417855
 30
0.0
 40
0.1369008495221269
100
AcDbArc
 50
110.9932320069
 51
146.1105324111
  0
ARC
  5
164
330
1F
100
AcDbEntity
  8
0
  6
Continuous
 62
     7
370
    25
100
AcDbCircle
 10
15.7525995785
 20
10.1176217394
 30
0.0
 40
0.6364054786447765
100
AcDbArc
 50
146.1105324111
 51
157.3448043244
  0
ARC
  5
165
330
1F
100
AcDbEntity
  8
0
  6
Continuous
 62
     7
370
    25
100
AcDbCircle
 10
16.1863717857
 20
9.9365693212
 30
0.0
 40
1.10644622783048
100
AcDbArc
 50
157.3448043244
 51
165.9730452712
  0
ARC
  5
166
330
1F
100
AcDbEntity
  8
0
  6
Continuous
 62
     7
370
    25
100
AcDbCircle
 10
17.8437032466
 20
9.5225219223
 30
0.0
 40
2.814715181937778
100
AcDbArc
 50
165.9730452712
 51
170.6875447453
  0
ARC
  5
167
330
1F
100
AcDbEntity
  8
0
  6
Continuous
 62
     7
370
    25
100
AcDbCircle
 10
22.5418200349
 20
8.7521270679
 30
0.0
 40
7.57557745556637
100
AcDbArc
 50
170.6875447453
 51
171.9303395784
  0
ARC
  5
168
330
1F
100
AcDbEntity
  8
0
  6
Continuous
 62
     7
370
    25
100
AcDbCircle
 10
15.3146887491
 20
9.776795994
 30
0.0
 40
0.2761683678506648
100
AcDbArc
 50
171.9303395784
 51
186.9360388128
  0
ARC
  5
169
330
1F
100
AcDbEntity
  8
0
  6
Continuous
 62
     7
370
    25
100
AcDbCircle
 10
15.1377766673
 20
9.7552743646
 30
0.0
 40
0.0979520239197181
100
AcDbArc
 50
186.9360388128
 51
218.5867393085
  0
ARC
  5
16A
330
1F
100
AcDbEntity
  8
0
  6
Continuous
 62
     7
370
    25
100
AcDbCircle
 10
15.330496466
 20
9.9090475443
 30
0.0
 40
0.3445024480515158
100
AcDbArc
 50
218.5867393085
 51
231.0010223949
  0
ARC
  5
16B
330
1F
100
AcDbEntity
  8
0
  6
Continuous
 62
     7
370
    25
100
AcDbCircle
 10
15.2642227126
 20
9.8272032885
 30
0.0
 40
0.2391900907148145
100
AcDbArc
 50
231.0010223949
 51
250.1530081962
  0
ARC
  5
16C
330
1F
100
AcDbEntity
  8
0
  6
Continuous
 62
     7
370
    25
100
AcDbCircle
 10
15.3300560873
 20
10.0095930276
 30
0.0
 40
0.4330974143269278
100
AcDbArc
 50
250.1530081962
 51
262.4328329022
  0
ARC
  5
16D
330
1F
100
AcDbEntity
  8
0
  6
Continuous
 62
     7
370
    25
100
AcDbCircle
 10
15.4386151902
 20
10.8267774737
 30
0.0
 40
1.257461106978929
100
AcDbArc
 50
262.4328329022
 51
268.8361612178
  0
ARC
  5
16E
330
1F
100
AcDbEntity
  8
0
  6
Continuous
 62
     7
370
    25
100
AcDbCircle
 10
15.6736540396
 20
22.3961478
 30
0.0
 40
12.82921866614121
100
AcDbArc
 50
268.8361612178
 51
270.0
  0
ARC
  5
16F
330
1F
100
AcDbEntity
  8
0
  6
Continuous
 62
     7
370
    25
100
AcDbCircle
 10
15.6736540396
 20
-9.208338208
 30
0.0
 40
18.77526734182073
100
AcDbArc
 50
88.9599771264
 51
90.0
  0
ARC
  5
170
330
1F
100
AcDbEntity
  8
0
  6
Continuous
 62
     7
370
    25
100
AcDbCircle
 10
16.010798651
 20
9.3632165005
 30
0.0
 40
0.200652654642938
100
AcDbArc
 50
62.4550698237
 51
88.9599771264
  0
ARC
  5
171
330
1F
100
AcDbEntity
  8
0
  6
Continuous
 62
     7
370
    25
100
AcDbCircle
 10
16.0757062734
 20
9.487664516
 30
0.0
 40
0.0602948689256295
100
AcDbArc
 50
356.9166873264
 51
62.4550698239
  0
ARC
  5
172
330
1F
100
AcDbEntity
  8
0
  6
Continuous
 62
     7
370
    25
100
AcDbCircle
 10
15.0920209151
 20
9.5406516777
 30
0.0
 40
1.04540629585807
100
AcDbArc
 50
348.690067526
 51
356.9166873264
  0
LINE
  5
173
330
1F
100
AcDbEntity
  8
0
  6
Continuous
 62
     7
370
    25
100
AcDbLine
 10
16.092519685
 20
9.2125984252
 30
0.0
 11
16.1171261271
 21
9.3356306353
 31
0.0
  0
LINE
  5
174
330
1F
100
AcDbEntity
  8
0
  6
Continuous
 62
     7
370
    25
100
AcDbLine
 10
15.477340934
 20
9.2127455956
 30
0.0
 11
16.092519685
 21
9.2125984252
 31
0.0
  0
ARC
  5
175
330
1F
100
AcDbEntity
  8
0
  6
Continuous
 62
     7
370
    25
100
AcDbCircle
 10
15.4832334274
 20
33.8436201769
 30
0.0
 40
24.6308752860662
100
AcDbArc
 50
269.1681622406
 51
269.9862930163
  0
ARC
  5
176
330
1F
100
AcDbEntity
  8
0
  6
Continuous
 62
     7
370
    25
100
AcDbCircle
 10
15.155113484
 20
11.2447818638
 30
0.0
 40
2.029655057995182
100
AcDbArc
 50
264.0781583057
 51
269.1681622406
  0
ARC
  5
177
330
1F
100
AcDbEntity
  8
0
  6
Continuous
 62
     7
370
    25
100
AcDbCircle
 10
15.0143890642
 20
9.8880781763
 30
0.0
 40
0.6656725588620046
100
AcDbArc
 50
253.9317125366
 51
264.0781583057
  0
ARC
  5
178
330
1F
100
AcDbEntity
  8
0
  6
Continuous
 62
     7
370
    25
100
AcDbCircle
 10
14.9365645861
 20
9.6178877536
 30
0.0
 40
0.384497321803495
100
AcDbArc
 50
238.6279397873
 51
253.9317125366
  0
ARC
  5
179
330
1F
100
AcDbEntity
  8
0
  6
Continuous
 62
     7
370
    25
100
AcDbCircle
 10
14.9466891243
 20
9.6344926123
 30
0.0
 40
0.4039453964143707
100
AcDbArc
 50
216.0666693875
 51
238.6279397873
  0
ARC
  5
17A
330
1F
100
AcDbEntity
  8
0
  6
Continuous
 62
     7
370
    25
100
AcDbCircle
 10
14.9149217087
 20
9.6113557092
 30
0.0
 40
0.3646454602498597
100
AcDbArc
 50
191.706986034
 51
216.0666693875
  0
LINE
  5
17B
330
1F
100
AcDbEntity
  8
0
  6
Continuous
 62
     7
370
    25
100
AcDbLine
 10
13.6232811964
 20
9.2088637977
 30
0.0
 11
14.1085386049
 21
9.2322815483
 31
0.0
  0
LINE
  5
17C
330
1F
100
AcDbEntity
  8
0
  6
Continuous
 62
     7
370
    25
100
AcDbLine
 10
13.6459084777
 20
9.339540207
 30
0.0
 11
13.6232811964
 21
9.2088637977
 31
0.0
  0
ARC
  5
17D
330
1F
100
AcDbEntity
  8
0
  6
Continuous
 62
     7
370
    25
100
AcDbCircle
 10
16.7116356878
 20
8.8086940308
 30
0.0
 40
3.111347134153524
100
AcDbArc
 50
169.9225873622
 51
170.1763527608
  0
ARC
  5
17E
330
1F
100
AcDbEntity
  8
0
  6
Continuous
 62
     7
370
    25
100
AcDbCircle
 10
16.6427098124
 20
8.8209435668
 30
0.0
 40
3.041341224179422
100
AcDbArc
 50
168.1628733897
 51
169.9225873622
  0
ARC
  5
17F
330
1F
100
AcDbEntity
  8
0
  6
Continuous
 62
     7
370
    25
100
AcDbCircle
 10
16.325975592
 20
8.8873270172
 30
0.0
 40
2.717725203461935
100
AcDbArc
 50
167.175056156
 51
168.1628733897
  0
ARC
  5
180
330
1F
100
AcDbEntity
  8
0
  6
Continuous
 62
     7
370
    25
100
AcDbCircle
 10
14.0521011943
 20
9.4049797424
 30
0.0
 40
0.3856726482069668
100
AcDbArc
 50
163.0035643576
 51
167.175056156
  0
ARC
  5
181
330
1F
100
AcDbEntity
  8
0
  6
Continuous
 62
     7
370
    25
100
AcDbCircle
 10
13.6646172772
 20
9.5234191065
 30
0.0
 40
0.0195083841705455
100
AcDbArc
 50
343.0035643535
 51
64.1856200098
  0
ARC
  5
182
330
1F
100
AcDbEntity
  8
0
  6
Continuous
 62
     7
370
    25
100
AcDbCircle
 10
13.5973021204
 20
9.3842601589
 30
0.0
 40
0.1740934514507982
100
AcDbArc
 50
64.1856200097
 51
80.5840594372
  0
ARC
  5
183
330
1F
100
AcDbEntity
  8
0
  6
Continuous
 62
     7
370
    25
100
AcDbCircle
 10
13.5172611015
 20
8.9016049585
 30
0.0
 40
0.6633404312083373
100
AcDbArc
 50
80.5840594372
 51
88.2614560667
  0
ARC
  5
184
330
1F
100
AcDbEntity
  8
0
  6
Continuous
 62
     7
370
    25
100
AcDbCircle
 10
13.3865178475
 20
4.5941282673
 30
0.0
 40
4.972800866568648
100
AcDbArc
 50
88.2614560667
 51
90.0
  0
LINE
  5
185
330
1F
100
AcDbEntity
  8
0
  6
Continuous
 62
     7
370
    25
100
AcDbLine
 10
13.0747159055
 20
9.5669291339
 30
0.0
 11
13.3865178475
 21
9.5669291339
 31
0.0
  0
LINE
  5
186
330
1F
100
AcDbEntity
  8
0
  6
Continuous
 62
     7
370
    25
100
AcDbLine
 10
13.2242261352
 20
9.9015747885
 30
0.0
 11
13.0747159055
 21
9.5669291339
 31
0.0
  0
LINE
  5
187
330
1F
100
AcDbEntity
  8
0
  6
Continuous
 62
     7
370
    25
100
AcDbLine
 10
13.4807362571
 20
9.9131828383
 30
0.0
 11
13.2242261352
 21
9.9015747885
 31
0.0
  0
ARC
  5
188
330
1F
100
AcDbEntity
  8
0
  6
Continuous
 62
     7
370
    25
100
AcDbCircle
 10
13.2206974363
 20
15.6594184794
 30
0.0
 40
5.752116500115461
100
AcDbArc
 50
272.5910821781
 51
274.2602203939
  0
ARC
  5
189
330
1F
100
AcDbEntity
  8
0
  6
Continuous
 62
     7
370
    25
100
AcDbCircle
 10
13.6360587399
 20
10.0835154605
 30
0.0
 40
0.1607642943852197
100
AcDbArc
 50
274.2602203939
 51
296.3174550006
  0
ARC
  5
18A
330
1F
100
AcDbEntity
  8
0
  6
Continuous
 62
     7
370
    25
100
AcDbCircle
 10
13.6793107276
 20
9.996068793
 30
0.0
 40
0.0632058294086934
100
AcDbArc
 50
296.3174550006
 51
339.7145577661
  0
ARC
  5
18B
330
1F
100
AcDbEntity
  8
0
  6
Continuous
 62
     7
370
    25
100
AcDbCircle
 10
13.325266447
 20
10.1269314938
 30
0.0
 40
0.4406609910748266
100
AcDbArc
 50
339.7145577661
 51
350.0368322425
  0
LINE
  5
18C
330
1F
100
AcDbEntity
  8
0
  6
Continuous
 62
     7
370
    25
100
AcDbLine
 10
13.7701116262
 20
10.1123406096
 30
0.0
 11
13.7592819082
 21
10.0506905041
 31
0.0
  0
LINE
  5
18D
330
1F
100
AcDbEntity
  8
0
  6
Continuous
 62
     7
370
    25
100
AcDbLine
 10
13.7846532565
 20
10.1946653311
 30
0.0
 11
13.7701116262
 21
10.1123406096
 31
0.0
  0
LINE
  5
18E
330
1F
100
AcDbEntity
  8
0
  6
Continuous
 62
     7
370
    25
100
AcDbLine
 10
13.8002312659
 20
10.2825706824
 30
0.0
 11
13.7846532565
 21
10.1946653311
 31
0.0
  0
LINE
  5
18F
330
1F
100
AcDbEntity
  8
0
  6
Continuous
 62
     7
370
    25
100
AcDbLine
 10
13.8146219453
 20
10.3634739458
 30
0.0
 11
13.8002312659
 21
10.2825706824
 31
0.0
  0
ARC
  5
190
330
1F
100
AcDbEntity
  8
0
  6
Continuous
 62
     7
370
    25
100
AcDbCircle
 10
12.3054238683
 20
10.6319227671
 30
0.0
 40
1.532887342619885
100
AcDbArc
 50
349.9139944887
 51
352.6423545834
  0
ARC
  5
191
330
1F
100
AcDbEntity
  8
0
  6
Continuous
 62
     7
370
    25
100
AcDbCircle
 10
12.8995136673
 20
10.5552105063
 30
0.0
 40
0.9338652560699808
100
AcDbArc
 50
352.6423545834
 51
356.6271848217
  0
ARC
  5
192
330
1F
100
AcDbEntity
  8
0
  6
Continuous
 62
     7
370
    25
100
AcDbCircle
 10
12.8239696899
 20
10.5596626771
 30
0.0
 40
1.009540313689907
100
AcDbArc
 50
356.6271848217
 51
359.6270915501
  0
ARC
  5
193
330
1F
100
AcDbEntity
  8
0
  6
Continuous
 62
     7
370
    25
100
AcDbCircle
 10
13.8103284523
 20
10.5532428899
 30
0.0
 40
0.0231606596637689
100
AcDbArc
 50
359.6270915501
 51
44.9998653555
  0
ARC
  5
194
330
1F
100
AcDbEntity
  8
0
  6
Continuous
 62
     7
370
    25
100
AcDbCircle
 10
13.7818577196
 20
10.524772291
 30
0.0
 40
0.0634242613413314
100
AcDbArc
 50
44.9998653555
 51
88.1260443744
  0
ARC
  5
195
330
1F
100
AcDbEntity
  8
0
  6
Continuous
 62
     7
370
    25
100
AcDbCircle
 10
13.6677273388
 20
7.0365054607
 30
0.0
 40
3.553557671926148
100
AcDbArc
 50
88.1260443744
 51
90.5265340433
  0
ARC
  5
196
330
1F
100
AcDbEntity
  8
0
  6
Continuous
 62
     7
370
    25
100
AcDbCircle
 10
13.6567218198
 20
8.2340577272
 30
0.0
 40
2.355954836019517
100
AcDbArc
 50
90.5265340433
 51
94.099384737
  0
ARC
  5
197
330
1F
100
AcDbEntity
  8
0
  6
Continuous
 62
     7
370
    25
100
AcDbCircle
 10
13.5087203887
 20
10.299095111
 30
0.0
 40
0.2856206069173897
100
AcDbArc
 50
94.099384737
 51
110.9936723671
  0
ARC
  5
198
330
1F
100
AcDbEntity
  8
0
  6
Continuous
 62
     7
370
    25
100
AcDbCircle
 10
13.4322521266
 20
10.4983675202
 30
0.0
 40
0.0721800106193779
100
AcDbArc
 50
110.9936723671
 51
149.0256094727
  0
ARC
  5
199
330
1F
100
AcDbEntity
  8
0
  6
Continuous
 62
     7
370
    25
100
AcDbCircle
 10
23.6177946873
 20
4.384470728
 30
0.0
 40
11.95178485425805
100
AcDbArc
 50
149.0256094727
 51
150.0398854539
  0
ARC
  5
19A
330
1F
100
AcDbEntity
  8
0
  6
Continuous
 62
     7
370
    25
100
AcDbCircle
 10
19.4394438397
 20
6.7929660244
 30
0.0
 40
7.128978057567511
100
AcDbArc
 50
150.0398854539
 51
152.0613439822
  0
ARC
  5
19B
330
1F
100
AcDbEntity
  8
0
  6
Continuous
 62
     7
370
    25
100
AcDbCircle
 10
24.0045005233
 20
4.3719481603
 30
0.0
 40
12.29628586947551
100
AcDbArc
 50
152.0613439822
 51
153.4049662545
  0
LINE
  5
19C
330
1F
100
AcDbEntity
  8
0
  6
Continuous
 62
     7
370
    25
100
AcDbLine
 10
12.6767274409
 20
9.2125984252
 30
0.0
 11
13.0092472304
 21
9.8767688847
 31
0.0
  0
LINE
  5
19D
330
1F
100
AcDbEntity
  8
0
  6
Continuous
 62
     7
370
    25
100
AcDbLine
 10
12.4013538684
 20
9.2125984252
 30
0.0
 11
12.6767274409
 21
9.2125984252
 31
0.0
  0
ARC
  5
19E
330
1F
100
AcDbEntity
  8
0
  6
Continuous
 62
     7
370
    25
100
AcDbCircle
 10
12.4013538684
 20
13.5884864898
 30
0.0
 40
4.375888064593351
100
AcDbArc
 50
268.6173652801
 51
270.0
  0
ARC
  5
19F
330
1F
100
AcDbEntity
  8
0
  6
Continuous
 62
     7
370
    25
100
AcDbCircle
 10
12.3492718903
 20
11.4306509964
 30
0.0
 40
2.217424131881205
100
AcDbArc
 50
266.3179269281
 51
268.6173652801
  0
ARC
  5
1A0
330
1F
100
AcDbEntity
  8
0
  6
Continuous
 62
     7
370
    25
100
AcDbCircle
 10
12.5068617955
 20
13.8794897127
 30
0.0
 40
4.67132829390215
100
AcDbArc
 50
265.4042511764
 51
266.3179269281
  0
ARC
  5
1A1
330
1F
100
AcDbEntity
  8
0
  6
Continuous
 62
     7
370
    25
100
AcDbCircle
 10
12.1331455752
 20
9.2303188493
 30
0.0
 40
0.0071613232497091
100
AcDbArc
 50
179.999970239
 51
265.4042511764
  0
ARC
  5
1A2
330
1F
100
AcDbEntity
  8
0
  6
Continuous
 62
     7
370
    25
100
AcDbCircle
 10
12.1518573417
 20
9.2303188396
 30
0.0
 40
0.0258730897255929
100
AcDbArc
 50
149.1872928427
 51
179.999970239
  0
LINE
  5
1A3
330
1F
100
AcDbEntity
  8
0
  6
Continuous
 62
     7
370
    25
100
AcDbLine
 10
12.2778382667
 20
9.4920576384
 30
0.0
 11
12.1296363339
 21
9.2435718991
 31
0.0
  0
ARC
  5
1A4
330
1F
100
AcDbEntity
  8
0
  6
Continuous
 62
     7
370
    25
100
AcDbCircle
 10
61.4807229893
 20
-19.7269772677
 30
0.0
 40
57.22478366823681
100
AcDbArc
 50
148.9719863841
 51
149.2961259977
  0
LINE
  5
1A5
330
1F
100
AcDbEntity
  8
0
  6
Continuous
 62
     7
370
    25
100
AcDbLine
 10
12.6421218046
 20
10.0965008025
 30
0.0
 11
12.4439257023
 21
9.7699442277
 31
0.0
  0
LINE
  5
1A6
330
1F
100
AcDbEntity
  8
0
  6
Continuous
 62
     7
370
    25
100
AcDbLine
 10
13.1590716472
 20
10.9449221017
 30
0.0
 11
12.6421218046
 21
10.0965008025
 31
0.0
  0
LINE
  5
1A7
330
1F
100
AcDbEntity
  8
0
  6
Continuous
 62
     7
370
    25
100
AcDbLine
 10
13.7219868626
 20
10.9449221017
 30
0.0
 11
13.1590716472
 21
10.9449221017
 31
0.0
  0
ARC
  5
1A8
330
1F
100
AcDbEntity
  8
0
  6
Continuous
 62
     7
370
    25
100
AcDbCircle
 10
13.7219868626
 20
-1.5817292948
 30
0.0
 40
12.52665139649882
100
AcDbArc
 50
88.134016743
 51
90.0
  0
ARC
  5
1A9
330
1F
100
AcDbEntity
  8
0
  6
Continuous
 62
     7
370
    25
100
AcDbCircle
 10
14.110554633
 20
10.3451845736
 30
0.0
 40
0.5934096183851614
100
AcDbArc
 50
71.0555798238
 51
88.134016743
  0
ARC
  5
1AA
330
1F
100
AcDbEntity
  8
0
  6
Continuous
 62
     7
370
    25
100
AcDbCircle
 10
14.2643866128
 20
10.7933569136
 30
0.0
 40
0.1195713290800103
100
AcDbArc
 50
21.1375872739
 51
71.0555798238
  0
ARC
  5
1AB
330
1F
100
AcDbEntity
  8
0
  6
Continuous
 62
     7
370
    25
100
AcDbCircle
 10
14.1712088733
 20
10.7573323705
 30
0.0
 40
0.2194705725735991
100
AcDbArc
 50
349.3919128317
 51
21.1375872739
  0
LINE
  5
1AC
330
1F
100
AcDbEntity
  8
0
  6
Continuous
 62
     7
370
    25
100
AcDbLine
 10
14.1085386049
 20
9.2322815483
 30
0.0
 11
14.3869285566
 21
10.7169300135
 31
0.0
  0
ARC
  5
1AD
330
1F
100
AcDbEntity
  8
0
  6
Continuous
 62
     7
370
    25
100
AcDbCircle
 10
9.2897638264
 20
5.1947718512
 30
0.0
 40
5.744692061229044
100
AcDbArc
 50
90.0471669182
 51
93.1883851283
  0
ARC
  5
1AE
330
1F
100
AcDbEntity
  8
0
  6
Continuous
 62
     7
370
    25
100
AcDbCircle
 10
9.2898991609
 20
5.0303749828
 30
0.0
 40
5.909088985292629
100
AcDbArc
 50
87.0262156014
 51
90.0471669182
  0
ARC
  5
1AF
330
1F
100
AcDbEntity
  8
0
  6
Continuous
 62
     7
370
    25
100
AcDbCircle
 10
9.5504980688
 20
10.0468138592
 30
0.0
 40
0.8858857451919545
100
AcDbArc
 50
74.7528008167
 51
87.0262156014
  0
ARC
  5
1B0
330
1F
100
AcDbEntity
  8
0
  6
Continuous
 62
     7
370
    25
100
AcDbCircle
 10
9.5928050294
 20
10.2020238917
 30
0.0
 40
0.7250130219320575
100
AcDbArc
 50
57.9265373486
 51
74.7528008167
  0
ARC
  5
1B1
330
1F
100
AcDbEntity
  8
0
  6
Continuous
 62
     7
370
    25
100
AcDbCircle
 10
9.808597929
 20
10.5463814524
 30
0.0
 40
0.318628099526727
100
AcDbArc
 50
26.8243636417
 51
57.9265373486
  0
ARC
  5
1B2
330
1F
100
AcDbEntity
  8
0
  6
Continuous
 62
     7
370
    25
100
AcDbCircle
 10
9.7277241112
 20
10.5054859736
 30
0.0
 40
0.4092537834771555
100
AcDbArc
 50
0.2629291715
 51
26.8243636417
  0
ARC
  5
1B3
330
1F
100
AcDbEntity
  8
0
  6
Continuous
 62
     7
370
    25
100
AcDbCircle
 10
8.6970980985
 20
10.5007564185
 30
0.0
 40
1.439890648110275
100
AcDbArc
 50
349.8486218296
 51
0.2629291715
  0
ARC
  5
1B4
330
1F
100
AcDbEntity
  8
0
  6
Continuous
 62
     7
370
    25
100
AcDbCircle
 10
6.5597389274
 20
10.8834558118
 30
0.0
 40
3.611241161484509
100
AcDbArc
 50
343.1367064583
 51
349.8486218296
  0
ARC
  5
1B5
330
1F
100
AcDbEntity
  8
0
  6
Continuous
 62
     7
370
    25
100
AcDbCircle
 10
8.933700039
 20
10.1638522205
 30
0.0
 40
1.130612070317021
100
AcDbArc
 50
327.190601762
 51
343.1367064583
  0
ARC
  5
1B6
330
1F
100
AcDbEntity
  8
0
  6
Continuous
 62
     7
370
    25
100
AcDbCircle
 10
9.3047456787
 20
9.9246434737
 30
0.0
 40
0.6891421491492556
100
AcDbArc
 50
305.7969389534
 51
327.190601762
  0
ARC
  5
1B7
330
1F
100
AcDbEntity
  8
0
  6
Continuous
 62
     7
370
    25
100
AcDbCircle
 10
9.3115797463
 20
9.9151667381
 30
0.0
 40
0.6774582715405838
100
AcDbArc
 50
284.1334666147
 51
305.7969389534
  0
ARC
  5
1B8
330
1F
100
AcDbEntity
  8
0
  6
Continuous
 62
     7
370
    25
100
AcDbCircle
 10
9.1596671546
 20
10.518464469
 30
0.0
 40
1.299588151491329
100
AcDbArc
 50
273.1084041172
 51
284.1334666147
  0
ARC
  5
1B9
330
1F
100
AcDbEntity
  8
0
  6
Continuous
 62
     7
370
    25
100
AcDbCircle
 10
8.924181063
 20
14.8548116327
 30
0.0
 40
5.642324664758352
100
AcDbArc
 50
269.402478102
 51
273.1084041172
  0
ARC
  5
1BA
330
1F
100
AcDbEntity
  8
0
  6
Continuous
 62
     7
370
    25
100
AcDbCircle
 10
8.9302310488
 20
15.4349177128
 30
0.0
 40
6.222462291970821
100
AcDbArc
 50
266.1103761202
 51
269.402478102
  0
ARC
  5
1BB
330
1F
100
AcDbEntity
  8
0
  6
Continuous
 62
     7
370
    25
100
AcDbCircle
 10
8.5474300387
 20
9.8047644571
 30
0.0
 40
0.5793104868208329
100
AcDbArc
 50
247.3235522082
 51
266.1103761202
  0
ARC
  5
1BC
330
1F
100
AcDbEntity
  8
0
  6
Continuous
 62
     7
370
    25
100
AcDbCircle
 10
8.46165807
 20
9.5994829823
 30
0.0
 40
0.3568305675080642
100
AcDbArc
 50
224.6258224251
 51
247.3235522082
  0
ARC
  5
1BD
330
1F
100
AcDbEntity
  8
0
  6
Continuous
 62
     7
370
    25
100
AcDbCircle
 10
8.4958671782
 20
9.6332481691
 30
0.0
 40
0.4048966774097295
100
AcDbArc
 50
203.9804562682
 51
224.6258224251
  0
ARC
  5
1BE
330
1F
100
AcDbEntity
  8
0
  6
Continuous
 62
     7
370
    25
100
AcDbCircle
 10
8.5830222524
 20
9.6720164917
 30
0.0
 40
0.5002853024708002
100
AcDbArc
 50
185.6533877275
 51
203.9804562682
  0
ARC
  5
1BF
330
1F
100
AcDbEntity
  8
0
  6
Continuous
 62
     7
370
    25
100
AcDbCircle
 10
8.8454080361
 20
9.6979905048
 30
0.0
 40
0.7639535577515331
100
AcDbArc
 50
172.3076139499
 51
185.6533877275
  0
ARC
  5
1C0
330
1F
100
AcDbEntity
  8
0
  6
Continuous
 62
     7
370
    25
100
AcDbCircle
 10
12.0221004731
 20
9.2689146912
 30
0.0
 40
3.96949265329253
100
AcDbArc
 50
165.4900462349
 51
172.3076139499
  0
ARC
  5
1C1
330
1F
100
AcDbEntity
  8
0
  6
Continuous
 62
     7
370
    25
100
AcDbCircle
 10
9.3075824887
 20
9.9714399208
 30
0.0
 40
1.16554015988046
100
AcDbArc
 50
148.5108092828
 51
165.4900462349
  0
ARC
  5
1C2
330
1F
100
AcDbEntity
  8
0
  6
Continuous
 62
     7
370
    25
100
AcDbCircle
 10
8.907164258
 20
10.2167126304
 30
0.0
 40
0.6959728466892365
100
AcDbArc
 50
125.3749206629
 51
148.5108092828
  0
ARC
  5
1C3
330
1F
100
AcDbEntity
  8
0
  6
Continuous
 62
     7
370
    25
100
AcDbCircle
 10
8.9303348873
 20
10.184078145
 30
0.0
 40
0.735996436003213
100
AcDbArc
 50
103.1915330997
 51
125.3749206629
  0
ARC
  5
1C4
330
1F
100
AcDbEntity
  8
0
  6
Continuous
 62
     7
370
    25
100
AcDbCircle
 10
9.0372397588
 20
9.7279837422
 30
0.0
 40
1.20445214984724
100
AcDbArc
 50
93.1883851283
 51
103.1915330997
  0
ARC
  5
1C5
330
1F
100
AcDbEntity
  8
0
  6
Continuous
 62
     7
370
    25
100
AcDbCircle
 10
4.875378239
 20
3.5839957471
 30
0.0
 40
7.354932638901571
100
AcDbArc
 50
89.9969373604
 51
92.4269168691
  0
ARC
  5
1C6
330
1F
100
AcDbEntity
  8
0
  6
Continuous
 62
     7
370
    25
100
AcDbCircle
 10
4.8753813772
 20
3.6427039366
 30
0.0
 40
7.296224449260841
100
AcDbArc
 50
87.5505570975
 51
89.9969373604
  0
ARC
  5
1C7
330
1F
100
AcDbEntity
  8
0
  6
Continuous
 62
     7
370
    25
100
AcDbCircle
 10
5.1444796808
 20
9.933441708
 30
0.0
 40
0.9997337119150856
100
AcDbArc
 50
76.9410231323
 51
87.5505570975
  0
ARC
  5
1C8
330
1F
100
AcDbEntity
  8
0
  6
Continuous
 62
     7
370
    25
100
AcDbCircle
 10
5.2720032847
 20
10.4832246134
 30
0.0
 40
0.4353548386081076
100
AcDbArc
 50
67.7668943287
 51
76.9410231323
  0
ARC
  5
1C9
330
1F
100
AcDbEntity
  8
0
  6
Continuous
 62
     7
370
    25
100
AcDbCircle
 10
5.15224791
 20
10.1902570227
 30
0.0
 40
0.7518534310137844
100
AcDbArc
 50
61.6731691116
 51
67.7668943287
  0
ARC
  5
1CA
330
1F
100
AcDbEntity
  8
0
  6
Continuous
 62
     7
370
    25
100
AcDbCircle
 10
5.160865332
 20
10.2062433734
 30
0.0
 40
0.7336923911181313
100
AcDbArc
 50
55.5347601395
 51
61.6731691116
  0
ARC
  5
1CB
330
1F
100
AcDbEntity
  8
0
  6
Continuous
 62
     7
370
    25
100
AcDbCircle
 10
5.375781389
 20
10.5193549527
 30
0.0
 40
0.3539190736751479
100
AcDbArc
 50
44.9455020668
 51
55.5347601395
  0
ARC
  5
1CC
330
1F
100
AcDbEntity
  8
0
  6
Continuous
 62
     7
370
    25
100
AcDbCircle
 10
5.2840736391
 20
10.427821496
 30
0.0
 40
0.483490232070111
100
AcDbArc
 50
34.8485802848
 51
44.9455020668
  0
ARC
  5
1CD
330
1F
100
AcDbEntity
  8
0
  6
Continuous
 62
     7
370
    25
100
AcDbCircle
 10
5.5111239921
 20
10.5859112768
 30
0.0
 40
0.2068239319655507
100
AcDbArc
 50
15.8044061744
 51
34.8485802848
  0
ARC
  5
1CE
330
1F
100
AcDbEntity
  8
0
  6
Continuous
 62
     7
370
    25
100
AcDbCircle
 10
5.3727209169
 20
10.5467356581
 30
0.0
 40
0.3506646089291814
100
AcDbArc
 50
2.2911217539
 51
15.8044061744
  0
ARC
  5
1CF
330
1F
100
AcDbEntity
  8
0
  6
Continuous
 62
     7
370
    25
100
AcDbCircle
 10
3.1261424617
 20
10.4568524235
 30
0.0
 40
2.599040411844543
100
AcDbArc
 50
359.2061892313
 51
2.2911217539
  0
ARC
  5
1D0
330
1F
100
AcDbEntity
  8
0
  6
Continuous
 62
     7
370
    25
100
AcDbCircle
 10
4.1645960069
 20
10.4424641324
 30
0.0
 40
1.560487192908147
100
AcDbArc
 50
349.7150611301
 51
359.2061892313
  0
ARC
  5
1D1
330
1F
100
AcDbEntity
  8
0
  6
Continuous
 62
     7
370
    25
100
AcDbCircle
 10
3.4068055796
 20
10.5799722266
 30
0.0
 40
2.330652634713075
100
AcDbArc
 50
342.687926325
 51
349.7150611301
  0
ARC
  5
1D2
330
1F
100
AcDbEntity
  8
0
  6
Continuous
 62
     7
370
    25
100
AcDbCircle
 10
3.585785923
 20
10.5241846801
 30
0.0
 40
2.143179400195887
100
AcDbArc
 50
335.5292229575
 51
342.687926325
  0
ARC
  5
1D3
330
1F
100
AcDbEntity
  8
0
  6
Continuous
 62
     7
370
    25
100
AcDbCircle
 10
4.9160886417
 20
9.9187500324
 30
0.0
 40
0.681585600216074
100
AcDbArc
 50
318.7168166592
 51
335.5292229575
  0
ARC
  5
1D4
330
1F
100
AcDbEntity
  8
0
  6
Continuous
 62
     7
370
    25
100
AcDbCircle
 10
4.9883222365
 20
9.855328823
 30
0.0
 40
0.585460983147843
100
AcDbArc
 50
300.0438259626
 51
318.7168166592
  0
ARC
  5
1D5
330
1F
100
AcDbEntity
  8
0
  6
Continuous
 62
     7
370
    25
100
AcDbCircle
 10
4.8858395051
 20
10.0325209763
 30
0.0
 40
0.7901553147526809
100
AcDbArc
 50
285.129741337
 51
300.0438259626
  0
ARC
  5
1D6
330
1F
100
AcDbEntity
  8
0
  6
Continuous
 62
     7
370
    25
100
AcDbCircle
 10
4.7333298006
 20
10.596582755
 30
0.0
 40
1.374471068617725
100
AcDbArc
 50
274.2975534618
 51
285.129741337
  0
ARC
  5
1D7
330
1F
100
AcDbEntity
  8
0
  6
Continuous
 62
     7
370
    25
100
AcDbCircle
 10
4.4797836132
 20
13.9705659531
 30
0.0
 40
4.757967527869476
100
AcDbArc
 50
270.0
 51
274.2975534618
  0
ARC
  5
1D8
330
1F
100
AcDbEntity
  8
0
  6
Continuous
 62
     7
370
    25
100
AcDbCircle
 10
4.4797836132
 20
13.9816679108
 30
0.0
 40
4.769069485561054
100
AcDbArc
 50
264.956516804
 51
270.0
  0
ARC
  5
1D9
330
1F
100
AcDbEntity
  8
0
  6
Continuous
 62
     7
370
    25
100
AcDbCircle
 10
4.103226953
 20
9.7149036419
 30
0.0
 40
0.4857212340215812
100
AcDbArc
 50
237.9560091001
 51
264.956516804
  0
ARC
  5
1DA
330
1F
100
AcDbEntity
  8
0
  6
Continuous
 62
     7
370
    25
100
AcDbCircle
 10
3.9798201907
 20
9.5177485365
 30
0.0
 40
0.2531285329760405
100
AcDbArc
 50
196.157617473
 51
237.9560091001
  0
ARC
  5
1DB
330
1F
100
AcDbEntity
  8
0
  6
Continuous
 62
     7
370
    25
100
AcDbCircle
 10
4.609551933
 20
9.7001974888
 30
0.0
 40
0.9087577631416167
100
AcDbArc
 50
180.0015640085
 51
196.157617473
  0
ARC
  5
1DC
330
1F
100
AcDbEntity
  8
0
  6
Continuous
 62
     7
370
    25
100
AcDbCircle
 10
5.8837076458
 20
9.7002322695
 30
0.0
 40
2.182913476394641
100
AcDbArc
 50
168.2433461691
 51
180.0015640085
  0
ARC
  5
1DD
330
1F
100
AcDbEntity
  8
0
  6
Continuous
 62
     7
370
    25
100
AcDbCircle
 10
4.9790198076
 20
9.8885172211
 30
0.0
 40
1.258840260965348
100
AcDbArc
 50
150.4843161113
 51
168.2433461691
  0
ARC
  5
1DE
330
1F
100
AcDbEntity
  8
0
  6
Continuous
 62
     7
370
    25
100
AcDbCircle
 10
4.6833105341
 20
10.0559283518
 30
0.0
 40
0.9190308126886587
100
AcDbArc
 50
129.2814895306
 51
150.4843161113
  0
ARC
  5
1DF
330
1F
100
AcDbEntity
  8
0
  6
Continuous
 62
     7
370
    25
100
AcDbCircle
 10
4.5476618329
 20
10.221767962
 30
0.0
 40
0.7047801499928632
100
AcDbArc
 50
103.412921712
 51
129.2814895306
  0
ARC
  5
1E0
330
1F
100
AcDbEntity
  8
0
  6
Continuous
 62
     7
370
    25
100
AcDbCircle
 10
4.6040755416
 20
9.9852046667
 30
0.0
 40
0.9479769822615027
100
AcDbArc
 50
92.4269168691
 51
103.412921712
  0
LINE
  5
1E1
330
1F
100
AcDbEntity
  8
0
  6
Continuous
 62
     7
370
    25
100
AcDbLine
 10
2.5805425992
 20
9.0804659337
 30
0.0
 11
2.7201422441
 21
8.8976377953
 31
0.0
  0
ARC
  5
1E2
330
1F
100
AcDbEntity
  8
0
  6
Continuous
 62
     7
370
    25
100
AcDbCircle
 10
3.9759061183
 20
10.1459050584
 30
0.0
 40
1.755619514280812
100
AcDbArc
 50
214.3863638254
 51
217.3637851604
  0
ARC
  5
1E3
330
1F
100
AcDbEntity
  8
0
  6
Continuous
 62
     7
370
    25
100
AcDbCircle
 10
3.5716548901
 20
9.8692497594
 30
0.0
 40
1.265765240066495
100
AcDbArc
 50
210.5819829543
 51
214.3863638254
  0
ARC
  5
1E4
330
1F
100
AcDbEntity
  8
0
  6
Continuous
 62
     7
370
    25
100
AcDbCircle
 10
3.5083940848
 20
9.8318642687
 30
0.0
 40
1.192283239519873
100
AcDbArc
 50
207.2418254648
 51
210.5819829543
  0
ARC
  5
1E5
330
1F
100
AcDbEntity
  8
0
  6
Continuous
 62
     7
370
    25
100
AcDbCircle
 10
2.5077610865
 20
9.3166850287
 30
0.0
 40
0.0668162046492672
100
AcDbArc
 50
179.9995400858
 51
207.2418254648
  0
ARC
  5
1E6
330
1F
100
AcDbEntity
  8
0
  6
Continuous
 62
     7
370
    25
100
AcDbCircle
 10
2.4972636294
 20
9.316685113
 30
0.0
 40
0.0563187475562269
100
AcDbArc
 50
135.1484210691
 51
179.9995400858
  0
ARC
  5
1E7
330
1F
100
AcDbEntity
  8
0
  6
Continuous
 62
     7
370
    25
100
AcDbCircle
 10
2.4752826416
 20
9.3385525141
 30
0.0
 40
0.0253131504391393
100
AcDbArc
 50
54.7424069292
 51
135.1484210691
  0
ARC
  5
1E8
330
1F
100
AcDbEntity
  8
0
  6
Continuous
 62
     7
370
    25
100
AcDbCircle
 10
2.3590565088
 20
9.1741425724
 30
0.0
 40
0.2266564962151205
100
AcDbArc
 50
34.9437733423
 51
54.7424069292
  0
ARC
  5
1E9
330
1F
100
AcDbEntity
  8
0
  6
Continuous
 62
     7
370
    25
100
AcDbCircle
 10
1.1894333576
 20
8.356873004
 30
0.0
 40
1.653522945176368
100
AcDbArc
 50
30.3719707377
 51
34.9437733423
  0
LINE
  5
1EA
330
1F
100
AcDbEntity
  8
0
  6
Continuous
 62
     7
370
    25
100
AcDbLine
 10
2.7198546456
 20
9.0157480315
 30
0.0
 11
2.6160286643
 21
9.1929136495
 31
0.0
  0
LINE
  5
1EB
330
1F
100
AcDbEntity
  8
0
  6
Continuous
 62
     7
370
    25
100
AcDbLine
 10
3.1512777503
 20
9.0157480315
 30
0.0
 11
2.7198546456
 21
9.0157480315
 31
0.0
  0
ARC
  5
1EC
330
1F
100
AcDbEntity
  8
0
  6
Continuous
 62
     7
370
    25
100
AcDbCircle
 10
3.1512777503
 20
-3.6788248146
 30
0.0
 40
12.69457284609203
100
AcDbArc
 50
88.9506227951
 51
90.0
  0
ARC
  5
1ED
330
1F
100
AcDbEntity
  8
0
  6
Continuous
 62
     7
370
    25
100
AcDbCircle
 10
3.3654753926
 20
8.0150146768
 30
0.0
 40
0.9987717755699749
100
AcDbArc
 50
82.2052869941
 51
88.9506227951
  0
ARC
  5
1EE
330
1F
100
AcDbEntity
  8
0
  6
Continuous
 62
     7
370
    25
100
AcDbCircle
 10
3.4693409589
 20
8.7737725063
 30
0.0
 40
0.2329379165764875
100
AcDbArc
 50
66.3569840905
 51
82.2052869941
  0
ARC
  5
1EF
330
1F
100
AcDbEntity
  8
0
  6
Continuous
 62
     7
370
    25
100
AcDbCircle
 10
3.5494205137
 20
8.9566929056
 30
0.0
 40
0.0332566516323513
100
AcDbArc
 50
359.4184453276
 51
66.3569840905
  0
ARC
  5
1F0
330
1F
100
AcDbEntity
  8
0
  6
Continuous
 62
     7
370
    25
100
AcDbCircle
 10
3.5494197215
 20
8.9566929136
 30
0.0
 40
0.0332574438497387
100
AcDbArc
 50
293.6513844715
 51
359.4184453276
  0
ARC
  5
1F1
330
1F
100
AcDbEntity
  8
0
  6
Continuous
 62
     7
370
    25
100
AcDbCircle
 10
3.46937498
 20
9.1394611225
 30
0.0
 40
0.2327853336894952
100
AcDbArc
 50
277.7972128516
 51
293.6513844715
  0
ARC
  5
1F2
330
1F
100
AcDbEntity
  8
0
  6
Continuous
 62
     7
370
    25
100
AcDbCircle
 10
3.3655387738
 20
9.8977582491
 30
0.0
 40
0.99815876539945
100
AcDbArc
 50
271.0497077205
 51
277.7972128516
  0
ARC
  5
1F3
330
1F
100
AcDbEntity
  8
0
  6
Continuous
 62
     7
370
    25
100
AcDbCircle
 10
3.1513966413
 20
21.5848854139
 30
0.0
 40
12.68724761863126
100
AcDbArc
 50
270.0
 51
271.0497077205
  0
LINE
  5
1F4
330
1F
100
AcDbEntity
  8
0
  6
Continuous
 62
     7
370
    25
100
AcDbLine
 10
2.7201422441
 20
8.8976377953
 30
0.0
 11
3.1513966413
 21
8.8976377953
 31
0.0
  0
ARC
  5
1F5
330
1F
100
AcDbEntity
  8
0
  6
Continuous
 62
     7
370
    25
100
AcDbCircle
 10
-2.0094388779
 20
12.5958791714
 30
0.0
 40
13.15819873799263
100
AcDbArc
 50
347.3617427502
 51
348.4768145718
  0
ARC
  5
1F6
330
1F
100
AcDbEntity
  8
0
  6
Continuous
 62
     7
370
    25
100
AcDbCircle
 10
2.9827530365
 20
11.4764916382
 30
0.0
 40
8.042047004484015
100
AcDbArc
 50
345.7499568828
 51
347.3617427502
  0
ARC
  5
1F7
330
1F
100
AcDbEntity
  8
0
  6
Continuous
 62
     7
370
    25
100
AcDbCircle
 10
-0.9061486202
 20
12.4641499547
 30
0.0
 40
12.05440604197008
100
AcDbArc
 50
344.8453969018
 51
345.7499568828
  0
ARC
  5
1F8
330
1F
100
AcDbEntity
  8
0
  6
Continuous
 62
     7
370
    25
100
AcDbCircle
 10
10.6156654029
 20
9.3435431696
 30
0.0
 40
0.1174723867625611
100
AcDbArc
 50
320.3102767133
 51
344.8453969018
  0
ARC
  5
1F9
330
1F
100
AcDbEntity
  8
0
  6
Continuous
 62
     7
370
    25
100
AcDbCircle
 10
10.6045185388
 20
9.3527940976
 30
0.0
 40
0.131957974363041
100
AcDbArc
 50
276.9560702395
 51
320.3102767133
  0
ARC
  5
1FA
330
1F
100
AcDbEntity
  8
0
  6
Continuous
 62
     7
370
    25
100
AcDbCircle
 10
10.4132615693
 20
10.9203925066
 30
0.0
 40
1.711180567964829
100
AcDbArc
 50
270.3013079293
 51
276.9560702395
  0
ARC
  5
1FB
330
1F
100
AcDbEntity
  8
0
  6
Continuous
 62
     7
370
    25
100
AcDbCircle
 10
10.4142205516
 20
10.7380370801
 30
0.0
 40
1.528822619899115
100
AcDbArc
 50
263.3409230782
 51
270.3013079293
  0
ARC
  5
1FC
330
1F
100
AcDbEntity
  8
0
  6
Continuous
 62
     7
370
    25
100
AcDbCircle
 10
10.2409151376
 20
9.2536092146
 30
0.0
 40
0.0343123809131243
100
AcDbArc
 50
159.006405865
 51
263.3409230782
  0
ARC
  5
1FD
330
1F
100
AcDbEntity
  8
0
  6
Continuous
 62
     7
370
    25
100
AcDbCircle
 10
9.9437559995
 20
9.367639803
 30
0.0
 40
0.2839744841066902
100
AcDbArc
 50
339.006405865
 51
347.6640053884
  0
LINE
  5
1FE
330
1F
100
AcDbEntity
  8
0
  6
Continuous
 62
     7
370
    25
100
AcDbLine
 10
10.2728645669
 20
9.543331378
 30
0.0
 11
10.2211739531
 21
9.3069703163
 31
0.0
  0
ARC
  5
1FF
330
1F
100
AcDbEntity
  8
0
  6
Continuous
 62
     7
370
    25
100
AcDbCircle
 10
-33.7595027029
 20
19.1182970051
 30
0.0
 40
45.06139516420433
100
AcDbArc
 50
347.7318568123
 51
348.0900697342
  0
LINE
  5
200
330
1F
100
AcDbEntity
  8
0
  6
Continuous
 62
     7
370
    25
100
AcDbLine
 10
10.397975
 20
10.1354903937
 30
0.0
 11
10.3318662598
 21
9.8188068504
 31
0.0
  0
LINE
  5
201
330
1F
100
AcDbEntity
  8
0
  6
Continuous
 62
     7
370
    25
100
AcDbLine
 10
10.5666148425
 20
10.9517751181
 30
0.0
 11
10.397975
 21
10.1354903937
 31
0.0
  0
LINE
  5
202
330
1F
100
AcDbEntity
  8
0
  6
Continuous
 62
     7
370
    25
100
AcDbLine
 10
11.3364596465
 20
10.9379315281
 30
0.0
 11
10.5666148425
 21
10.9517751181
 31
0.0
  0
ARC
  5
203
330
1F
100
AcDbEntity
  8
0
  6
Continuous
 62
     7
370
    25
100
AcDbCircle
 10
11.0423255915
 20
-5.418921947
 30
0.0
 40
16.3594978665944
100
AcDbArc
 50
86.6416197699
 51
88.969800406
  0
ARC
  5
204
330
1F
100
AcDbEntity
  8
0
  6
Continuous
 62
     7
370
    25
100
AcDbCircle
 10
11.9618337708
 20
10.2504142145
 30
0.0
 40
0.6632055962865481
100
AcDbArc
 50
62.8479811095
 51
86.6416197699
  0
ARC
  5
205
330
1F
100
AcDbEntity
  8
0
  6
Continuous
 62
     7
370
    25
100
AcDbCircle
 10
12.1651819533
 20
10.6469033372
 30
0.0
 40
0.2176114898137269
100
AcDbArc
 50
11.0213925509
 51
62.8479811095
  0
ARC
  5
206
330
1F
100
AcDbEntity
  8
0
  6
Continuous
 62
     7
370
    25
100
AcDbCircle
 10
11.3781341205
 20
10.4936117505
 30
0.0
 40
1.019448506652744
100
AcDbArc
 50
354.5107674202
 51
11.0213925509
  0
ARC
  5
207
330
1F
100
AcDbEntity
  8
0
  6
Continuous
 62
     7
370
    25
100
AcDbCircle
 10
11.2905300208
 20
10.5020304504
 30
0.0
 40
1.107456192619276
100
AcDbArc
 50
344.1440258108
 51
354.5107674202
  0
ARC
  5
208
330
1F
100
AcDbEntity
  8
0
  6
Continuous
 62
     7
370
    25
100
AcDbCircle
 10
11.6969949305
 20
10.3865834703
 30
0.0
 40
0.6849142089300024
100
AcDbArc
 50
329.2845093592
 51
344.1440258108
  0
ARC
  5
209
330
1F
100
AcDbEntity
  8
0
  6
Continuous
 62
     7
370
    25
100
AcDbCircle
 10
11.7847078044
 20
10.3344712971
 30
0.0
 40
0.5828885903215928
100
AcDbArc
 50
313.0162022117
 51
329.2845093592
  0
ARC
  5
20A
330
1F
100
AcDbEntity
  8
0
  6
Continuous
 62
     7
370
    25
100
AcDbCircle
 10
11.7743827281
 20
10.3455373104
 30
0.0
 40
0.5980234459217579
100
AcDbArc
 50
297.0628430964
 51
313.0162022117
  0
ARC
  5
20B
330
1F
100
AcDbEntity
  8
0
  6
Continuous
 62
     7
370
    25
100
AcDbCircle
 10
11.6693198499
 20
10.551176918
 30
0.0
 40
0.8289473654227583
100
AcDbArc
 50
288.9004870616
 51
297.0628430964
  0
ARC
  5
20C
330
1F
100
AcDbEntity
  8
0
  6
Continuous
 62
     7
370
    25
100
AcDbCircle
 10
11.7365484871
 20
10.3548235839
 30
0.0
 40
0.6214038242232743
100
AcDbArc
 50
278.769755167
 51
288.9004870616
  0
ARC
  5
20D
330
1F
100
AcDbEntity
  8
0
  6
Continuous
 62
     7
370
    25
100
AcDbCircle
 10
11.6574742431
 20
10.8674016785
 30
0.0
 40
1.140045356588004
100
AcDbArc
 50
271.822907323
 51
278.769755167
  0
ARC
  5
20E
330
1F
100
AcDbEntity
  8
0
  6
Continuous
 62
     7
370
    25
100
AcDbCircle
 10
11.4722462871
 20
16.6873349543
 30
0.0
 40
6.962925462731849
100
AcDbArc
 50
269.9992294054
 51
271.822907323
  0
ARC
  5
20F
330
1F
100
AcDbEntity
  8
0
  6
Continuous
 62
     7
370
    25
100
AcDbCircle
 10
11.4722546658
 20
17.3103153994
 30
0.0
 40
7.585905907885792
100
AcDbArc
 50
267.836068493
 51
269.9992294054
  0
ARC
  5
210
330
1F
100
AcDbEntity
  8
0
  6
Continuous
 62
     7
370
    25
100
AcDbCircle
 10
11.1949314449
 20
9.9709451663
 30
0.0
 40
0.2412981180162421
100
AcDbArc
 50
241.6809463533
 51
267.836068493
  0
ARC
  5
211
330
1F
100
AcDbEntity
  8
0
  6
Continuous
 62
     7
370
    25
100
AcDbCircle
 10
11.1148386617
 20
9.8223151559
 30
0.0
 40
0.0724617063690062
100
AcDbArc
 50
180.4238862571
 51
241.6809463533
  0
ARC
  5
212
330
1F
100
AcDbEntity
  8
0
  6
Continuous
 62
     7
370
    25
100
AcDbCircle
 10
11.5175701484
 20
9.8252947027
 30
0.0
 40
0.4752042147398785
100
AcDbArc
 50
165.1036253159
 51
180.4238862571
  0
ARC
  5
213
330
1F
100
AcDbEntity
  8
0
  6
Continuous
 62
     7
370
    25
100
AcDbCircle
 10
11.2852244772
 20
9.8871013638
 30
0.0
 40
0.2347783961444566
100
AcDbArc
 50
147.4552425218
 51
165.1036253159
  0
ARC
  5
214
330
1F
100
AcDbEntity
  8
0
  6
Continuous
 62
     7
370
    25
100
AcDbCircle
 10
11.1569241401
 20
9.9689786636
 30
0.0
 40
0.0825783017207918
100
AcDbArc
 50
108.9968295335
 51
147.4552425218
  0
ARC
  5
215
330
1F
100
AcDbEntity
  8
0
  6
Continuous
 62
     7
370
    25
100
AcDbCircle
 10
11.2355316814
 20
9.7406447429
 30
0.0
 40
0.3240643777152375
100
AcDbArc
 50
94.2806098544
 51
108.9968295335
  0
ARC
  5
216
330
1F
100
AcDbEntity
  8
0
  6
Continuous
 62
     7
370
    25
100
AcDbCircle
 10
12.1202516268
 20
-2.0792529271
 30
0.0
 40
12.17702646792078
100
AcDbArc
 50
93.2039245342
 51
94.2806098544
  0
ARC
  5
217
330
1F
100
AcDbEntity
  8
0
  6
Continuous
 62
     7
370
    25
100
AcDbCircle
 10
11.1790553043
 20
14.7346127933
 30
0.0
 40
4.66316150550592
100
AcDbArc
 50
273.2039245342
 51
274.9060539656
  0
ARC
  5
218
330
1F
100
AcDbEntity
  8
0
  6
Continuous
 62
     7
370
    25
100
AcDbCircle
 10
11.3139153716
 20
13.1634888189
 30
0.0
 40
3.086260183061783
100
AcDbArc
 50
274.9060539656
 51
277.2251492097
  0
ARC
  5
219
330
1F
100
AcDbEntity
  8
0
  6
Continuous
 62
     7
370
    25
100
AcDbCircle
 10
11.2544322898
 20
13.6326895294
 30
0.0
 40
3.559216358355131
100
AcDbArc
 50
277.2251492097
 51
278.8967270576
  0
ARC
  5
21A
330
1F
100
AcDbEntity
  8
0
  6
Continuous
 62
     7
370
    25
100
AcDbCircle
 10
11.7912842676
 20
10.2031427837
 30
0.0
 40
0.08790523327855
100
AcDbArc
 50
278.8967270576
 51
302.947386639
  0
ARC
  5
21B
330
1F
100
AcDbEntity
  8
0
  6
Continuous
 62
     7
370
    25
100
AcDbCircle
 10
11.7661619582
 20
10.2419056285
 30
0.0
 40
0.1340971002520739
100
AcDbArc
 50
302.947386639
 51
337.4505102536
  0
ARC
  5
21C
330
1F
100
AcDbEntity
  8
0
  6
Continuous
 62
     7
370
    25
100
AcDbCircle
 10
11.2173903199
 20
10.4697698157
 30
0.0
 40
0.7282960557864748
100
AcDbArc
 50
337.4505102536
 51
347.2998616358
  0
ARC
  5
21D
330
1F
100
AcDbEntity
  8
0
  6
Continuous
 62
     7
370
    25
100
AcDbCircle
 10
11.21630676
 20
10.4700140093
 30
0.0
 40
0.7294067909756133
100
AcDbArc
 50
347.2998616358
 51
357.2400748947
  0
ARC
  5
21E
330
1F
100
AcDbEntity
  8
0
  6
Continuous
 62
     7
370
    25
100
AcDbCircle
 10
11.7872207623
 20
10.4424919172
 30
0.0
 40
0.1578297938394062
100
AcDbArc
 50
357.2400748947
 51
28.15808981
  0
ARC
  5
21F
330
1F
100
AcDbEntity
  8
0
  6
Continuous
 62
     7
370
    25
100
AcDbCircle
 10
11.7887850978
 20
10.4433292338
 30
0.0
 40
0.1560554645603389
100
AcDbArc
 50
28.15808981
 51
59.2065336242
  0
ARC
  5
220
330
1F
100
AcDbEntity
  8
0
  6
Continuous
 62
     7
370
    25
100
AcDbCircle
 10
11.7271364828
 20
10.3398859022
 30
0.0
 40
0.2764758722832794
100
AcDbArc
 50
59.2065336242
 51
79.4463913713
  0
ARC
  5
221
330
1F
100
AcDbEntity
  8
0
  6
Continuous
 62
     7
370
    25
100
AcDbCircle
 10
11.6257102554
 20
9.7954821639
 30
0.0
 40
0.8302472238505452
100
AcDbArc
 50
79.4463913713
 51
89.7895484918
  0
ARC
  5
222
330
1F
100
AcDbEntity
  8
0
  6
Continuous
 62
     7
370
    25
100
AcDbCircle
 10
11.6023149674
 20
3.4261040266
 30
0.0
 40
7.199668327463119
100
AcDbArc
 50
89.7895484918
 51
91.900070605
  0
LINE
  5
223
330
1F
100
AcDbEntity
  8
0
  6
Continuous
 62
     7
370
    25
100
AcDbLine
 10
11.0146124427
 20
10.6102362631
 30
0.0
 11
11.3635998125
 21
10.6218137971
 31
0.0
  0
LINE
  5
224
330
1F
100
AcDbEntity
  8
0
  6
Continuous
 62
     7
370
    25
100
AcDbLine
 10
10.8835425188
 20
9.9673387529
 30
0.0
 11
11.0146124427
 21
10.6102362631
 31
0.0
  0
ARC
  5
225
330
1F
100
AcDbEntity
  8
0
  6
Continuous
 62
     7
370
    25
100
AcDbCircle
 10
6.3319254747
 20
10.5329042398
 30
0.0
 40
0.4027364693800175
100
AcDbArc
 50
95.6244442394
 51
108.7251585667
  0
ARC
  5
226
330
1F
100
AcDbEntity
  8
0
  6
Continuous
 62
     7
370
    25
100
AcDbCircle
 10
6.481377753
 20
9.0153388878
 30
0.0
 40
1.927643214401007
100
AcDbArc
 50
90.5241158193
 51
95.6244442394
  0
ARC
  5
227
330
1F
100
AcDbEntity
  8
0
  6
Continuous
 62
     7
370
    25
100
AcDbCircle
 10
6.8492180414
 20
-31.1954455073
 30
0.0
 40
42.14011003931479
100
AcDbArc
 50
89.9814260427
 51
90.5241158193
  0
ARC
  5
228
330
1F
100
AcDbEntity
  8
0
  6
Continuous
 62
     7
370
    25
100
AcDbCircle
 10
6.8574952959
 20
-5.6622904166
 30
0.0
 40
16.60695360701828
100
AcDbArc
 50
87.8876321004
 51
89.9814260427
  0
ARC
  5
229
330
1F
100
AcDbEntity
  8
0
  6
Continuous
 62
     7
370
    25
100
AcDbCircle
 10
7.4365746646
 20
10.0375173203
 30
0.0
 40
0.896469976928039
100
AcDbArc
 50
70.3559166791
 51
87.8876321004
  0
ARC
  5
22A
330
1F
100
AcDbEntity
  8
0
  6
Continuous
 62
     7
370
    25
100
AcDbCircle
 10
7.6605992179
 20
10.6651229095
 30
0.0
 40
0.230079868949647
100
AcDbArc
 50
26.7665955329
 51
70.3559166791
  0
ARC
  5
22B
330
1F
100
AcDbEntity
  8
0
  6
Continuous
 62
     7
370
    25
100
AcDbCircle
 10
7.4713930787
 20
10.5696864283
 30
0.0
 40
0.4419927874408978
100
AcDbArc
 50
0.0002856505
 51
26.7665955329
  0
ARC
  5
22C
330
1F
100
AcDbEntity
  8
0
  6
Continuous
 62
     7
370
    25
100
AcDbCircle
 10
7.4136350772
 20
10.5696861403
 30
0.0
 40
0.4997507889431734
100
AcDbArc
 50
344.8027030525
 51
0.0002856505
  0
ARC
  5
22D
330
1F
100
AcDbEntity
  8
0
  6
Continuous
 62
     7
370
    25
100
AcDbCircle
 10
7.3873542543
 20
10.5768251505
 30
0.0
 40
0.526983987811715
100
AcDbArc
 50
330.1955809108
 51
344.8027030525
  0
ARC
  5
22E
330
1F
100
AcDbEntity
  8
0
  6
Continuous
 62
     7
370
    25
100
AcDbCircle
 10
7.4309043293
 20
10.5518793266
 30
0.0
 40
0.4767953121849039
100
AcDbArc
 50
314.8328251722
 51
330.1955809108
  0
ARC
  5
22F
330
1F
100
AcDbEntity
  8
0
  6
Continuous
 62
     7
370
    25
100
AcDbCircle
 10
7.5449531696
 20
10.4371630046
 30
0.0
 40
0.3150332260103192
100
AcDbArc
 50
293.8762540876
 51
314.8328251722
  0
LINE
  5
230
330
1F
100
AcDbEntity
  8
0
  6
Continuous
 62
     7
370
    25
100
AcDbLine
 10
7.5673662993
 20
10.1025677081
 30
0.0
 11
7.6724668513
 21
10.1490897596
 31
0.0
  0
LINE
  5
231
330
1F
100
AcDbEntity
  8
0
  6
Continuous
 62
     7
370
    25
100
AcDbLine
 10
7.6862398534
 20
9.9915231652
 30
0.0
 11
7.5673662993
 21
10.1025677081
 31
0.0
  0
ARC
  5
232
330
1F
100
AcDbEntity
  8
0
  6
Continuous
 62
     7
370
    25
100
AcDbCircle
 10
7.0590079296
 20
9.3200692952
 30
0.0
 40
0.9188417632003116
100
AcDbArc
 50
41.0074916753
 51
46.9502425406
  0
ARC
  5
233
330
1F
100
AcDbEntity
  8
0
  6
Continuous
 62
     7
370
    25
100
AcDbCircle
 10
7.637533715
 20
9.8231069095
 30
0.0
 40
0.1522004351895972
100
AcDbArc
 50
18.5508072637
 51
41.0074916753
  0
ARC
  5
234
330
1F
100
AcDbEntity
  8
0
  6
Continuous
 62
     7
370
    25
100
AcDbCircle
 10
7.6316396105
 20
9.8211289562
 30
0.0
 40
0.1584175702106237
100
AcDbArc
 50
356.6930751485
 51
18.5508072637
  0
ARC
  5
235
330
1F
100
AcDbEntity
  8
0
  6
Continuous
 62
     7
370
    25
100
AcDbCircle
 10
6.7558892012
 20
9.8717306042
 30
0.0
 40
1.035628665745491
100
AcDbArc
 50
351.2316099928
 51
356.6930751485
  0
ARC
  5
236
330
1F
100
AcDbEntity
  8
0
  6
Continuous
 62
     7
370
    25
100
AcDbCircle
 10
7.0244167089
 20
9.8303120334
 30
0.0
 40
0.7639256654302308
100
AcDbArc
 50
340.1707180251
 51
351.2316099928
  0
ARC
  5
237
330
1F
100
AcDbEntity
  8
0
  6
Continuous
 62
     7
370
    25
100
AcDbCircle
 10
7.2686778141
 20
9.7422315842
 30
0.0
 40
0.5042688668346754
100
AcDbArc
 50
325.0702185578
 51
340.1707180251
  0
ARC
  5
238
330
1F
100
AcDbEntity
  8
0
  6
Continuous
 62
     7
370
    25
100
AcDbCircle
 10
7.2880117789
 20
9.7287290779
 30
0.0
 40
0.4806866729183941
100
AcDbArc
 50
309.5555772565
 51
325.0702185578
  0
ARC
  5
239
330
1F
100
AcDbEntity
  8
0
  6
Continuous
 62
     7
370
    25
100
AcDbCircle
 10
7.1873612913
 20
9.8505868598
 30
0.0
 40
0.6387367904535868
100
AcDbArc
 50
297.0176445693
 51
309.5555772565
  0
ARC
  5
23A
330
1F
100
AcDbEntity
  8
0
  6
Continuous
 62
     7
370
    25
100
AcDbCircle
 10
7.2926365733
 20
9.6441296876
 30
0.0
 40
0.4069881141774944
100
AcDbArc
 50
281.4317005205
 51
297.0176445693
  0
ARC
  5
23B
330
1F
100
AcDbEntity
  8
0
  6
Continuous
 62
     7
370
    25
100
AcDbCircle
 10
7.1382330291
 20
10.4077052913
 30
0.0
 40
1.186018381262581
100
AcDbArc
 50
274.4125035697
 51
281.4317005205
  0
ARC
  5
23C
330
1F
100
AcDbEntity
  8
0
  6
Continuous
 62
     7
370
    25
100
AcDbCircle
 10
6.9626694508
 20
12.6828666467
 30
0.0
 40
3.467943393826446
100
AcDbArc
 50
270.6809929281
 51
274.4125035697
  0
ARC
  5
23D
330
1F
100
AcDbEntity
  8
0
  6
Continuous
 62
     7
370
    25
100
AcDbCircle
 10
6.5817458707
 20
44.7306087243
 30
0.0
 40
35.51794924486561
100
AcDbArc
 50
270.0050778963
 51
270.6809929281
  0
ARC
  5
23E
330
1F
100
AcDbEntity
  8
0
  6
Continuous
 62
     7
370
    25
100
AcDbCircle
 10
6.5823693278
 20
37.6959120571
 30
0.0
 40
28.48325254994934
100
AcDbArc
 50
269.2824381976
 51
270.0050778963
  0
ARC
  5
23F
330
1F
100
AcDbEntity
  8
0
  6
Continuous
 62
     7
370
    25
100
AcDbCircle
 10
6.2852370261
 20
13.9717719129
 30
0.0
 40
4.757251766305902
100
AcDbArc
 50
266.5694640147
 51
269.2824381976
  0
ARC
  5
240
330
1F
100
AcDbEntity
  8
0
  6
Continuous
 62
     7
370
    25
100
AcDbCircle
 10
6.240353569
 20
13.2230379216
 30
0.0
 40
4.007173694117965
100
AcDbArc
 50
264.374590743
 51
266.5694640147
  0
ARC
  5
241
330
1F
100
AcDbEntity
  8
0
  6
Continuous
 62
     7
370
    25
100
AcDbCircle
 10
5.8498118742
 20
9.2580918901
 30
0.0
 40
0.0230401812838129
100
AcDbArc
 50
179.9999952475
 51
264.374590743
  0
ARC
  5
242
330
1F
100
AcDbEntity
  8
0
  6
Continuous
 62
     7
370
    25
100
AcDbCircle
 10
6.1710288147
 20
9.2580918635
 30
0.0
 40
0.3442571217790021
100
AcDbArc
 50
168.2021708511
 51
179.9999952475
  0
LINE
  5
243
330
1F
100
AcDbEntity
  8
0
  6
Continuous
 62
     7
370
    25
100
AcDbLine
 10
5.9834983465
 20
10.0440109843
 30
0.0
 11
5.8340440778
 21
9.3284783179
 31
0.0
  0
LINE
  5
244
330
1F
100
AcDbEntity
  8
0
  6
Continuous
 62
     7
370
    25
100
AcDbLine
 10
6.1273533465
 20
10.727414252
 30
0.0
 11
5.9834983465
 21
10.0440109843
 31
0.0
  0
ARC
  5
245
330
1F
100
AcDbEntity
  8
0
  6
Continuous
 62
     7
370
    25
100
AcDbCircle
 10
7.8764177689
 20
10.3572762167
 30
0.0
 40
1.787799910230791
100
AcDbArc
 50
163.13380551
 51
168.0513191292
  0
ARC
  5
246
330
1F
100
AcDbEntity
  8
0
  6
Continuous
 62
     7
370
    25
100
AcDbCircle
 10
6.2213711152
 20
10.8590513816
 30
0.0
 40
0.0583613476202801
100
AcDbArc
 50
108.7251585667
 51
163.13380551
  0
CIRCLE
  5
247
330
1F
100
AcDbEntity
  8
0
  6
Continuous
 62
     7
370
    25
100
AcDbCircle
 10
18.875
 20
10.0
 30
0.0
 40
0.1660000000000004
  0
CIRCLE
  5
248
330
1F
100
AcDbEntity
  8
0
  6
Continuous
 62
     7
370
    25
100
AcDbCircle
 10
0.375
 20
11.5
 30
0.0
 40
0.1660000000000004
  0
CIRCLE
  5
249
330
1F
100
AcDbEntity
  8
0
  6
Continuous
 62
     7
370
    25
100
AcDbCircle
 10
0.375
 20
10.0
 30
0.0
 40
0.1660000000000004
  0
LINE
  5
24A
330
1F
100
AcDbEntity
  8
0
  6
Continuous
 62
     7
370
    25
100
AcDbLine
 10
19.625
 20
7.5
 30
0.0
 11
19.625
 21
12.5
 31
0.0
  0
LINE
  5
24B
330
1F
100
AcDbEntity
  8
0
  6
Continuous
 62
     7
370
    25
100
AcDbLine
 10
19.625
 20
12.5
 30
0.0
 11
-0.375
 21
12.5
 31
0.0
  0
LINE
  5
24C
330
1F
100
AcDbEntity
  8
0
  6
Continuous
 62
     7
370
    25
100
AcDbLine
 10
-0.375
 20
12.5
 30
0.0
 11
-0.375
 21
7.5
 31
0.0
  0
LINE
  5
24D
330
1F
100
AcDbEntity
  8
0
  6
Continuous
 62
     7
370
    25
100
AcDbLine
 10
-0.375
 20
7.5
 30
0.0
 11
19.625
 21
7.5
 31
0.0
  0
CIRCLE
  5
24E
330
1F
100
AcDbEntity
  8
0
  6
Continuous
 62
     7
370
    25
100
AcDbCircle
 10
0.375
 20
8.5
 30
0.0
 40
0.1660000000000004
  0
CIRCLE
  5
24F
330
1F
100
AcDbEntity
  8
0
  6
Continuous
 62
     7
370
    25
100
AcDbCircle
 10
18.875
 20
8.5
 30
0.0
 40
0.1660000000000004
  0
CIRCLE
  5
250
330
1F
100
AcDbEntity
  8
0
  6
Continuous
 62
     7
370
    25
100
AcDbCircle
 10
18.875
 20
11.5
 30
0.0
 40
0.1660000000000004
  0
MTEXT
  5
252
330
1F
100
AcDbEntity
  8
0
  6
Continuous
 62
     7
100
AcDbMText
 10
-0.375
 20
7.4598595909
 30
0.0
 40
0.1903
 41
0.0
 71
     1
 72
     1
  1
SOLIDWORKS Educational Product.
  7
SLDTEXTSTYLE0
 73
     1
 44
1.0
  0
MTEXT
  5
253
330
1F
100
AcDbEntity
  8
0
  6
Continuous
 62
     7
100
AcDbMText
 10
-0.375
 20
7.1744095909
 30
0.0
 40
0.1903
 41
0.0
 71
     1
 72
     1
  1
For Instructional Use Only.
  7
SLDTEXTSTYLE0
 73
     1
 44
1.0
  0
ENDSEC
  0
SECTION
  2
OBJECTS
  0
DICTIONARY
  5
C
330
0
100
AcDbDictionary
281
     1
  3
ACAD_GROUP
350
D
  3
ACAD_LAYOUT
350
1A
  3
ACAD_MLINESTYLE
350
17
  3
ACAD_PLOTSETTINGS
350
19
  3
ACAD_PLOTSTYLENAME
350
E
  3
ACAD_SCALELIST
350
47
  3
DWGPROPS
350
254
  0
DICTIONARY
  5
D
102
{ACAD_REACTORS
330
C
102
}
330
C
100
AcDbDictionary
281
     1
  0
DICTIONARY
  5
1A
102
{ACAD_REACTORS
330
C
102
}
330
C
100
AcDbDictionary
281
     1
  3
Layout1
350
1E
  3
Layout2
350
26
  3
Model
350
22
  0
DICTIONARY
  5
17
102
{ACAD_REACTORS
330
C
102
}
330
C
100
AcDbDictionary
281
     1
  3
Standard
350
18
  0
DICTIONARY
  5
19
102
{ACAD_REACTORS
330
C
102
}
330
C
100
AcDbDictionary
281
     1
  0
ACDBDICTIONARYWDFLT
  5
E
102
{ACAD_REACTORS
330
C
102
}
330
C
100
AcDbDictionary
281
     1
  3
Normal
350
F
100
AcDbDictionaryWithDefault
340
F
  0
DICTIONARY
  5
47
102
{ACAD_REACTORS
330
C
102
}
330
C
100
AcDbDictionary
281
     1
  3
A0
350
48
  3
A1
350
49
  3
A2
350
4A
  3
A3
350
4B
  3
A4
350
4C
  3
A5
350
4D
  3
A6
350
4E
  3
A7
350
4F
  3
A8
350
50
  3
A9
350
51
  3
B1
350
52
  3
B2
350
53
  3
B3
350
54
  3
B4
350
55
  3
B5
350
56
  3
B6
350
57
  3
B7
350
58
  0
XRECORD
  5
254
102
{ACAD_REACTORS
330
C
102
}
330
C
100
AcDbXrecord
280
     1
  1
DWGPROPS COOKIE
  2

  3

  4

  6

  7

  8
colli
  9

300
=
301
=
302
=
303
=
304
=
305
=
306
=
307
=
308
=
309
=
 40
0.0
 41
2461027.704759167
 42
2461027.704833067
  1

 90
        0
  0
LAYOUT
  5
1E
102
{ACAD_REACTORS
330
1A
102
}
330
1A
100
AcDbPlotSettings
  1

  2
none_device
  4

  6

 40
0.0
 41
0.0
 42
0.0
 43
0.0
 44
0.0
 45
0.0
 46
0.0
 47
0.0
 48
0.0
 49
0.0
140
0.0
141
0.0
142
1.0
143
1.0
 70
   688
 72
     0
 73
     0
 74
     5
  7

 75
    16
147
1.0
148
0.0
149
0.0
100
AcDbLayout
  1
Layout1
 70
     1
 71
     1
 10
0.0
 20
0.0
 11
12.0
 21
9.0
 12
0.0
 22
0.0
 32
0.0
 14
1.0000000000E+20
 24
1.0000000000E+20
 34
1.0000000000E+20
 15
-1.0000000000E+20
 25
-1.0000000000E+20
 35
-1.0000000000E+20
146
0.0
 13
0.0
 23
0.0
 33
0.0
 16
1.0
 26
0.0
 36
0.0
 17
0.0
 27
1.0
 37
0.0
 76
     0
330
1B
  0
LAYOUT
  5
26
102
{ACAD_REACTORS
330
1A
102
}
330
1A
100
AcDbPlotSettings
  1

  2
none_device
  4

  6

 40
0.0
 41
0.0
 42
0.0
 43
0.0
 44
0.0
 45
0.0
 46
0.0
 47
0.0
 48
0.0
 49
0.0
140
0.0
141
0.0
142
1.0
143
1.0
 70
   688
 72
     0
 73
     0
 74
     5
  7

 75
    16
147
1.0
148
0.0
149
0.0
100
AcDbLayout
  1
Layout2
 70
     1
 71
     2
 10
0.0
 20
0.0
 11
0.0
 21
0.0
 12
0.0
 22
0.0
 32
0.0
 14
0.0
 24
0.0
 34
0.0
 15
0.0
 25
0.0
 35
0.0
146
0.0
 13
0.0
 23
0.0
 33
0.0
 16
1.0
 26
0.0
 36
0.0
 17
0.0
 27
1.0
 37
0.0
 76
     0
330
23
  0
LAYOUT
  5
22
102
{ACAD_REACTORS
330
1A
102
}
330
1A
100
AcDbPlotSettings
  1

  2
none_device
  4
ANSI_A_(11.00_x_8.50_Inches)
  6

 40
6.35
 41
19.05
 42
6.35000508
 43
19.05000254
 44
279.4
 45
215.9
 46
0.23335996
 47
-49.40300127
 48
0.0
 49
0.0
140
0.0
141
0.0
142
0.5445
143
1.0
 70
  1696
 72
     0
 73
     0
 74
     0
  7

 75
     0
147
0.5913241897
148
-39.4088153714
149
0.0
100
AcDbLayout
  1
Model
 70
     1
 71
     0
 10
0.0
 20
0.0
 11
12.0
 21
9.0
 12
0.0
 22
0.0
 32
0.0
 14
-0.375
 24
7.5
 34
0.0
 15
19.625
 25
12.5
 35
0.0
146
0.0
 13
0.0
 23
0.0
 33
0.0
 16
1.0
 26
0.0
 36
0.0
 17
0.0
 27
1.0
 37
0.0
 76
     0
330
1F
331
29
  0
MLINESTYLE
  5
18
102
{ACAD_REACTORS
330
17
102
}
330
17
100
AcDbMlineStyle
  2
Standard
 70
     0
  3

 62
   256
 51
90.0
 52
90.0
 71
     2
 49
0.5
 62
   256
  6
BYLAYER
 49
-0.5
 62
   256
  6
BYLAYER
  0
ACDBPLACEHOLDER
  5
F
102
{ACAD_REACTORS
330
E
102
}
330
E
  0
SCALE
  5
48
102
{ACAD_REACTORS
330
47
102
}
330
47
100
AcDbScale
 70
     0
300
1:1
140
1.0
141
1.0
290
     1
  0
SCALE
  5
49
102
{ACAD_REACTORS
330
47
102
}
330
47
100
AcDbScale
 70
     0
300
1/128" = 1'-0"
140
0.0078125
141
12.0
290
     0
  0
SCALE
  5
4A
102
{ACAD_REACTORS
330
47
102
}
330
47
100
AcDbScale
 70
     0
300
1/64" = 1'-0"
140
0.015625
141
12.0
290
     0
  0
SCALE
  5
4B
102
{ACAD_REACTORS
330
47
102
}
330
47
100
AcDbScale
 70
     0
300
1/32" = 1'-0"
140
0.03125
141
12.0
290
     0
  0
SCALE
  5
4C
102
{ACAD_REACTORS
330
47
102
}
330
47
100
AcDbScale
 70
     0
300
1/16" = 1'-0"
140
0.0625
141
12.0
290
     0
  0
SCALE
  5
4D
102
{ACAD_REACTORS
330
47
102
}
330
47
100
AcDbScale
 70
     0
300
3/32" = 1'-0"
140
0.09375
141
12.0
290
     0
  0
SCALE
  5
4E
102
{ACAD_REACTORS
330
47
102
}
330
47
100
AcDbScale
 70
     0
300
1/8" = 1'-0"
140
0.125
141
12.0
290
     0
  0
SCALE
  5
4F
102
{ACAD_REACTORS
330
47
102
}
330
47
100
AcDbScale
 70
     0
300
3/16" = 1'-0"
140
0.1875
141
12.0
290
     0
  0
SCALE
  5
50
102
{ACAD_REACTORS
330
47
102
}
330
47
100
AcDbScale
 70
     0
300
1/4" = 1'-0"
140
0.25
141
12.0
290
     0
  0
SCALE
  5
51
102
{ACAD_REACTORS
330
47
102
}
330
47
100
AcDbScale
 70
     0
300
3/8" = 1'-0"
140
0.375
141
12.0
290
     0
  0
SCALE
  5
52
102
{ACAD_REACTORS
330
47
102
}
330
47
100
AcDbScale
 70
     0
300
1/2" = 1'-0"
140
0.5
141
12.0
290
     0
  0
SCALE
  5
53
102
{ACAD_REACTORS
330
47
102
}
330
47
100
AcDbScale
 70
     0
300
3/4" = 1'-0"
140
0.75
141
12.0
290
     0
  0
SCALE
  5
54
102
{ACAD_REACTORS
330
47
102
}
330
47
100
AcDbScale
 70
     0
300
1" = 1'-0"
140
1.0
141
12.0
290
     0
  0
SCALE
  5
55
102
{ACAD_REACTORS
330
47
102
}
330
47
100
AcDbScale
 70
     0
300
1-1/2" = 1'-0"
140
1.5
141
12.0
290
     0
  0
SCALE
  5
56
102
{ACAD_REACTORS
330
47
102
}
330
47
100
AcDbScale
 70
     0
300
3" = 1'-0"
140
3.0
141
12.0
290
     0
  0
SCALE
  5
57
102
{ACAD_REACTORS
330
47
102
}
330
47
100
AcDbScale
 70
     0
300
6" = 1'-0"
140
6.0
141
12.0
290
     0
  0
SCALE
  5
58
102
{ACAD_REACTORS
330
47
102
}
330
47
100
AcDbScale
 70
     0
300
1'-0" = 1'-0"
140
12.0
141
12.0
290
     0
  0
ENDSEC
  0
EOF
